<?xml version="1.0" standalone="no"?>
<!DOCTYPE svg PUBLIC "-//W3C//DTD SVG 20010904//EN"
 "http://www.w3.org/TR/2001/REC-SVG-20010904/DTD/svg10.dtd">
<svg version="1.0" xmlns="http://www.w3.org/2000/svg"
 width="500.000000pt" height="500.000000pt" viewBox="0 0 500.000000 500.000000"
 preserveAspectRatio="xMidYMid meet">
<metadata>
Created by potrace 1.14, written by Peter Selinger 2001-2017
</metadata>
<g transform="translate(0.000000,500.000000) scale(0.100000,-0.100000)"
fill="#000000" stroke="none">
<path d="M1747 4064 c-3 -3 -101 -7 -219 -8 -226 -3 -236 -5 -326 -38 -195
-72 -343 -270 -355 -473 -1 -27 -6 -56 -11 -64 -6 -9 -5 -12 1 -8 9 6 12 -14
17 -100 0 -13 5 -23 9 -23 5 0 5 -4 2 -10 -3 -5 -2 -10 2 -10 5 0 15 -17 22
-37 17 -47 74 -137 101 -160 21 -18 28 -39 9 -27 -7 4 -7 -2 1 -17 17 -32 17
-32 24 -14 3 9 2 13 -4 10 -6 -3 -10 -1 -10 4 0 19 19 12 36 -14 9 -14 20 -23
24 -20 15 9 22 -15 10 -30 -14 -17 -3 -38 16 -31 15 6 37 -27 26 -39 -4 -5 -2
-5 5 -1 7 4 9 14 6 24 -6 15 -5 15 10 3 16 -12 15 -16 -12 -50 -25 -31 -27
-37 -11 -37 11 0 16 5 12 15 -3 9 -1 12 6 7 8 -5 10 -1 5 11 -6 16 -5 16 10 4
11 -9 17 -10 17 -2 0 6 -5 11 -11 11 -6 0 -3 7 5 16 17 17 12 39 -6 28 -7 -5
-8 -2 -3 6 5 9 4 11 -3 6 -7 -4 -12 -1 -12 6 0 10 -2 10 -8 0 -7 -10 -13 -8
-26 7 -11 12 -14 21 -7 26 6 3 11 -1 11 -10 0 -11 5 -15 14 -12 7 3 23 -1 35
-9 11 -8 21 -13 21 -9 0 3 14 -2 31 -10 19 -11 29 -22 25 -31 -3 -8 -1 -14 4
-14 6 0 10 8 11 18 0 9 3 12 5 5 3 -6 17 -10 32 -8 15 2 21 2 14 -1 -6 -3 -9
-10 -6 -15 3 -6 12 -5 22 3 10 7 14 9 10 4 -4 -4 -1 -14 5 -21 10 -10 15 -9
25 9 13 20 11 9 -5 -31 -6 -16 -5 -16 11 -4 13 11 20 11 28 3 7 -7 17 -12 22
-12 6 1 1 9 -12 20 -21 18 -22 19 -3 17 11 -1 18 -3 16 -5 -2 -3 5 -16 15 -30
22 -28 25 -42 9 -42 -5 0 -8 4 -5 8 2 4 1 14 -5 22 -5 8 -9 10 -9 5 0 -6 -11
-11 -25 -11 -14 0 -25 4 -25 9 0 4 -5 5 -11 1 -8 -4 -7 -9 2 -15 8 -5 10 -9 4
-9 -18 0 -38 17 -32 27 4 6 0 19 -8 29 -8 10 -15 14 -15 9 0 -6 4 -15 10 -21
6 -6 6 -15 0 -24 -7 -10 -10 -11 -11 -2 -1 6 -3 17 -4 22 -1 6 -3 15 -4 20 -1
7 -8 7 -22 0 -11 -7 -30 -13 -42 -16 -24 -4 -55 11 -45 21 4 4 13 3 20 -1 21
-14 36 -13 42 2 5 12 2 12 -15 3 -17 -9 -20 -8 -14 2 6 8 4 10 -5 4 -9 -5 -11
-4 -6 3 5 8 1 10 -11 6 -10 -3 -14 -2 -8 3 14 11 17 33 5 33 -6 0 -10 -6 -11
-12 0 -7 -2 -21 -4 -32 -5 -24 5 -47 16 -40 13 8 11 -10 -3 -25 -11 -11 -10
-12 2 -5 8 5 24 8 35 7 16 -1 17 -1 2 3 -9 3 -15 10 -12 15 4 5 14 5 26 -2 16
-8 18 -13 8 -25 -12 -14 -3 -19 30 -15 7 2 10 -2 6 -8 -5 -10 1 -13 21 -10 4
0 11 -5 16 -13 8 -11 9 -11 6 0 -2 8 -7 13 -12 12 -5 -1 -13 4 -17 12 -17 26
-9 29 21 8 17 -12 28 -26 25 -31 -14 -22 8 -27 41 -8 23 13 34 15 32 7 -3 -7
-15 -18 -27 -24 l-22 -11 21 -6 c12 -3 19 -3 16 0 -7 8 13 33 26 33 6 0 4 -8
-3 -17 -11 -15 -11 -16 0 -6 14 12 40 7 54 -11 5 -6 6 -3 2 9 -11 33 -11 37 3
42 7 3 12 1 11 -4 -5 -29 2 -35 21 -18 11 10 20 13 20 7 0 -6 -4 -14 -10 -17
-5 -3 -10 -12 -10 -18 0 -7 9 -1 20 13 24 31 27 14 3 -20 -15 -22 -15 -23 -1
-12 14 11 18 10 27 -5 6 -10 11 -13 11 -8 0 6 -5 16 -10 21 -12 12 -2 47 11
39 4 -3 6 -12 2 -20 -3 -8 0 -15 5 -15 6 0 12 -6 15 -12 2 -7 3 -5 2 4 -2 10
1 21 6 24 5 3 9 0 9 -6 0 -6 5 -8 11 -4 8 4 7 9 -2 15 -7 4 -16 6 -20 3 -4 -2
-12 3 -19 11 -15 18 -7 19 22 4 13 -7 18 -7 14 -1 -3 6 -2 13 4 17 6 4 7 12 3
18 -4 7 0 6 10 -2 9 -7 17 -10 17 -5 0 16 -15 29 -33 30 -13 1 -16 -3 -12 -16
3 -10 0 -22 -6 -26 -7 -4 -9 -3 -6 4 10 14 -3 43 -15 36 -6 -4 -5 -10 3 -15 7
-4 10 -11 6 -16 -11 -10 -26 17 -20 34 3 8 12 12 20 9 11 -5 13 -1 8 15 -5 15
-4 19 4 15 6 -4 11 -14 11 -22 0 -8 5 -14 11 -14 5 0 7 6 3 13 -6 9 -5 9 7 0
9 -8 20 -9 29 -3 15 9 13 11 -12 14 -6 0 -13 8 -15 16 -4 12 -3 12 5 2 5 -8
11 -12 13 -11 2 2 13 -2 23 -8 19 -10 18 -11 -2 -17 -12 -4 -22 -12 -22 -17 0
-6 5 -7 10 -4 6 3 10 2 10 -4 0 -5 -5 -13 -10 -16 -6 -4 -8 -10 -5 -15 3 -5
-1 -12 -9 -17 -8 -4 -15 -11 -15 -16 -1 -19 -33 -67 -41 -62 -6 3 -7 0 -5 -7
3 -8 -2 -23 -12 -34 -10 -11 -19 -25 -20 -32 -3 -10 -401 -669 -468 -772 -12
-19 -55 -89 -95 -155 -40 -66 -81 -132 -91 -146 -21 -31 -62 -146 -61 -171 0
-10 -3 -18 -7 -18 -10 0 -5 -157 8 -213 6 -27 8 -53 5 -59 -4 -6 -2 -8 4 -4
13 8 24 -25 16 -50 -4 -14 -3 -15 4 -5 12 16 27 -3 16 -21 -4 -7 -3 -8 4 -4 7
4 14 -3 18 -18 3 -13 13 -27 21 -30 9 -4 13 -13 9 -22 -3 -8 -2 -13 3 -10 4 3
22 -10 39 -28 17 -19 41 -41 54 -50 18 -13 20 -18 10 -25 -11 -7 -11 -9 1 -14
9 -3 14 -14 13 -24 -2 -10 -1 -12 1 -6 3 9 10 10 23 3 13 -7 21 -7 26 2 4 6 3
8 -2 5 -5 -3 -21 3 -34 14 -14 10 -20 19 -13 19 6 0 19 -7 27 -16 9 -8 16 -12
16 -8 0 3 7 1 15 -6 8 -7 15 -18 15 -24 0 -7 -4 -6 -9 2 -7 11 -9 11 -14 -1
-4 -10 0 -14 11 -12 25 4 33 -4 19 -19 -8 -9 -14 -10 -18 -4 -8 13 -29 1 -29
-15 0 -7 4 -7 9 2 8 12 12 9 22 -13 9 -18 18 -26 30 -23 25 7 59 -20 53 -41
-5 -14 -4 -14 4 -2 8 10 8 18 0 27 -14 18 -2 16 27 -3 14 -9 23 -20 20 -24 -2
-4 7 -6 20 -4 21 2 24 -1 19 -21 -7 -27 11 -42 30 -26 15 13 41 -10 28 -24 -4
-5 -1 -4 7 0 11 6 13 4 7 -11 -6 -15 -5 -17 5 -7 10 10 10 16 1 25 -21 21 -13
32 9 12 11 -10 20 -14 19 -9 -5 21 1 25 14 13 8 -7 10 -16 5 -19 -5 -3 2 -11
16 -17 21 -10 27 -9 30 3 3 8 7 22 10 30 4 13 8 13 24 3 11 -7 17 -16 15 -20
-3 -4 -2 -8 3 -9 4 0 16 -2 26 -4 10 -2 14 1 10 8 -4 7 0 8 11 4 10 -4 15 -3
11 3 -3 6 -2 10 3 10 6 0 12 -7 16 -15 3 -9 0 -15 -9 -15 -8 0 -15 -5 -15 -11
0 -5 -5 -7 -12 -3 -7 4 -8 3 -4 -5 5 -8 16 -5 37 9 16 12 29 26 29 31 0 6 4 8
10 4 5 -3 6 -13 3 -23 -5 -14 -3 -15 7 -5 10 9 10 15 2 26 -7 8 -9 17 -5 20 3
4 15 -7 25 -24 18 -30 20 -30 33 -13 10 14 10 21 2 26 -7 4 -7 8 -2 8 20 0 38
-17 26 -24 -13 -9 -5 -26 12 -26 7 0 6 4 -3 10 -8 5 -13 10 -10 11 3 0 16 2
29 5 20 4 22 2 11 -11 -7 -9 -8 -15 -2 -15 5 0 13 7 16 15 5 13 10 14 28 4 17
-9 23 -9 26 0 3 9 8 9 19 -1 12 -10 18 -9 29 7 13 17 19 14 15 -8 -1 -4 5 -18
14 -30 8 -12 15 -16 15 -10 0 7 -4 15 -10 18 -5 3 -10 11 -10 17 0 7 6 6 15
-2 10 -9 15 -9 15 -1 0 6 -4 11 -9 11 -5 0 -8 8 -6 18 2 9 4 19 4 22 1 3 10
-10 21 -27 11 -18 25 -33 32 -33 9 0 8 3 -2 10 -14 9 -13 11 9 14 5 0 13 4 17
8 17 18 26 6 9 -12 -10 -11 -13 -20 -8 -20 6 0 13 7 17 15 5 13 9 13 26 3 17
-11 22 -11 29 1 5 8 6 21 3 30 -5 14 -3 14 11 2 14 -11 20 -11 33 0 15 12 16
11 11 -6 -4 -11 -3 -26 2 -34 7 -11 10 -9 16 8 3 11 11 21 16 21 6 0 7 -4 4
-10 -3 -5 -1 -10 5 -10 7 0 10 7 6 15 -3 8 -1 15 4 15 6 0 10 -4 10 -9 0 -6 9
-8 20 -6 12 2 21 -3 25 -16 5 -15 10 -17 25 -9 10 5 26 7 36 3 12 -4 15 -2 12
8 -3 8 -12 13 -20 11 -8 -1 -15 5 -15 13 0 21 13 19 38 -6 l21 -21 -29 -31
c-15 -18 -19 -24 -7 -14 11 9 24 14 29 10 4 -5 5 -3 1 4 -4 7 2 17 14 23 14 8
19 17 15 30 -4 14 -1 18 12 15 10 -2 20 -4 23 -4 3 -1 -2 -6 -10 -11 -13 -9
-13 -10 0 -10 13 0 13 -1 0 -10 -8 -5 -11 -12 -7 -17 10 -9 28 18 20 30 -3 5
0 7 8 5 8 -3 13 -11 12 -17 -2 -6 2 -11 7 -11 6 0 10 5 10 10 0 6 8 5 21 -2
17 -11 22 -10 33 5 14 17 27 23 25 10 -3 -20 2 -33 12 -33 8 0 9 4 0 13 -6 8
-8 17 -4 20 13 13 32 7 38 -13 5 -16 10 -18 25 -10 10 5 26 7 36 3 12 -4 15
-2 12 8 -3 8 -12 13 -20 11 -8 -1 -15 5 -15 13 0 21 13 19 38 -6 l21 -21 -29
-31 c-15 -18 -19 -24 -7 -14 11 9 24 14 29 10 4 -5 5 -3 1 4 -4 7 2 17 14 23
13 7 19 17 15 28 -3 13 1 18 16 19 18 2 19 0 7 -14 -9 -12 -10 -15 0 -9 7 4
12 2 12 -8 0 -8 4 -17 10 -21 5 -3 8 7 5 25 -2 21 0 30 8 27 7 -3 11 -10 9
-17 -3 -15 16 -40 32 -40 6 0 5 4 -3 9 -7 5 -9 11 -4 14 11 7 44 -28 36 -37
-4 -3 -4 -6 -1 -6 3 0 12 8 19 17 8 9 9 14 3 10 -7 -4 -18 1 -25 10 -12 14
-11 15 10 8 20 -6 23 -4 18 9 -4 9 0 19 10 24 11 6 12 11 4 16 -6 4 -11 2 -11
-5 0 -7 -7 -4 -15 7 -13 16 -14 16 -9 2 4 -11 1 -18 -7 -18 -8 0 -5 -6 7 -16
18 -14 18 -14 -5 -3 -14 6 -41 28 -60 47 -20 19 -30 32 -23 28 6 -4 12 -2 12
3 0 6 4 11 10 11 5 0 9 -3 9 -7 -3 -19 2 -36 8 -30 3 4 13 1 21 -6 13 -10 15
-9 9 5 -4 11 -2 15 6 12 15 -5 20 33 6 41 -5 4 -9 11 -9 17 0 6 9 0 19 -14 17
-21 28 -24 71 -24 33 1 54 6 60 16 5 8 10 10 10 5 0 -6 -5 -16 -11 -22 -7 -7
-7 -13 -1 -17 6 -3 13 3 17 14 4 11 11 17 17 14 8 -5 9 -1 4 12 -6 16 -5 17 6
6 11 -11 10 -16 -5 -26 -15 -12 -15 -15 -2 -26 8 -7 12 -17 8 -23 -3 -6 -1 -7
6 -3 6 4 9 15 7 24 -7 22 9 49 18 33 4 -6 2 -11 -3 -11 -23 0 -10 -15 14 -16
20 -2 23 1 15 11 -8 9 -7 14 4 18 11 4 13 1 9 -10 -4 -11 -2 -14 5 -9 7 4 12
2 12 -3 0 -6 -5 -11 -12 -11 -16 0 -1 -13 18 -16 10 -2 13 3 9 17 -4 11 -2 19
5 19 6 0 8 -4 5 -10 -3 -5 -1 -10 4 -10 6 0 11 5 11 12 0 6 3 8 7 5 3 -4 17 8
30 25 26 36 32 30 7 -7 -10 -15 -12 -25 -5 -25 5 0 18 12 26 28 9 15 13 18 10
7 -13 -38 -14 -55 -4 -55 5 0 9 8 9 18 0 11 9 27 20 37 23 21 27 11 5 -11 -26
-26 -16 -39 10 -14 13 12 22 27 18 33 -4 6 -1 7 7 2 9 -5 10 -1 6 16 -6 21 -5
22 4 6 12 -19 3 -39 -32 -65 -10 -7 -18 -18 -18 -24 0 -7 6 -6 15 2 8 7 15 9
15 4 0 -5 8 3 18 18 14 21 21 25 30 16 8 -8 15 -8 27 2 8 7 15 8 15 3 0 -16
80 -10 91 7 7 11 8 9 5 -11 -4 -23 -1 -26 22 -27 23 0 24 2 9 13 -19 14 -24
30 -5 19 7 -5 9 -2 6 8 -4 8 -2 21 3 29 5 9 7 4 5 -16 -3 -31 9 -55 27 -55 7
0 7 4 -1 12 -7 7 -12 17 -12 23 0 5 5 2 11 -7 9 -17 12 -17 42 -1 36 18 22 31
-15 13 -22 -11 -22 -10 -4 4 25 20 45 20 53 0 5 -13 9 -12 28 6 18 17 25 19
31 8 4 -7 4 -10 -1 -6 -4 4 -14 3 -22 -3 -24 -20 -14 -28 17 -12 25 12 29 18
19 29 -8 10 -8 14 0 14 6 0 11 -4 11 -9 0 -21 46 -4 58 22 l13 27 29 -20 c35
-25 53 -26 23 -1 -12 10 -19 21 -16 25 3 3 13 -3 20 -14 8 -11 19 -18 24 -14
6 3 3 11 -7 18 -21 16 -11 34 24 47 24 9 25 11 10 20 -10 6 -18 15 -18 21 0 6
11 -1 26 -17 28 -30 44 -28 22 4 -8 12 -18 18 -22 14 -4 -4 -4 1 0 11 6 15 4
17 -6 11 -9 -6 -11 -4 -5 5 8 14 9 13 42 -37 11 -16 12 -15 7 8 -3 15 -1 30 5
33 5 4 8 13 5 21 -4 8 -9 13 -13 11 -4 -3 -13 0 -21 5 -11 7 -9 8 8 6 13 -2
27 -9 31 -15 5 -9 13 -7 26 8 10 11 22 17 28 13 6 -4 8 0 4 11 -4 10 -1 19 8
23 12 4 13 9 4 19 -9 12 -14 8 -28 -18 -9 -17 -22 -34 -30 -36 -8 -3 -5 5 7
18 21 23 26 39 23 68 -2 14 25 16 34 2 7 -12 25 -4 25 11 0 6 -4 8 -8 5 -4 -2
-14 -1 -22 5 -11 6 -12 9 -2 9 7 0 10 5 6 12 -4 6 1 17 11 25 13 9 16 16 8 24
-7 7 -17 -2 -32 -33 -16 -33 -21 -38 -21 -20 0 16 -4 21 -12 16 -8 -4 -10 -3
-5 2 5 5 12 9 17 9 13 0 55 50 55 65 -1 17 33 45 42 36 4 -3 0 -6 -8 -6 -7 0
2 -8 21 -18 18 -11 36 -25 39 -33 3 -11 1 -12 -10 -2 -8 6 -19 9 -25 5 -12 -9
-14 -62 -2 -62 5 0 6 -5 2 -11 -4 -8 -9 -7 -15 2 -4 7 -6 16 -3 20 2 4 -3 12
-11 19 -18 15 -19 7 -4 -21 8 -16 7 -26 -6 -46 -12 -18 -13 -23 -4 -18 8 3 3
-3 -10 -14 -21 -19 -20 -26 3 -22 5 1 4 -4 -2 -12 -7 -8 -11 -16 -9 -18 1 -2
-2 -1 -7 3 -6 5 -15 8 -20 8 -6 0 -5 -4 3 -9 8 -5 16 -17 17 -25 1 -10 -2 -13
-9 -9 -23 14 -36 11 -34 -8 1 -19 17 -28 17 -10 0 6 9 9 20 8 11 -1 20 -5 20
-10 0 -4 -6 -7 -12 -5 -20 4 -73 -28 -59 -36 6 -4 11 -2 11 3 0 6 5 11 11 11
8 0 8 -4 1 -12 -10 -13 -12 -18 -12 -39 0 -5 -4 -8 -10 -4 -5 3 -7 11 -4 19 3
7 -2 13 -11 13 -18 0 -19 -9 -2 -26 6 -8 7 -11 2 -8 -6 3 -17 2 -25 -4 -11 -6
-11 -9 -2 -10 6 -1 17 -3 22 -4 6 -1 15 -3 21 -4 5 0 7 -6 4 -11 -4 -7 -12 -7
-25 0 -23 13 -33 13 -25 1 3 -6 -4 -15 -16 -21 -17 -10 -20 -9 -14 1 5 8 4 10
-4 5 -6 -4 -9 -12 -6 -17 3 -5 -2 -6 -12 -3 -14 4 -15 3 -4 -4 9 -7 10 -12 2
-16 -6 -4 -11 -2 -11 5 0 15 -15 2 -15 -14 -1 -7 -7 -11 -14 -9 -7 1 -10 -2
-6 -7 6 -10 -16 -8 -46 4 -10 4 -16 0 -16 -10 0 -8 4 -15 9 -15 5 0 20 -12 35
-26 14 -14 28 -23 31 -20 3 4 -2 12 -12 19 -17 12 -17 14 0 28 16 13 17 12 11
-4 -4 -11 -3 -16 3 -12 6 3 10 1 10 -5 0 -22 25 -3 28 21 1 13 3 30 4 37 1 7
6 11 12 9 6 -3 10 -10 8 -16 -1 -7 2 -10 7 -7 5 4 14 -2 20 -11 6 -10 11 -13
11 -8 0 6 -5 16 -11 22 -8 8 -8 17 0 31 6 10 7 22 4 26 -3 3 2 6 11 6 11 0 16
-5 13 -12 -18 -44 -16 -48 6 -13 14 22 28 38 30 35 3 -3 9 -1 14 3 4 5 2 7 -6
5 -7 -2 -16 3 -19 11 -2 8 0 11 6 7 6 -3 17 0 25 8 8 8 17 13 19 11 9 -10 5
30 -5 43 -6 8 -6 12 1 12 6 0 16 -8 21 -17 10 -17 10 -17 11 0 0 9 -5 17 -11
17 -5 0 -7 5 -4 10 4 6 13 7 24 1 13 -7 18 -6 18 5 0 14 -10 18 -36 14 -12 -1
-13 1 -2 14 7 8 19 12 27 9 7 -3 17 2 20 11 3 9 10 13 15 10 5 -3 9 0 9 5 0
16 -20 13 -26 -4 -4 -8 -11 -15 -16 -15 -6 0 -3 11 5 24 12 18 13 26 4 36 -10
10 -8 12 5 7 13 -4 15 -2 11 10 -4 11 -2 14 5 9 7 -4 12 -2 12 3 0 15 -16 14
-33 -4 -8 -8 -17 -11 -21 -8 -7 7 35 39 47 35 5 -1 6 2 3 7 -3 5 1 12 10 15 9
4 14 9 11 13 -4 3 -13 1 -21 -6 -11 -9 -15 -8 -20 5 -8 20 8 51 18 35 4 -6 2
-11 -3 -11 -6 0 -11 -5 -11 -12 0 -7 10 -3 22 9 17 17 19 25 10 36 -7 8 -10
21 -7 28 6 19 -10 43 -23 35 -6 -4 -9 -14 -6 -24 4 -13 2 -12 -8 3 -13 20 -56
36 -44 16 9 -13 -9 -22 -28 -15 -14 5 -14 9 -4 22 11 14 10 15 -7 9 -18 -7
-19 -6 -3 6 20 16 14 28 -10 20 -15 -4 -15 -3 -2 6 13 9 13 11 0 11 -13 0 -13
1 0 10 8 5 24 7 35 4 19 -5 19 -4 1 10 -10 8 -15 20 -11 26 5 9 0 10 -16 6
-13 -3 -18 -3 -11 0 10 5 10 9 1 21 -7 8 -8 13 -3 12 20 -4 35 2 29 11 -3 5
-11 8 -18 6 -7 -1 -9 -1 -4 1 4 3 7 9 7 14 0 6 -6 7 -12 3 -7 -4 -10 -4 -6 1
4 4 3 14 -2 21 -6 6 -10 16 -8 20 1 5 -4 20 -11 32 -7 13 -10 26 -7 30 3 3 6
-1 6 -9 0 -12 2 -11 11 1 8 12 9 9 4 -10 -4 -17 -3 -21 3 -11 12 16 27 -3 16
-21 -4 -6 -3 -8 3 -5 6 4 9 -4 7 -18 -1 -14 2 -23 7 -20 5 4 6 -2 3 -12 -4
-14 -3 -15 4 -4 7 9 12 10 16 2 4 -6 3 -11 -2 -11 -5 0 -9 -7 -9 -15 0 -8 5
-11 10 -8 6 4 7 1 2 -8 -8 -12 -6 -12 8 0 23 18 22 4 -1 -17 -10 -10 -11 -12
-3 -7 11 8 13 7 6 -4 -6 -10 -4 -12 5 -6 8 5 11 4 6 -3 -3 -6 -3 -13 2 -16 5
-3 8 -21 7 -40 -2 -29 1 -34 18 -31 10 3 25 9 33 16 11 9 14 8 14 -5 0 -9 5
-16 11 -16 5 0 7 -5 3 -12 -4 -7 -3 -8 5 -4 8 5 7 13 -4 29 -14 21 -51 35 -39
15 4 -6 1 -9 -6 -6 -8 2 -14 19 -15 36 -1 28 1 31 18 26 14 -4 18 -2 15 7 -3
8 -17 13 -32 13 -20 -1 -26 3 -22 13 4 8 6 18 6 21 0 4 4 0 10 -8 5 -8 11 -12
14 -10 2 3 -2 14 -10 24 -10 15 -16 16 -27 7 -12 -9 -14 -7 -14 14 0 22 2 24
15 13 11 -9 9 -4 -3 14 -11 15 -24 28 -29 28 -5 0 -2 -7 5 -17 12 -14 12 -16
-1 -11 -8 2 -15 17 -15 31 -1 28 10 36 18 15 4 -10 6 -10 6 0 1 7 5 11 10 7 5
-3 12 -1 15 3 3 5 -11 8 -30 7 -43 -2 -63 24 -38 49 8 9 11 16 5 16 -6 0 -15
-9 -21 -20 -6 -11 -16 -17 -25 -14 -8 4 -12 10 -9 15 3 5 8 8 12 6 4 -2 15 4
25 15 21 22 14 23 -18 2 -22 -14 -24 -14 -36 8 -11 20 -11 22 3 10 13 -10 19
-10 32 3 9 9 16 22 16 28 0 6 -7 1 -15 -11 -15 -21 -17 -21 -40 -6 -29 19 -33
36 -7 27 9 -3 14 -3 10 1 -3 4 -13 8 -20 10 -14 2 -68 50 -68 61 0 10 -36 40
-88 74 -28 18 -52 37 -52 42 0 5 -3 8 -7 8 -5 -1 -14 -1 -22 0 -11 1 -11 4 0
18 13 15 12 15 -10 2 -18 -11 -25 -11 -28 -1 -3 6 -8 10 -12 8 -3 -2 -31 2
-61 10 -30 8 -69 14 -87 14 -20 0 -33 5 -33 13 0 9 -2 9 -8 0 -4 -7 -18 -11
-30 -10 -26 2 -30 28 -7 47 8 7 15 17 15 23 0 12 -34 -32 -43 -55 -7 -20 -67
-18 -93 3 -16 12 -17 12 -11 -3 4 -12 2 -15 -9 -11 -7 3 -14 9 -14 15 0 5 -4
6 -10 3 -5 -3 -10 -2 -10 4 0 5 14 8 30 6 35 -4 38 15 6 52 -16 19 -53 22 -41
3 3 -4 -6 -15 -19 -24 -20 -13 -25 -13 -30 -1 -3 10 0 12 11 8 11 -4 14 -2 9
5 -5 8 -2 10 8 6 11 -4 14 0 11 15 -3 15 0 18 12 14 12 -5 14 -3 8 8 -6 10 -3
9 11 -2 18 -16 21 -15 44 9 18 17 20 23 8 18 -45 -16 -51 -16 -25 -1 22 13 31
14 43 4 8 -6 14 -7 14 -2 0 15 -22 32 -35 27 -18 -7 -26 9 -13 26 8 12 9 12 4
-2 -3 -10 -3 -18 0 -18 12 0 85 52 80 57 -3 3 -17 -2 -30 -11 -35 -23 -44 -20
-13 4 14 11 33 20 43 20 14 0 15 3 6 12 -10 10 -17 10 -32 0 -24 -15 -30 -15
-30 -2 0 6 5 9 12 8 17 -4 16 25 -2 40 -13 11 -11 11 8 2 12 -6 20 -15 17 -21
-4 -5 -2 -9 4 -9 5 0 18 -3 28 -7 15 -5 15 -2 -4 19 -13 13 -23 28 -23 33 0 5
6 1 13 -8 8 -12 16 -14 27 -7 8 5 11 10 6 10 -5 0 -3 7 4 15 11 13 15 13 21 3
6 -9 9 -8 10 7 1 21 4 34 9 48 1 4 3 11 4 16 0 5 5 13 10 18 5 5 6 3 2 -4 -4
-7 -2 -13 3 -13 6 0 11 7 11 15 0 8 6 15 13 15 8 0 9 3 1 8 -6 4 -16 18 -23
32 -11 24 -11 23 9 -2 24 -31 40 -36 40 -12 0 11 5 14 16 10 9 -3 18 -6 20 -6
3 0 2 -5 -2 -11 -4 -8 -9 -7 -15 2 -6 10 -8 5 -5 -14 3 -18 1 -25 -6 -21 -7 4
-8 2 -4 -5 4 -6 12 -8 18 -5 7 4 8 2 4 -5 -4 -6 -11 -9 -16 -6 -9 6 -26 -33
-21 -49 1 -5 -5 -4 -13 4 -18 14 -22 25 -6 15 6 -3 10 0 10 7 0 8 -9 14 -20
15 -11 1 -18 -2 -15 -7 3 -5 1 -18 -5 -29 -7 -13 -7 -22 0 -26 6 -4 8 -10 5
-15 -3 -5 0 -12 6 -16 8 -4 7 -9 -2 -15 -17 -10 -31 11 -18 27 7 8 2 11 -16
12 l-25 0 20 -28 c15 -21 17 -30 7 -39 -9 -10 -9 -12 2 -9 7 2 16 -3 18 -10 7
-19 -20 -10 -36 12 -11 14 -15 15 -22 5 -13 -22 -11 -29 9 -23 14 5 14 4 2 -4
-8 -6 -18 -8 -24 -5 -5 4 -6 1 -1 -7 6 -9 4 -11 -5 -5 -9 5 -11 4 -6 -4 4 -6
12 -9 17 -6 13 9 11 -9 -3 -23 -9 -9 -9 -12 0 -12 10 0 10 -4 0 -19 -7 -11
-16 -17 -20 -15 -5 3 -5 11 -1 17 4 7 9 20 10 31 3 15 0 16 -10 7 -8 -6 -13
-22 -11 -36 1 -14 -1 -23 -5 -20 -4 2 -8 -2 -8 -10 0 -8 3 -12 7 -10 4 2 7 -2
7 -10 0 -8 -3 -15 -7 -15 -11 0 -7 -56 6 -68 9 -8 14 -7 18 4 3 8 2 13 -3 10
-14 -9 -22 24 -11 42 9 14 10 13 5 -5 -9 -32 20 -30 41 2 19 30 12 57 -13 49
-17 -5 -17 -5 0 6 11 7 23 8 30 2 15 -12 47 -23 47 -16 0 2 -12 9 -26 14 -22
9 -24 13 -14 25 12 14 5 20 -21 17 -12 -2 -4 48 8 52 8 4 12 -3 10 -17 -1 -13
3 -21 11 -19 6 1 12 -2 12 -8 0 -5 5 -10 12 -10 9 0 9 3 0 12 -17 17 -15 33 3
18 10 -9 15 -9 15 -1 0 6 -5 11 -11 11 -7 0 -8 7 -4 18 4 9 8 23 8 30 0 6 4
12 9 12 4 0 8 -6 8 -12 0 -8 5 -6 10 4 6 10 18 14 32 12 13 -3 6 3 -14 12 -21
9 -35 20 -32 26 4 5 11 5 19 -2 9 -8 14 -7 18 4 4 10 1 13 -9 9 -10 -4 -12 0
-8 11 3 9 11 13 18 9 6 -4 5 1 -3 10 -8 10 -9 17 -3 17 13 0 26 -20 27 -39 0
-8 10 -15 22 -16 12 -1 20 2 17 7 -4 5 -13 7 -21 4 -10 -4 -13 -2 -10 8 3 7 0
19 -6 26 -9 10 -7 11 13 5 20 -5 22 -4 10 5 -13 9 -12 13 8 29 15 13 20 25 16
38 -6 15 -4 16 7 6 7 -7 17 -13 23 -13 5 0 1 6 -10 14 -11 8 -15 18 -10 23 5
4 11 2 13 -4 3 -7 9 -13 14 -13 6 0 7 6 2 13 -10 15 -11 57 -2 57 4 0 15 7 24
16 12 13 19 14 30 4 9 -7 15 -8 15 -2 0 5 -7 12 -15 16 -18 6 -45 -2 -45 -15
0 -5 -5 -9 -11 -9 -5 0 -8 3 -5 8 2 4 -2 18 -10 32 -7 14 -13 19 -14 11 0 -8
-3 -12 -6 -9 -3 4 -1 16 6 27 13 25 2 28 -16 4 -12 -15 -15 -16 -23 -3 -14 20
-6 27 29 28 27 1 30 -2 25 -21 -6 -21 -6 -21 7 -2 21 33 19 47 -5 39 -21 -6
-21 -6 2 15 23 20 35 25 54 22 4 0 7 5 7 13 0 18 -38 17 -44 -1 -3 -7 -11 -13
-18 -13 -9 0 -8 3 2 10 8 5 12 10 8 10 -3 0 11 17 31 38 21 20 36 44 34 52 -4
13 -3 13 6 0 5 -8 7 -18 5 -22 -6 -10 10 -11 19 -1 4 3 2 12 -4 20 -9 10 -8
17 1 28 8 9 9 15 2 15 -6 0 -14 -4 -17 -10 -8 -13 -25 -13 -25 1 0 5 4 8 9 4
5 -3 13 0 16 6 4 5 14 8 22 5 9 -4 13 -1 10 6 -2 7 -10 12 -16 10 -6 -1 -11 2
-11 8 0 19 27 10 37 -12 6 -14 12 -18 16 -11 4 6 -4 24 -17 40 -18 22 -22 33
-14 44 8 11 9 11 5 -3 -3 -9 2 -22 10 -30 15 -11 16 -11 10 5 -3 9 -2 17 2 17
5 0 11 -7 15 -15 3 -8 0 -15 -6 -15 -6 0 -9 -3 -5 -6 3 -4 14 -4 23 0 13 5 14
9 4 21 -9 10 -9 15 -1 15 6 0 11 -4 11 -10 0 -5 4 -10 8 -10 10 0 12 29 3 31
-3 1 -16 3 -29 4 -12 1 -26 6 -30 10 -4 4 0 5 8 3 22 -8 50 10 44 27 -4 8 -1
15 6 15 6 0 8 5 5 10 -5 8 -11 7 -21 -1 -12 -10 -13 -9 -8 5 7 18 20 21 29 7
8 -14 46 -9 41 6 -3 7 1 10 8 7 7 -3 13 2 13 11 0 19 -11 19 -31 0 -21 -21
-28 -19 -14 4 7 11 16 17 20 15 4 -3 8 0 8 5 0 8 7 7 20 -1 10 -7 16 -15 11
-18 -4 -3 -7 -13 -5 -23 1 -9 -2 -15 -7 -12 -5 4 -6 -2 -3 -12 4 -14 3 -15 -4
-4 -6 8 -12 9 -16 3 -3 -6 -1 -12 4 -14 6 -2 12 -10 13 -18 2 -8 6 -21 10 -27
11 -17 1 -16 -28 3 -23 15 -24 15 -20 -5 2 -13 -4 -26 -18 -36 -12 -8 -16 -15
-9 -15 7 0 10 -5 6 -11 -4 -8 -9 -7 -16 2 -8 11 -9 10 -4 -3 3 -10 2 -17 -2
-17 -20 3 -25 -2 -12 -11 13 -9 12 -12 -4 -25 -11 -8 -14 -15 -7 -15 7 0 9 -5
5 -11 -5 -8 -8 -8 -14 0 -5 9 -11 7 -21 -5 -10 -13 -10 -16 -1 -10 7 4 20 2
28 -5 13 -10 20 -7 46 19 27 26 29 33 18 46 -15 19 0 22 18 4 9 -9 12 -9 12 0
0 7 -5 12 -11 12 -5 0 -7 4 -4 10 4 6 -1 7 -11 3 -30 -11 -6 15 34 37 21 12
44 31 51 43 14 22 13 22 -7 4 -11 -10 -22 -14 -25 -10 -3 5 10 19 29 32 34 24
37 47 4 36 -16 -5 -18 -1 -15 25 3 25 0 33 -20 42 -20 9 -22 14 -13 25 6 8 17
12 25 9 7 -3 13 -1 13 4 0 17 -17 19 -36 5 -10 -8 -26 -14 -34 -14 -13 1 -13
1 0 6 8 4 32 17 52 30 27 17 36 28 31 40 -5 15 -3 15 11 -2 16 -18 17 -18 12
-2 -3 10 -6 23 -6 28 0 6 -4 7 -10 4 -5 -3 -10 -1 -10 4 0 20 20 11 30 -11 5
-13 9 -21 10 -18 7 23 7 40 1 40 -4 0 -16 7 -27 16 -19 15 -19 15 1 5 13 -6
27 -6 38 0 9 6 21 8 26 4 5 -3 12 -1 16 5 5 9 -15 15 -38 11 -5 -1 -6 3 -2 9
4 6 2 17 -5 25 -15 18 4 29 29 15 14 -7 22 -7 27 1 4 8 9 7 16 -2 8 -11 9 -11
5 1 -2 8 -13 14 -24 13 -13 -1 -24 7 -31 21 -12 28 -7 36 22 35 20 -1 19 -1
-2 -7 -21 -6 -22 -9 -8 -27 15 -20 15 -20 16 -1 0 20 0 20 16 0 15 -18 15 -18
8 5 -4 17 -3 22 7 19 8 -3 12 -13 11 -23 -3 -16 -2 -17 12 -6 12 11 14 17 5
27 -6 8 -18 14 -26 14 -7 0 -13 6 -12 13 3 26 -1 38 -13 31 -7 -4 -8 -3 -4 5
10 16 39 -7 32 -26 -6 -15 10 -18 19 -3 4 6 1 17 -5 25 -7 8 -9 15 -4 15 5 0
2 5 -6 10 -8 5 -10 10 -4 10 6 0 19 -9 29 -20 10 -11 23 -20 28 -20 6 0 1 10
-11 23 -24 26 -28 37 -11 37 5 0 7 -4 4 -10 -7 -11 8 -14 18 -3 8 7 -12 35
-22 29 -3 -2 -7 8 -7 22 -2 27 -2 27 9 4 6 -13 16 -21 23 -18 8 3 11 0 8 -8
-3 -7 2 -13 11 -13 8 0 15 3 15 6 -1 14 -20 36 -32 36 -7 0 -14 8 -16 18 -2 9
1 17 7 17 6 0 7 -7 4 -17 -4 -10 -2 -14 5 -9 6 3 13 2 17 -4 3 -5 11 -10 17
-10 7 0 6 5 -2 15 -10 12 -6 20 19 46 19 18 38 29 46 25 19 -7 19 4 -1 33 -13
17 -14 25 -5 34 9 9 15 8 22 -5 6 -10 15 -18 20 -18 6 0 1 16 -11 35 -12 19
-18 35 -14 35 4 0 -1 6 -11 14 -11 8 -23 12 -26 10 -4 -2 -13 4 -20 14 -13 15
-12 16 4 3 9 -7 17 -11 17 -7 0 4 11 -1 25 -10 14 -9 23 -19 21 -22 -10 -9 14
-41 27 -36 15 5 19 34 5 34 -4 0 -8 -5 -8 -12 0 -6 -3 -8 -7 -5 -11 11 51 61
72 59 20 -3 20 -2 1 13 -11 8 -16 15 -10 15 5 0 2 5 -6 10 -8 5 -10 10 -5 10
6 0 17 -4 25 -10 9 -5 19 -5 27 2 7 6 13 9 14 7 7 -34 6 -37 -11 -34 -14 3
-18 -1 -15 -15 2 -11 -1 -18 -8 -16 -7 1 -9 1 -4 -1 4 -3 4 -9 1 -15 -4 -6
-11 -2 -18 10 l-11 22 -13 -21 c-11 -17 -11 -20 4 -17 9 2 19 -4 21 -12 4 -12
3 -12 -5 -2 -8 11 -10 11 -15 -1 -3 -8 0 -20 6 -27 9 -10 9 -11 -3 -6 -8 4 -6
0 4 -8 11 -9 15 -16 10 -16 -6 0 -16 6 -23 13 -11 10 -12 9 -6 -2 6 -10 4 -12
-5 -6 -9 6 -11 4 -5 -5 6 -9 4 -11 -5 -5 -8 5 -11 4 -6 -3 6 -11 24 -10 61 4
16 6 18 5 8 -7 -7 -7 -13 -17 -13 -22 0 -5 9 1 19 14 15 18 17 28 9 43 -8 15
-7 18 5 13 11 -4 14 0 10 16 -4 18 -3 19 6 7 9 -13 11 -12 11 3 0 14 -5 17
-22 11 -23 -7 -23 -6 -4 15 19 21 43 30 31 12 -3 -6 4 -15 16 -21 17 -10 20
-9 14 1 -6 9 -3 11 9 6 10 -4 15 -3 11 4 -4 5 -14 7 -24 4 -12 -3 -17 1 -18
15 -2 17 1 18 17 10 20 -11 38 4 19 16 -8 4 -7 9 2 16 11 8 10 9 -3 4 -10 -3
-20 -1 -23 4 -4 6 -1 10 4 10 6 0 11 5 11 11 0 5 -4 8 -9 4 -5 -3 -12 -1 -16
4 -3 6 3 8 15 6 11 -2 20 1 20 6 0 6 4 7 10 4 6 -3 10 -11 10 -16 0 -6 -4 -7
-10 -4 -5 3 -10 1 -10 -4 0 -14 17 -14 25 -1 4 6 1 18 -7 27 -11 14 -10 15 12
9 19 -6 21 -5 10 3 -16 11 -9 14 25 12 14 -1 11 3 -10 13 -16 7 -34 11 -39 8
-5 -3 -7 2 -3 11 3 9 2 19 -3 22 -6 4 -10 12 -10 18 1 7 12 -1 25 -18 14 -16
25 -25 25 -19 0 18 -41 55 -52 48 -8 -5 -9 -1 -5 10 4 10 7 20 7 23 0 2 7 -3
16 -11 8 -9 20 -16 27 -16 6 0 -4 12 -21 26 -18 15 -32 31 -32 37 0 5 7 4 15
-3 8 -7 15 -9 15 -4 0 5 5 2 10 -6 8 -13 10 -12 10 4 0 12 -5 16 -15 13 -8 -4
-17 -2 -20 3 -3 4 1 11 7 13 8 4 9 6 2 6 -6 1 -17 -6 -24 -14 -10 -12 -10 -18
0 -30 11 -13 9 -15 -8 -12 -23 3 -43 17 -25 17 18 0 10 30 -10 36 -16 5 -17 8
-6 16 12 8 11 9 -1 5 -8 -2 -14 -10 -12 -16 1 -7 -2 -20 -8 -31 -7 -13 -7 -21
2 -26 7 -4 8 -3 4 4 -5 8 -1 10 10 5 11 -4 13 -8 6 -11 -19 -6 -14 -21 7 -17
12 2 18 -2 17 -13 0 -9 5 -16 12 -14 6 1 12 -3 12 -9 0 -6 -8 -8 -17 -5 -11 4
-8 -2 7 -14 19 -15 20 -19 6 -13 -16 5 -18 3 -13 -11 5 -11 3 -15 -5 -10 -7 5
-8 3 -3 -7 7 -11 6 -12 -6 -2 -13 10 -16 10 -16 -2 0 -8 5 -11 11 -8 6 3 5 0
-2 -8 -17 -18 -30 1 -26 37 1 15 -2 24 -9 21 -13 -4 -14 -31 -3 -64 6 -19 11
-21 26 -13 14 8 18 6 16 -7 -3 -18 -34 -33 -54 -25 -10 3 -10 8 -1 18 7 8 8
18 4 22 -4 4 -10 1 -12 -5 -3 -7 -10 -13 -16 -13 -6 0 -4 7 5 16 15 16 15 18
-1 33 -9 9 -15 15 -12 13 7 -3 41 30 41 41 0 6 -8 3 -18 -6 -16 -15 -19 -15
-29 2 -10 16 -4 32 34 97 25 44 51 89 57 102 6 12 16 20 21 18 6 -2 10 10 11
26 1 28 0 28 -51 27 -29 -1 -57 1 -64 5 -6 4 -11 4 -11 -1 0 -7 -64 -9 -80 -3
-3 2 -9 1 -15 0 -25 -5 -224 -2 -234 4 -6 4 -11 4 -11 -1 0 -7 -192 -9 -217
-3 -5 2 -12 1 -18 0 -12 -2 -286 -2 -300 0 -5 2 -14 1 -20 0 -16 -3 -277 -2
-280 2 -2 2 -38 1 -80 -2 -42 -3 -78 -2 -80 1 -2 3 -27 3 -54 -1 -30 -4 -55
-2 -61 4 -6 6 -10 6 -10 0 0 -7 -178 -11 -215 -4 -5 2 -14 1 -20 0 -25 -5
-224 -2 -234 4 -6 4 -11 4 -11 -1 0 -7 -188 -9 -195 -1 -2 2 -38 1 -80 -2 -42
-3 -79 -2 -82 3 -2 4 -9 5 -14 1 -14 -8 -153 -9 -166 -1 -6 4 -13 4 -16 1z
m2579 -191 c-10 -10 -19 5 -10 18 6 11 8 11 12 0 2 -7 1 -15 -2 -18z m37 -48
c-7 -21 -12 -19 -10 4 0 11 5 18 9 15 4 -3 5 -11 1 -19z m-127 -47 c4 -6 3 -8
-4 -4 -7 4 -10 -1 -9 -14 1 -10 7 -22 14 -24 16 -6 17 -26 2 -26 -5 0 -8 4 -5
9 3 5 0 11 -8 14 -14 6 -16 57 -2 57 3 0 8 -5 12 -12z m168 -31 c3 3 6 2 6 -3
0 -14 -58 -46 -64 -35 -3 5 1 14 9 21 8 7 12 17 9 22 -4 6 2 6 13 -1 11 -6 23
-7 27 -4z m-196 -72 c0 -14 -4 -25 -7 -25 -4 0 -7 11 -7 25 0 14 3 25 7 25 3
0 7 -11 7 -25z m45 -2 c-7 -2 -19 -2 -25 0 -7 3 -2 5 12 5 14 0 19 -2 13 -5z
m94 0 c-4 -3 3 -18 15 -31 22 -24 22 -24 2 -14 -12 6 -24 9 -26 6 -3 -2 -4 6
-3 18 3 27 3 28 12 28 3 0 3 -3 0 -7z m-174 -40 c-3 -7 -8 -13 -12 -13 -4 0
-8 6 -8 13 0 8 6 14 13 14 7 0 10 -6 7 -14z m73 6 c4 -7 1 -10 -7 -7 -8 3 -23
1 -34 -4 -20 -9 -20 -9 -1 6 23 19 32 20 42 5z m-16 -29 c0 -17 -27 -23 -47
-11 -15 9 -13 10 11 5 21 -5 27 -4 22 5 -4 6 -2 11 3 11 6 0 11 -5 11 -10z
m-126 -32 c-5 -8 -1 -9 12 -4 14 5 16 4 7 -5 -13 -13 -37 -3 -28 12 4 5 8 9
11 9 3 0 2 -5 -2 -12z m181 -35 c-11 -7 -14 -13 -8 -13 6 0 13 -7 16 -14 9
-22 -16 -10 -31 15 -8 12 -9 18 -3 14 6 -3 14 1 17 9 3 9 11 13 17 9 6 -4 3
-11 -8 -20z m-127 4 c14 4 14 3 2 -5 -16 -12 -30 -7 -29 11 0 9 2 9 5 0 3 -7
13 -9 22 -6z m-28 -22 c14 -19 14 -19 -2 -6 -10 7 -18 18 -18 24 0 6 1 8 3 6
1 -2 9 -13 17 -24z m-40 -10 c0 -2 -9 -3 -19 -2 -11 0 -18 5 -15 9 4 6 34 0
34 -7z m15 -15 c-3 -5 -12 -10 -18 -10 -7 0 -6 4 3 10 19 12 23 12 15 0z m-37
-25 c-3 -3 -9 2 -12 12 -6 14 -5 15 5 6 7 -7 10 -15 7 -18z m79 1 c-2 -6 -13
-12 -25 -14 -12 -2 -20 -8 -17 -13 4 -5 -1 -12 -9 -15 -9 -3 -13 -10 -10 -15
3 -5 -3 -6 -12 -2 -11 4 -13 8 -6 11 7 2 10 8 7 13 -4 5 1 6 10 3 10 -4 15 -2
13 7 -2 8 7 15 20 17 12 2 20 8 16 13 -3 5 -10 6 -16 3 -7 -4 -8 -2 -4 4 8 14
38 4 33 -12z m-95 -23 c-6 -2 -9 -10 -5 -16 3 -7 3 -9 -2 -5 -4 4 -14 3 -22
-3 -18 -16 -16 -4 3 15 8 9 21 16 27 15 8 0 8 -2 -1 -6z m-36 -55 c4 -7 4 -10
-1 -6 -4 4 -14 0 -21 -10 -12 -15 -12 -15 -7 6 6 24 18 29 29 10z m-2 -54 c3
-8 2 -13 -3 -9 -5 3 -11 0 -13 -7 -3 -7 -7 -5 -11 6 -4 10 -3 15 3 11 6 -3 10
-1 10 4 0 16 7 13 14 -5z m-44 2 c0 -2 -7 -7 -16 -10 -8 -3 -12 -2 -9 4 6 10
25 14 25 6z m-2 -51 c-3 -3 -9 2 -12 12 -6 14 -5 15 5 6 7 -7 10 -15 7 -18z
m-26 -7 c-15 -15 -16 -31 0 -22 7 5 8 3 3 -5 -5 -9 -10 -10 -18 -2 -10 10 6
41 21 41 3 0 1 -5 -6 -12z m38 -32 c0 -2 -7 -7 -16 -10 -8 -3 -12 -2 -9 4 6
10 25 14 25 6z m-62 -51 c-3 -3 -9 2 -12 12 -6 14 -5 15 5 6 7 -7 10 -15 7
-18z m-34 -40 c-5 -19 -3 -25 7 -23 8 2 15 -7 17 -19 2 -13 -1 -23 -6 -23 -6
0 -8 9 -5 20 4 15 1 18 -15 15 -18 -3 -20 -1 -12 20 5 12 6 26 3 29 -4 3 -1 6
6 6 7 0 9 -9 5 -25z m-20 -54 c-2 -3 -12 3 -22 13 -16 17 -16 18 5 5 12 -7 20
-15 17 -18z m-4 -36 c0 -2 -6 -5 -13 -8 -8 -3 -14 1 -14 8 0 7 6 11 14 8 7 -3
13 -6 13 -8z m-35 -34 c-9 -8 -36 -10 -30 -2 2 4 11 8 20 8 8 0 13 -3 10 -6z
m35 -23 c0 -4 -7 -8 -15 -8 -8 0 -15 4 -15 8 0 5 7 9 15 9 8 0 15 -4 15 -9z
m-2765 -8 c3 -5 1 -10 -4 -10 -6 0 -11 5 -11 10 0 6 2 10 4 10 3 0 8 -4 11
-10z m2692 -4 c0 -8 -6 -12 -15 -9 -11 5 -11 7 0 14 7 5 13 9 14 9 0 0 1 -6 1
-14z m37 -2 c3 -8 2 -12 -4 -9 -6 3 -10 1 -10 -6 0 -7 -2 -10 -5 -7 -5 5 4 38
10 38 2 0 6 -7 9 -16z m-57 -56 c2 -18 0 -20 -7 -8 -12 18 -13 30 -2 30 4 0 9
-10 9 -22z m-2202 3 c3 -5 2 -12 -3 -15 -5 -3 -9 1 -9 9 0 17 3 19 12 6z
m-123 -23 c-2 -10 2 -20 11 -24 9 -3 13 -12 11 -19 -3 -8 2 -12 13 -12 10 1
17 -4 16 -10 -3 -15 13 -17 22 -4 3 5 -4 16 -16 24 -11 8 -16 18 -11 21 6 3
12 -1 16 -9 3 -8 12 -12 21 -9 20 8 19 -5 -2 -29 -14 -16 -15 -19 -3 -15 8 2
20 15 26 27 9 17 13 19 18 9 3 -7 4 -3 2 10 -2 12 0 20 5 16 14 -9 10 -34 -6
-41 -13 -5 -13 -8 5 -20 25 -18 17 -37 -10 -23 -13 7 -21 7 -25 0 -3 -5 -12
-10 -18 -10 -8 0 -8 3 1 9 11 6 10 10 -3 15 -19 7 -48 -11 -39 -25 10 -17 -13
-9 -31 11 -14 16 -21 18 -33 8 -11 -10 -17 -8 -29 7 -15 20 -15 20 -9 -2 4
-12 2 -24 -5 -29 -7 -4 -10 -2 -7 7 3 8 -2 23 -11 33 -9 11 -10 16 -3 12 6 -4
18 -4 25 1 16 10 58 12 51 2 -7 -12 17 -22 28 -11 9 9 1 33 -28 93 -2 3 3 6
10 6 8 0 11 -8 8 -19z m38 -4 c0 -17 -16 -19 -26 -2 -5 7 -3 8 6 3 10 -6 12
-4 7 9 -4 10 -3 15 3 11 6 -3 10 -13 10 -21z m30 22 c0 -3 -4 -8 -10 -11 -5
-3 -10 -1 -10 4 0 6 5 11 10 11 6 0 10 -2 10 -4z m76 -11 c-7 -20 4 -19 21 3
13 15 13 15 3 -5 -11 -23 -21 -28 -33 -17 -6 6 2 34 10 34 3 0 3 -7 -1 -15z
m84 10 c0 -7 -30 -13 -34 -7 -3 4 4 9 15 9 10 1 19 0 19 -2z m2058 -4 c-2 -19
4 -24 12 -11 8 12 9 10 7 -9 -2 -14 -9 -26 -16 -27 -7 -2 -8 -1 -1 3 7 3 4 13
-9 27 -16 17 -18 23 -7 23 8 0 15 -3 14 -6z m-2178 -36 c0 -5 -5 -3 -10 5 -5
8 -10 20 -10 25 0 6 5 3 10 -5 5 -8 10 -19 10 -25z m147 13 c-3 -8 -6 -5 -6 6
-1 11 2 17 5 13 3 -3 4 -12 1 -19z m-173 -3 c3 -8 1 -15 -4 -15 -6 0 -10 7
-10 15 0 8 2 15 4 15 2 0 6 -7 10 -15z m2268 7 c-6 -5 -19 -17 -28 -28 -8 -10
-12 -12 -8 -4 12 26 26 40 38 40 7 0 7 -3 -2 -8z m-2498 -29 c4 -10 0 -23 -10
-32 -15 -15 -16 -15 -11 1 3 10 2 20 -4 23 -10 7 -3 25 11 25 4 0 11 -8 14
-17z m2387 -10 c-12 -20 -14 -14 -5 12 4 9 9 14 11 11 3 -2 0 -13 -6 -23z m44
-12 c3 -5 2 -12 -3 -15 -5 -3 -9 1 -9 9 0 17 3 19 12 6z m-13 -39 c-7 -2 -9
-9 -5 -15 3 -7 2 -8 -2 -4 -16 14 -14 36 3 29 10 -4 12 -7 4 -10z m163 5 c-11
-5 -23 -15 -27 -21 -4 -6 -11 -7 -15 -2 -4 5 -2 11 5 13 6 3 10 8 8 11 -2 4 8
8 22 9 24 1 25 0 7 -10z m-191 -23 c3 -8 2 -12 -4 -9 -6 3 -10 10 -10 16 0 14
7 11 14 -7z m56 6 c0 -5 -5 -10 -11 -10 -5 0 -7 5 -4 10 3 6 8 10 11 10 2 0 4
-4 4 -10z m-79 -42 c-10 -11 -11 -9 -5 7 7 18 6 19 -12 5 -18 -14 -18 -14 -5
3 10 12 17 15 25 7 7 -7 6 -14 -3 -22z m-53 -8 c-7 -10 -14 -17 -17 -15 -4 4
18 35 25 35 2 0 -1 -9 -8 -20z m206 1 c3 -5 -7 -16 -22 -25 l-27 -17 23 20
c15 13 18 21 10 24 -9 4 -10 6 -1 6 6 1 14 -3 17 -8z m-167 -26 c0 -8 -4 -15
-9 -15 -10 0 -11 14 -1 23 9 10 10 9 10 -8z m-33 -30 c-4 -8 -13 -15 -22 -15
-13 0 -12 3 4 15 24 18 25 18 18 0z m153 -12 c-4 -3 -2 -12 4 -20 13 -15 -1
-37 -35 -55 -18 -10 -19 -9 -9 3 6 8 13 19 15 24 1 6 9 9 16 9 10 -2 10 1 1
12 -10 12 -5 34 8 34 4 0 3 -3 0 -7z m-200 -29 c0 -7 -6 -10 -14 -7 -7 3 -13
8 -13 12 0 4 6 8 13 8 8 0 14 -6 14 -13z m56 -10 c11 -11 -15 -53 -29 -47 -10
4 -12 0 -8 -13 5 -15 4 -16 -4 -4 -12 16 -7 30 13 30 17 0 27 27 12 34 -7 3
-8 5 -1 5 6 1 13 -2 17 -5z m-48 -24 c-3 -5 -12 -10 -18 -10 -7 0 -6 4 3 10
19 12 23 12 15 0z m-7 -55 c-3 -3 -9 2 -12 12 -6 14 -5 15 5 6 7 -7 10 -15 7
-18z m-45 -40 c-3 -9 -8 -14 -10 -11 -3 3 -2 9 2 15 9 16 15 13 8 -4z m23 -4
c-4 -5 -2 -11 3 -13 5 -1 3 -9 -5 -16 -12 -11 -13 -9 -10 10 6 30 5 28 12 28
3 0 3 -4 0 -9z m-43 -42 c-8 -8 -13 -7 -18 2 -5 8 -4 10 3 5 7 -4 12 -2 12 5
0 7 3 9 7 6 4 -4 2 -12 -4 -18z m-29 -21 c-3 -4 -9 -8 -15 -8 -5 0 -9 4 -9 8
0 5 7 9 15 9 8 0 12 -4 9 -9z m-37 -50 c-3 -8 -6 -5 -6 6 -1 11 2 17 5 13 3
-3 4 -12 1 -19z m61 5 c-3 -19 -28 -31 -28 -13 0 6 5 8 12 4 8 -5 9 -2 5 9 -3
10 -2 17 4 17 6 0 9 -8 7 -17z m52 -18 c5 3 12 0 16 -6 4 -8 3 -9 -4 -5 -7 4
-12 2 -12 -3 0 -6 6 -11 13 -11 6 -1 3 -6 -8 -13 -11 -7 -21 -20 -23 -31 -2
-11 1 -15 7 -11 6 3 11 13 11 21 0 8 5 14 10 14 15 0 12 -7 -12 -40 -11 -16
-26 -27 -32 -24 -6 3 -3 -1 6 -9 16 -13 15 -16 -11 -41 -18 -18 -31 -24 -35
-17 -4 6 -1 11 7 11 19 0 29 24 15 38 -6 6 -3 15 12 25 17 12 18 15 5 20 -8 4
-15 10 -14 14 3 20 -2 27 -11 13 -8 -13 -11 -12 -24 5 -8 11 -12 22 -9 25 3 3
8 -1 10 -7 3 -7 9 -13 15 -13 6 0 7 7 4 16 -3 8 -2 12 4 9 6 -3 10 -1 10 4 0
6 8 11 18 12 10 0 12 3 4 6 -6 2 -9 9 -6 15 4 7 10 4 16 -6 5 -9 13 -14 18
-11z m-140 -16 c0 -3 -9 -9 -19 -12 -13 -3 -18 0 -15 7 5 13 34 18 34 5z m34
-38 c-4 -3 -9 0 -11 7 -3 6 -10 9 -15 6 -7 -4 -8 -2 -4 5 6 9 11 9 22 0 8 -6
12 -15 8 -18z m-40 -27 c3 -8 2 -12 -4 -9 -6 3 -10 10 -10 16 0 14 7 11 14 -7z
m56 6 c0 -5 -2 -10 -4 -10 -3 0 -8 5 -11 10 -3 6 -1 10 4 10 6 0 11 -4 11 -10z
m-89 -23 c-10 -9 -11 -8 -5 6 3 10 9 15 12 12 3 -3 0 -11 -7 -18z m-42 -14
c-3 -20 2 -26 11 -13 8 13 10 12 10 -2 0 -10 -4 -18 -9 -18 -13 0 -32 26 -24
33 8 9 13 9 12 0z m81 -3 c-8 -5 -18 -6 -22 -4 -4 3 -8 0 -8 -7 0 -7 -3 -10
-6 -6 -10 10 4 23 28 24 17 2 19 0 8 -7z m-30 -44 c-10 -13 -40 -12 -40 1 0 3
7 3 15 -1 8 -3 15 -1 15 4 0 6 5 10 11 10 8 0 8 -4 -1 -14z m-59 -29 c-10 -9
-11 -8 -5 6 3 10 9 15 12 12 3 -3 0 -11 -7 -18z m41 -4 c-12 -2 -20 -8 -18
-12 3 -4 0 -13 -5 -21 -7 -11 -8 -8 -5 10 3 14 5 26 5 28 1 1 11 1 24 1 l22
-2 -23 -4z m-65 -25 c-3 -8 -6 -5 -6 6 -1 11 2 17 5 13 3 -3 4 -12 1 -19z
m153 2 c0 -4 -8 -14 -17 -21 -10 -8 -14 -9 -10 -2 4 6 3 14 -3 18 -6 4 -8 10
-5 15 6 10 35 2 35 -10z m-170 -4 c0 -2 -7 -7 -16 -10 -8 -3 -12 -2 -9 4 6 10
25 14 25 6z m-28 -44 c-4 -11 -1 -13 9 -7 8 4 11 4 6 0 -4 -5 -16 -9 -27 -10
-14 -1 -17 2 -10 10 5 7 8 14 5 17 -3 2 1 5 9 5 8 0 12 -6 8 -15z m198 -12 c0
-5 -2 -10 -4 -10 -3 0 -8 5 -11 10 -3 6 -1 10 4 10 6 0 11 -4 11 -10z m-33
-15 c0 -8 -4 -12 -9 -9 -5 3 -6 10 -3 15 9 13 12 11 12 -6z m-192 -13 c-3 -3
-11 0 -18 7 -9 10 -8 11 6 5 10 -3 15 -9 12 -12z m41 -14 c4 -7 3 -8 -4 -4 -7
4 -12 2 -12 -5 0 -7 -3 -10 -6 -6 -6 5 3 27 11 27 2 0 7 -5 11 -12z m125 -35
c-12 -20 -14 -14 -5 12 4 9 9 14 11 11 3 -2 0 -13 -6 -23z m-181 -3 c0 -5 -2
-10 -4 -10 -3 0 -8 5 -11 10 -3 6 -1 10 4 10 6 0 11 -4 11 -10z m11 -43 c-8
-8 -14 -7 -23 2 -11 10 -9 11 6 5 15 -6 17 -4 11 6 -6 9 -4 11 4 5 9 -5 10
-10 2 -18z m149 4 c0 -5 -7 -12 -16 -15 -14 -5 -15 -4 -4 9 14 17 20 19 20 6z
m-209 -34 c-10 -9 -11 -8 -5 6 3 10 9 15 12 12 3 -3 0 -11 -7 -18z m189 -12
c5 3 10 1 10 -5 0 -18 -20 -50 -31 -50 -6 0 -6 7 1 20 8 15 8 20 -1 18 -6 -2
-13 5 -14 15 -3 14 -1 16 10 7 8 -7 19 -9 25 -5z m-126 -65 c-3 -2 -9 2 -14
10 -8 13 -10 13 -10 1 0 -8 -2 -12 -5 -9 -3 3 -3 13 1 22 6 15 7 15 19 -1 8
-10 11 -20 9 -23z m-117 8 c0 -13 -1 -17 -4 -10 -3 6 -10 9 -16 5 -7 -4 -6 1
2 10 17 21 17 21 18 -5z m66 -28 c-3 -11 -9 -20 -15 -20 -5 0 -4 9 2 20 6 11
12 20 14 20 2 0 2 -9 -1 -20z m-68 -2 c5 4 5 1 1 -6 -6 -10 -11 -10 -22 -1 -8
6 -14 14 -14 16 0 3 6 0 13 -6 8 -6 18 -7 22 -3z m-41 -14 c3 -8 2 -12 -4 -9
-6 3 -10 10 -10 16 0 14 7 11 14 -7z m983 -559 c0 -8 -4 -12 -9 -9 -5 3 -6 10
-3 15 9 13 12 11 12 -6z m-57 -140 c0 -3 -9 0 -20 7 -11 7 -20 18 -20 25 0 8
8 5 20 -7 11 -11 20 -22 20 -25z m94 15 c-6 -6 -10 -3 -10 10 0 13 4 16 10 10
7 -7 7 -13 0 -20z m-137 -32 c-3 -8 -6 -5 -6 6 -1 11 2 17 5 13 3 -3 4 -12 1
-19z m28 2 c3 -5 1 -10 -4 -10 -6 0 -11 5 -11 10 0 6 2 10 4 10 3 0 8 -4 11
-10z m-42 -35 c-3 -9 -8 -14 -10 -11 -3 3 -2 9 2 15 9 16 15 13 8 -4z m4 -71
c-3 -3 -12 -4 -19 -1 -8 3 -5 6 6 6 11 1 17 -2 13 -5z m-1 -41 c-2 -9 -9 -19
-17 -21 -11 -3 -11 -1 1 7 8 6 11 11 7 11 -5 0 -5 5 -2 10 9 15 14 12 11 -7z
m110 -18 c-9 -7 -13 -14 -11 -17 3 -3 -5 -13 -17 -24 -18 -15 -20 -16 -9 -1 7
9 10 17 7 17 -4 0 -4 6 1 13 8 12 9 18 12 38 1 8 6 7 17 -2 14 -12 14 -14 0
-24z m-156 11 c0 -3 -4 -8 -10 -11 -5 -3 -10 -1 -10 4 0 6 5 11 10 11 6 0 10
-2 10 -4z m0 -36 c8 -5 11 -10 5 -10 -5 0 -17 5 -25 10 -8 5 -10 10 -5 10 6 0
17 -5 25 -10z m-10 -50 c8 -5 11 -10 5 -10 -5 0 -17 5 -25 10 -8 5 -10 10 -5
10 6 0 17 -5 25 -10z m-75 -30 c0 -16 -3 -30 -8 -30 -6 0 -5 37 2 58 4 10 7
-3 6 -28z m182 13 c-4 -3 -2 -12 5 -20 8 -11 6 -18 -10 -34 l-22 -20 4 23 c3
13 5 24 7 26 1 1 3 7 4 12 1 6 3 12 4 15 0 3 4 5 8 5 3 0 3 -3 0 -7z m-263
-73 c-6 -6 -10 -3 -10 10 0 13 4 16 10 10 7 -7 7 -13 0 -20z m101 12 c-7 -8
-55 -11 -59 -4 -2 4 11 7 30 8 19 0 32 -1 29 -4z m-128 -18 c-3 -3 -12 -4 -19
-1 -8 3 -5 6 6 6 11 1 17 -2 13 -5z m73 -14 c0 -5 -4 -10 -10 -10 -5 0 -10 5
-10 10 0 6 5 10 10 10 6 0 10 -4 10 -10z m-2586 -21 c22 3 27 -1 22 -15 -5
-13 -3 -14 7 -6 7 6 18 7 27 2 12 -7 12 -11 -1 -26 -13 -16 -12 -16 8 -4 12 8
20 17 18 20 -5 9 33 6 41 -3 12 -12 26 -8 18 5 -4 7 -3 8 4 4 6 -4 9 -13 5
-22 -4 -11 -9 -12 -19 -3 -10 8 -14 8 -14 1 0 -13 40 -37 40 -25 0 4 4 15 9
22 8 12 13 11 31 -10 16 -18 20 -19 16 -6 -3 11 -2 16 4 12 6 -3 10 -1 10 4 0
6 5 11 10 11 6 0 3 -11 -5 -24 -9 -13 -12 -27 -7 -30 5 -3 14 6 20 19 7 14 16
25 22 25 6 0 8 5 4 12 -5 7 -3 8 6 3 10 -6 9 -11 -5 -21 -25 -18 -12 -29 14
-12 17 10 23 10 33 0 10 -10 10 -15 -2 -22 -8 -5 -13 -10 -10 -11 3 0 13 -2
23 -4 9 -2 17 1 17 6 0 5 5 9 10 9 5 0 9 -3 9 -7 -3 -19 2 -36 8 -29 16 15 13
46 -5 46 -14 0 -15 2 -2 9 10 7 18 4 27 -8 17 -25 55 -21 69 7 8 16 13 19 16
11 3 -8 -5 -21 -16 -31 -12 -10 -16 -17 -8 -18 6 0 21 9 32 20 11 11 20 16 20
12 0 -4 -5 -13 -11 -19 -7 -7 -7 -13 -1 -17 6 -3 13 3 17 14 4 11 11 17 17 14
7 -5 9 -1 5 9 -3 9 -2 19 2 21 5 3 8 -4 7 -15 0 -11 -7 -23 -14 -28 -10 -6
-10 -10 2 -21 9 -7 13 -17 9 -23 -3 -6 -1 -7 6 -3 6 4 9 15 7 24 -7 22 9 49
18 33 4 -6 2 -11 -3 -11 -23 0 -10 -15 14 -16 20 -2 23 1 15 11 -8 9 -7 14 4
18 11 4 13 1 9 -10 -4 -11 -2 -14 5 -9 7 4 12 2 12 -3 0 -6 -5 -11 -12 -11
-16 0 -1 -13 18 -16 10 -2 13 3 9 17 -4 11 -2 19 5 19 6 0 8 -4 5 -10 -3 -5
-1 -10 4 -10 6 0 11 5 11 12 0 6 3 8 7 5 3 -4 17 8 30 25 26 36 32 30 7 -7 -9
-14 -12 -25 -7 -25 10 0 38 31 46 51 4 10 6 10 6 -3 1 -9 -6 -23 -13 -31 -13
-13 -12 -18 11 -38 25 -23 25 -23 14 -2 -15 29 -4 58 15 42 11 -9 18 -8 29 1
15 12 20 4 16 -22 -1 -11 11 -10 29 2 9 6 10 10 3 10 -7 0 -17 9 -23 20 -7 14
-7 20 0 20 5 0 10 -7 10 -16 0 -8 4 -13 9 -10 5 3 11 -1 15 -9 3 -8 13 -15 23
-15 15 0 16 2 3 10 -10 6 -1 8 28 5 31 -3 44 0 52 13 5 9 10 13 10 9 0 -4 -7
-19 -16 -33 -9 -13 -14 -27 -11 -30 3 -4 14 8 25 25 10 17 22 28 27 23 4 -4 5
2 1 13 -6 17 -5 18 6 7 11 -11 10 -16 -6 -28 -11 -7 -16 -17 -12 -21 4 -5 15
1 25 12 9 11 23 21 31 23 8 2 24 13 34 25 14 16 18 17 13 5 -7 -19 8 -25 16
-8 3 6 4 5 3 -2 -2 -7 -9 -13 -17 -14 -17 0 -76 -31 -83 -43 -3 -5 2 -15 11
-22 15 -12 16 -12 10 3 -4 12 1 21 15 29 15 8 18 8 14 0 -4 -6 -2 -11 3 -11 6
0 11 7 11 15 0 8 5 15 11 15 5 0 8 -4 4 -9 -3 -5 -1 -12 4 -15 5 -4 13 4 16
15 6 19 9 20 16 6 6 -10 16 -14 26 -10 11 4 14 3 9 -5 -4 -7 -2 -12 3 -12 6 0
11 6 11 13 0 8 4 7 10 -3 7 -11 10 -12 10 -2 0 8 14 27 31 43 17 16 29 22 25
14 -6 -17 9 -21 17 -5 3 6 4 5 3 -2 -2 -7 -9 -13 -17 -14 -27 -2 -49 -16 -49
-33 0 -13 2 -13 9 -2 7 11 10 9 16 -8 3 -12 11 -18 17 -15 6 4 6 10 -1 17 -14
14 -14 27 -1 27 5 0 9 -5 7 -11 -1 -6 4 -14 11 -16 7 -3 12 -1 11 4 -1 4 -1
15 0 23 1 13 2 13 11 0 5 -9 5 -19 -1 -26 -6 -8 -7 -14 0 -18 5 -4 12 3 16 14
3 11 11 20 16 20 6 0 8 -3 5 -8 -2 -4 11 -17 30 -30 19 -12 34 -20 34 -18 0
14 -13 35 -20 31 -4 -3 -14 3 -21 13 -7 9 -10 14 -5 10 4 -4 24 9 44 29 19 19
32 28 29 19 -7 -17 8 -23 16 -6 3 6 4 5 3 -2 -2 -7 -9 -13 -17 -14 -23 -2 -49
-15 -49 -26 0 -5 5 -6 12 -2 7 4 8 3 4 -4 -4 -7 -2 -12 3 -12 6 0 11 7 11 15
0 8 5 15 11 15 5 0 8 -4 4 -9 -3 -5 -1 -12 4 -15 5 -4 13 4 16 15 6 19 9 20
16 6 6 -10 16 -14 26 -10 11 4 14 3 9 -5 -4 -7 -2 -12 3 -12 6 0 11 6 11 13 0
8 4 7 10 -3 7 -11 10 -12 10 -2 0 8 14 27 31 43 17 16 29 22 25 14 -6 -17 9
-21 17 -5 3 6 4 5 3 -2 -2 -7 -9 -13 -17 -13 -8 -1 -23 -6 -33 -12 -23 -13
-15 -42 12 -50 27 -7 47 -42 31 -57 -9 -8 -11 -7 -6 6 8 22 -11 36 -48 34 -40
-2 -62 -15 -44 -27 7 -4 11 -11 8 -14 -4 -3 -20 7 -37 23 -21 20 -28 32 -21
39 7 7 2 11 -15 11 -17 -1 -23 -4 -18 -12 10 -16 10 -66 0 -66 -5 0 -23 14
-39 32 -26 26 -30 27 -25 10 6 -17 4 -21 -8 -16 -10 4 -18 0 -22 -10 -7 -17
-34 -22 -34 -6 0 6 6 10 14 10 8 0 18 5 22 11 4 8 -1 9 -17 4 -17 -4 -20 -3
-10 3 9 7 10 12 2 16 -6 4 -11 2 -11 -5 0 -8 -4 -8 -15 1 -8 7 -15 10 -15 6 0
-3 0 -9 0 -13 0 -5 5 -9 10 -9 23 -3 24 -5 10 -14 -11 -7 -19 -5 -27 7 -7 9
-13 13 -13 9 0 -4 -6 -4 -12 1 -18 11 -31 11 -46 -1 -10 -7 -10 -11 0 -17 7
-4 10 -11 7 -14 -4 -3 -20 7 -37 23 -21 20 -28 32 -21 39 7 7 2 11 -15 11 -17
0 -23 -4 -18 -12 4 -6 7 -23 8 -38 0 -30 -20 -38 -30 -12 -3 8 -10 12 -16 9
-5 -3 -10 -2 -10 3 0 18 -55 7 -68 -13 -11 -17 -13 -17 -8 -2 8 27 -3 40 -20
26 -11 -9 -18 -9 -26 -1 -15 15 -42 3 -28 -13 20 -24 -10 -29 -34 -6 -25 24
-37 27 -33 9 1 -7 -2 -12 -8 -13 -5 0 -16 -4 -22 -8 -12 -7 -15 -2 -12 19 0 4
-5 10 -12 15 -16 10 -41 -9 -32 -25 4 -8 2 -7 -7 1 -14 13 -43 6 -34 -8 3 -5
1 -9 -5 -9 -5 0 -11 6 -14 13 -3 9 -7 9 -19 0 -8 -7 -18 -10 -22 -6 -3 4 -20
7 -37 8 -17 1 -34 6 -37 11 -9 12 -62 14 -62 3 0 -5 5 -9 10 -9 6 0 10 -4 10
-10 0 -20 -17 -10 -29 17 l-13 28 -23 -27 c-23 -26 -24 -27 -30 -8 -6 20 -7
20 -35 0 l-29 -20 -6 20 c-4 11 -10 18 -15 15 -5 -3 -11 -1 -15 5 -10 16 -43
-11 -37 -32 3 -14 0 -17 -12 -12 -9 3 -14 10 -11 14 3 5 -2 16 -11 25 -15 15
-15 18 2 38 12 14 13 17 3 9 -9 -6 -20 -8 -24 -4 -5 4 -5 1 0 -7 5 -9 4 -12
-3 -7 -8 4 -10 2 -6 -7 6 -18 -12 -32 -21 -17 -3 5 -1 10 6 10 7 0 9 3 6 6 -4
4 -13 1 -21 -5 -8 -7 -20 -10 -25 -7 -5 4 -12 2 -16 -4 -11 -18 -27 -10 -22
11 8 29 -3 56 -14 37 -7 -10 -9 -11 -9 0 0 7 -5 10 -10 7 -6 -3 -13 1 -16 9
-3 9 -10 14 -14 11 -4 -3 -13 2 -20 11 -11 12 -15 12 -21 2 -7 -11 -9 -11 -9
0 0 7 -4 11 -9 8 -5 -3 -12 1 -15 9 -4 12 -2 13 13 5 14 -7 22 -6 31 5 10 12
7 13 -15 9 -23 -4 -26 -2 -21 13 5 15 4 15 -9 -2 -9 -11 -13 -25 -11 -32 6
-16 -10 -17 -19 -2 -4 5 1 19 10 29 11 12 13 20 6 25 -6 3 -11 12 -11 18 0 8
3 8 9 -1 4 -8 11 -13 15 -13z m2486 17 c0 -2 -7 -7 -16 -10 -8 -3 -12 -2 -9 4
6 10 25 14 25 6z m55 -14 c-3 -3 -11 0 -18 7 -9 10 -8 11 6 5 10 -3 15 -9 12
-12z m-15 -28 c0 -8 -4 -14 -10 -14 -5 0 -7 8 -3 18 5 14 3 15 -8 5 -7 -7 -17
-13 -23 -13 -5 0 -1 6 9 14 22 16 35 12 35 -10z m184 1 c-7 -16 -24 -21 -24
-6 0 8 7 13 27 20 1 1 0 -6 -3 -14z m-422 -12 c-11 -18 -42 -27 -42 -11 0 6 6
8 14 5 8 -3 17 1 20 9 3 8 8 14 11 14 3 0 2 -8 -3 -17z m103 7 c3 -5 2 -10 -4
-10 -5 0 -13 5 -16 10 -3 6 -2 10 4 10 5 0 13 -4 16 -10z m60 0 c3 -5 1 -10
-4 -10 -6 0 -11 5 -11 10 0 6 2 10 4 10 3 0 8 -4 11 -10z m-2091 -16 c3 -8 2
-12 -4 -9 -6 3 -10 10 -10 16 0 14 7 11 14 -7z m40 4 c-5 -8 -2 -9 9 -5 10 3
17 2 17 -3 0 -12 -27 -13 -34 -1 -3 4 -3 11 1 15 10 10 15 7 7 -6z m124 0 c-5
-14 -38 -20 -38 -6 0 6 7 8 15 4 8 -3 15 -1 15 4 0 6 3 10 6 10 3 0 4 -5 2
-12z m102 7 c0 -2 -10 -9 -22 -15 -22 -11 -22 -10 -4 4 21 17 26 19 26 11z
m54 -7 c-5 -8 -2 -9 9 -5 10 3 17 2 17 -3 0 -12 -27 -13 -34 -1 -3 4 -3 11 1
15 10 10 15 7 7 -6z m121 -9 c-8 -12 -35 -12 -35 1 0 5 7 6 17 3 12 -5 14 -3
8 7 -5 9 -4 11 4 6 6 -4 9 -12 6 -17z m80 -9 c-3 -4 0 -11 5 -13 7 -4 6 -5 0
-3 -7 1 -10 5 -8 8 2 4 -6 14 -17 23 -19 16 -19 16 3 5 12 -6 20 -15 17 -20z
m23 5 c-3 -3 -9 2 -12 12 -6 14 -5 15 5 6 7 -7 10 -15 7 -18z m100 13 c-5 -14
-38 -20 -38 -6 0 6 7 8 15 4 8 -3 15 -1 15 4 0 6 3 10 6 10 3 0 4 -5 2 -12z
m356 -10 c-3 -5 -15 -8 -25 -5 -12 3 -19 -2 -23 -17 -3 -17 -4 -16 -3 4 2 20
7 24 26 22 16 -3 21 0 16 9 -5 8 -4 10 4 5 6 -4 8 -12 5 -18z m444 10 c-5 -14
-38 -20 -38 -6 0 6 7 8 15 4 8 -3 15 -1 15 4 0 6 3 10 6 10 3 0 4 -5 2 -12z
m102 7 c0 -2 -10 -9 -22 -15 -22 -11 -22 -10 -4 4 21 17 26 19 26 11z m54 -7
c-5 -8 -2 -9 9 -5 10 3 17 2 17 -3 0 -12 -27 -13 -34 -1 -3 4 -3 11 1 15 10
10 15 7 7 -6z m391 -15 c-11 -7 -24 -13 -29 -13 -6 1 -1 6 12 13 12 7 19 17
15 22 -4 4 -2 5 6 0 12 -7 11 -10 -4 -22z m-2005 -18 c0 -5 -5 -3 -10 5 -5 8
-10 20 -10 25 0 6 5 3 10 -5 5 -8 10 -19 10 -25z m694 24 c-4 -8 1 -9 17 -5
20 6 21 5 6 -4 -19 -12 -41 -4 -32 11 4 5 8 9 11 9 3 0 2 -5 -2 -11z m159 -2
c-3 -5 -14 -7 -24 -4 -14 4 -19 0 -20 -16 0 -12 -3 -16 -6 -9 -9 22 3 37 30
37 14 0 23 -4 20 -8z m320 0 c-3 -5 -14 -7 -24 -4 -14 4 -19 0 -20 -16 0 -12
-3 -16 -6 -9 -9 22 3 37 30 37 14 0 23 -4 20 -8z m157 -3 c0 -2 -7 -4 -15 -4
-8 0 -15 4 -15 10 0 5 7 7 15 4 8 -4 15 -8 15 -10z m20 -9 c-7 -8 -16 -15 -21
-15 -5 0 -1 8 9 18 20 22 31 19 12 -3z m145 16 c-3 -5 4 -13 16 -16 11 -4 18
-9 16 -12 -9 -8 -48 18 -42 28 4 5 8 9 11 9 3 0 3 -4 -1 -9z m337 -13 c-7 -7
-12 -8 -12 -2 0 14 12 26 19 19 2 -3 -1 -11 -7 -17z m248 12 c0 -5 -4 -10 -10
-10 -5 0 -10 5 -10 10 0 6 5 10 10 10 6 0 10 -4 10 -10z m-1980 -15 c0 -8 -4
-15 -10 -15 -5 0 -7 7 -4 15 4 8 8 15 10 15 2 0 4 -7 4 -15z m480 0 c0 -8 -4
-15 -10 -15 -5 0 -7 7 -4 15 4 8 8 15 10 15 2 0 4 -7 4 -15z m34 0 c3 -8 1
-15 -4 -15 -6 0 -10 7 -10 15 0 8 2 15 4 15 2 0 6 -7 10 -15z m252 -6 c-14
-11 -32 -18 -39 -16 -7 4 -6 6 4 6 9 1 22 8 29 16 7 8 17 15 23 15 5 0 -2 -9
-17 -21z m159 1 c-16 -11 -34 -20 -40 -20 -12 0 46 38 60 39 6 1 -3 -8 -20
-19z m161 -1 c-14 -11 -32 -18 -39 -16 -7 4 -6 6 4 6 9 1 22 8 29 16 7 8 17
15 23 15 5 0 -2 -9 -17 -21z m194 6 c0 -8 -4 -15 -10 -15 -5 0 -7 7 -4 15 4 8
8 15 10 15 2 0 4 -7 4 -15z m34 0 c3 -8 1 -15 -4 -15 -6 0 -10 7 -10 15 0 8 2
15 4 15 2 0 6 -7 10 -15z m380 0 c3 -8 1 -15 -4 -15 -6 0 -10 7 -10 15 0 8 2
15 4 15 2 0 6 -7 10 -15z m66 0 c0 -8 -4 -15 -10 -15 -5 0 -7 7 -4 15 4 8 8
15 10 15 2 0 4 -7 4 -15z m34 0 c3 -8 1 -15 -4 -15 -6 0 -10 7 -10 15 0 8 2
15 4 15 2 0 6 -7 10 -15z m418 -2 c-5 -10 -7 -25 -5 -33 3 -9 -2 -7 -12 5 -14
18 -14 21 2 32 23 17 25 16 15 -4z m-2072 -3 c8 -5 11 -10 5 -10 -5 0 -17 5
-25 10 -8 5 -10 10 -5 10 6 0 17 -5 25 -10z m54 -5 c-4 -8 -8 -15 -10 -15 -2
0 -4 7 -4 15 0 8 4 15 10 15 5 0 7 -7 4 -15z m31 -7 c-9 -6 -19 -7 -22 -4 -4
3 -1 6 6 6 7 0 9 4 6 10 -4 6 1 7 11 3 15 -6 15 -7 -1 -15z m140 12 c-3 -5
-12 -10 -18 -10 -7 0 -6 4 3 10 19 12 23 12 15 0z m1109 -5 c-4 -8 -8 -15 -10
-15 -2 0 -4 7 -4 15 0 8 4 15 10 15 5 0 7 -7 4 -15z m31 -7 c-9 -6 -19 -7 -22
-4 -4 3 -1 6 6 6 7 0 9 4 6 10 -4 6 1 7 11 3 15 -6 15 -7 -1 -15z m-325 -7 c0
-5 -7 -11 -14 -14 -10 -4 -13 -1 -9 9 6 15 23 19 23 5z m974 -3 c-3 -4 -11 -5
-19 -1 -21 7 -19 12 4 10 11 0 18 -5 15 -9z"/>
<path d="M4359 3723 c-13 -16 -12 -17 4 -4 16 13 21 21 13 21 -2 0 -10 -8 -17
-17z"/>
<path d="M1462 2849 c-15 -24 -8 -39 10 -21 13 13 20 42 10 42 -4 0 -13 -9
-20 -21z"/>
<path d="M1391 2844 c6 -7 16 -11 21 -8 11 7 3 17 -18 20 -12 2 -13 -1 -3 -12z"/>
<path d="M1534 2838 c-4 -7 -4 -10 1 -6 4 4 16 3 26 -3 11 -5 19 -7 19 -5 0 3
-9 10 -19 16 -15 7 -22 7 -27 -2z"/>
<path d="M3515 2396 c-15 -11 -17 -17 -7 -28 6 -8 8 -19 4 -23 -4 -5 -1 -5 6
-1 7 4 10 11 7 16 -3 5 3 13 12 19 11 6 13 11 5 11 -7 0 -10 5 -7 10 8 14 2
13 -20 -4z"/>
<path d="M1280 750 c-13 -9 -13 -11 0 -20 8 -5 10 -10 5 -10 -6 0 -16 5 -22
11 -8 8 -13 8 -17 0 -4 -6 -5 -12 -2 -12 3 -1 11 -3 16 -4 6 -1 15 -3 21 -4 5
0 8 -5 4 -10 -3 -6 4 -8 15 -6 23 4 43 -24 34 -52 -3 -10 2 -7 10 7 14 22 21
21 17 -3 -1 -5 3 -6 9 -2 6 3 7 11 4 17 -5 8 -1 9 11 5 9 -4 24 -2 31 4 8 6
14 8 14 4 0 -4 7 -2 15 5 8 6 19 9 25 5 6 -4 2 -13 -11 -24 -18 -14 -19 -19
-6 -29 11 -10 19 -8 41 9 15 12 25 17 24 12 -2 -4 0 -8 3 -8 4 0 16 -8 26 -17
17 -16 22 -16 39 -4 12 9 23 11 30 5 8 -6 17 -4 28 6 9 10 21 13 28 8 19 -11
38 -12 38 -2 0 5 0 12 0 17 0 4 -6 8 -13 8 -6 1 -14 3 -17 4 -3 1 -16 4 -30 5
-14 2 -37 6 -53 9 -15 4 -27 3 -26 -1 4 -22 -3 -32 -21 -30 -12 1 -18 7 -16
13 5 13 -23 12 -44 -1 -6 -3 -7 1 -4 9 4 10 1 16 -7 16 -8 0 -5 6 7 15 17 13
17 14 2 15 -9 0 -20 -5 -23 -11 -4 -6 -13 -8 -20 -5 -7 2 -16 -1 -18 -8 -3 -7
-16 -12 -29 -11 -12 1 -27 -3 -31 -9 -6 -7 -7 -4 -3 7 4 12 2 16 -6 11 -7 -4
-8 -3 -4 5 6 9 11 9 22 0 17 -14 19 2 2 19 -17 17 -25 15 -31 -9 -5 -20 -6
-20 -32 2 -14 13 -23 29 -21 36 6 15 5 16 -14 3z m320 -96 c0 5 8 2 17 -5 14
-12 16 -12 11 1 -4 11 0 16 13 16 17 0 17 -2 2 -18 -11 -12 -20 -15 -26 -9 -6
6 -18 4 -32 -5 -20 -13 -24 -13 -36 3 -13 16 -12 17 3 5 14 -11 17 -10 23 9 6
17 9 19 16 8 5 -8 9 -10 9 -5z m-116 -11 c-9 -7 -21 -10 -26 -7 -14 9 -1 20
22 20 20 0 20 -1 4 -13z m226 12 c0 -7 -30 -13 -34 -7 -3 4 4 9 15 9 10 1 19
0 19 -2z"/>
<path d="M1950 680 c0 -5 5 -10 11 -10 5 0 8 -4 5 -8 -11 -18 11 -33 34 -24
19 7 28 4 43 -12 10 -12 16 -16 13 -10 -7 15 61 47 70 32 4 -7 3 -8 -4 -4 -7
4 -12 2 -12 -4 0 -7 6 -10 12 -8 7 3 12 15 12 29 0 18 -5 23 -20 21 -10 -2
-32 -5 -47 -7 -15 -2 -34 -9 -42 -15 -15 -12 -20 -4 -16 23 2 12 -17 8 -23 -5
-5 -10 -7 -10 -12 0 -7 14 -24 16 -24 2z m150 -15 c0 -2 -10 -9 -22 -15 -22
-11 -22 -10 -4 4 21 17 26 19 26 11z m-100 -11 c0 -8 -19 -13 -24 -6 -3 5 1 9
9 9 8 0 15 -2 15 -3z m48 -19 c-3 -3 -9 2 -12 12 -6 14 -5 15 5 6 7 -7 10 -15
7 -18z"/>
<path d="M2317 680 c10 -11 10 -17 0 -29 -8 -10 -8 -12 -1 -8 7 4 15 0 18 -9
6 -15 8 -15 24 -2 18 16 30 17 49 5 16 -10 24 5 12 23 -7 13 -9 13 -9 0 0 -9
-3 -11 -8 -5 -10 14 -32 17 -32 4 0 -6 -15 0 -32 12 -18 12 -27 16 -21 9z m38
-29 c3 -5 2 -12 -3 -15 -5 -3 -9 1 -9 9 0 17 3 19 12 6z"/>
<path d="M2637 680 c10 -11 10 -17 0 -29 -8 -10 -8 -12 -1 -8 7 4 15 0 18 -9
6 -15 8 -15 24 -2 9 9 27 14 40 13 15 -1 19 2 12 9 -13 13 -40 17 -40 4 0 -5
-15 1 -32 13 -18 12 -27 16 -21 9z m38 -29 c3 -5 2 -12 -3 -15 -5 -3 -9 1 -9
9 0 17 3 19 12 6z"/>
<path d="M1846 659 c-13 -10 -26 -15 -30 -12 -3 3 -6 0 -6 -8 -1 -10 -4 -9
-11 4 -6 9 -14 15 -20 12 -5 -4 -9 -1 -9 4 0 17 -14 13 -28 -9 -7 -11 -9 -20
-5 -19 19 3 34 -2 29 -9 -6 -10 30 -9 40 1 11 10 26 8 19 -2 -3 -5 0 -13 6
-17 7 -4 9 -3 6 3 -4 6 0 13 8 17 8 3 17 0 21 -6 5 -7 16 -1 31 18 13 16 21
21 17 12 -3 -10 -1 -18 4 -18 19 0 22 17 6 31 -23 19 -52 18 -78 -2z m39 -21
c5 4 5 1 0 -7 -7 -12 -10 -11 -22 4 -7 11 -13 13 -13 7 0 -7 -5 -12 -11 -12
-8 0 -7 5 2 16 12 14 14 14 24 0 7 -9 16 -12 20 -8z m-90 -5 c4 -11 0 -11 -18
-2 -31 16 -32 18 -8 16 11 -1 23 -7 26 -14z"/>
<path d="M2161 656 c-9 -11 -7 -15 9 -19 11 -3 20 0 20 5 0 6 8 4 18 -3 15
-13 16 -12 4 3 -8 10 -20 14 -29 11 -11 -4 -14 -2 -9 5 10 16 1 15 -13 -2z"/>
<path d="M2234 651 c0 -11 4 -17 8 -15 5 3 11 -2 14 -10 9 -24 21 -19 20 7 -1
12 -7 21 -14 20 -7 -2 -12 2 -12 7 0 6 -4 10 -8 10 -4 0 -8 -9 -8 -19z"/>
<path d="M2497 656 c-4 -9 -3 -15 2 -11 5 3 11 0 13 -7 3 -7 7 -5 11 6 4 9 3
15 -2 11 -5 -3 -11 0 -13 7 -3 7 -7 5 -11 -6z"/>
<path d="M2584 634 c-1 -13 1 -24 5 -24 9 0 12 38 3 44 -4 2 -8 -7 -8 -20z"/>
<path d="M1980 620 c-12 -7 -10 -9 7 -7 12 0 19 5 17 9 -6 10 -6 10 -24 -2z"/>
<path d="M4473 3965 c0 -8 4 -12 9 -9 5 3 6 10 3 15 -9 13 -12 11 -12 -6z"/>
<path d="M4330 3956 c0 -8 4 -17 9 -20 5 -4 7 3 4 14 -6 23 -13 26 -13 6z"/>
<path d="M4355 3920 c-13 -6 -15 -9 -5 -9 8 0 22 4 30 9 18 12 2 12 -25 0z"/>
<path d="M4490 3900 c0 -5 5 -10 11 -10 5 0 7 5 4 10 -3 6 -8 10 -11 10 -2 0
-4 -4 -4 -10z"/>
<path d="M4265 3851 c-24 -49 -20 -76 9 -52 10 8 18 6 31 -9 10 -11 14 -20 9
-20 -5 0 -2 -4 6 -10 19 -12 33 10 17 29 -7 8 -11 16 -9 18 6 9 1 24 -7 19
-15 -10 -40 38 -29 57 5 9 7 17 4 17 -3 0 -17 -22 -31 -49z m33 -21 c7 -11 9
-20 4 -20 -4 0 -13 9 -20 20 -7 11 -9 20 -4 20 4 0 13 -9 20 -20z m29 -27 c-4
-3 -1 -13 6 -22 11 -14 10 -14 -5 -2 -16 12 -16 31 -1 31 4 0 3 -3 0 -7z"/>
<path d="M4451 3884 c0 -11 3 -14 6 -6 3 7 2 16 -1 19 -3 4 -6 -2 -5 -13z"/>
<path d="M4420 3846 c0 -2 7 -6 15 -10 8 -3 15 -1 15 4 0 6 -7 10 -15 10 -8 0
-15 -2 -15 -4z"/>
<path d="M4455 3819 c-6 -8 -4 -10 5 -4 10 6 12 4 6 -11 -6 -15 -5 -17 5 -6 9
9 10 15 2 23 -8 8 -13 7 -18 -2z"/>
<path d="M4432 3790 c7 -10 14 -18 15 -16 6 6 -9 36 -18 36 -5 0 -4 -9 3 -20z"/>
<path d="M4265 3750 c-3 -5 -1 -10 4 -10 6 0 11 5 11 10 0 6 -2 10 -4 10 -3 0
-8 -4 -11 -10z"/>
<path d="M4506 3718 c3 -5 10 -6 15 -3 13 9 11 12 -6 12 -8 0 -12 -4 -9 -9z"/>
<path d="M4430 3685 c0 -8 2 -15 4 -15 2 0 6 7 10 15 3 8 1 15 -4 15 -6 0 -10
-7 -10 -15z"/>
<path d="M4456 3673 c-6 -14 -5 -15 5 -6 7 7 10 15 7 18 -3 3 -9 -2 -12 -12z"/>
<path d="M4414 3662 c3 -5 0 -12 -6 -15 -7 -2 -10 -7 -7 -11 3 -4 12 0 18 8 9
11 9 16 0 22 -7 4 -9 3 -5 -4z"/>
<path d="M4454 3636 c1 -8 5 -18 8 -22 4 -3 5 1 4 10 -1 8 -5 18 -8 22 -4 3
-5 -1 -4 -10z"/>
<path d="M4334 3539 c-3 -6 -3 -13 0 -16 3 -4 6 -1 6 5 0 6 7 9 15 6 8 -4 15
-4 15 -1 0 11 -30 16 -36 6z"/>
<path d="M4220 3530 c-8 -5 -12 -12 -9 -15 4 -3 12 1 19 10 14 17 11 19 -10 5z"/>
<path d="M4160 3510 c0 -6 6 -13 14 -16 20 -8 15 -50 -7 -46 -9 2 -17 -2 -17
-8 0 -6 -4 -9 -9 -5 -15 9 -42 -36 -31 -50 5 -7 7 -15 3 -19 -4 -4 -8 -15 -8
-24 0 -9 -5 -17 -12 -17 -23 0 -37 -23 -24 -39 19 -23 -7 -31 -32 -9 -22 18
-22 18 -4 -3 17 -20 17 -22 1 -28 -16 -6 -16 -8 0 -25 15 -16 15 -19 -2 -34
-10 -10 -21 -14 -24 -11 -3 3 -5 -3 -4 -13 0 -10 -5 -17 -13 -15 -7 1 -20 -3
-29 -10 -9 -8 -13 -8 -9 -2 6 10 -12 24 -29 24 -13 0 23 -40 40 -44 17 -4 18
-8 8 -18 -7 -7 -20 -13 -30 -13 -10 0 -17 -8 -18 -22 -1 -13 -3 -26 -4 -30 -1
-5 -2 -11 -1 -15 1 -8 -15 -11 -22 -5 -9 6 -37 -28 -33 -40 3 -7 3 -20 -1 -29
-4 -12 -7 -13 -14 -3 -4 8 -11 10 -15 6 -4 -4 5 -16 19 -27 15 -12 24 -27 20
-35 -3 -9 1 -15 11 -15 9 0 16 5 16 11 0 5 -6 7 -12 3 -10 -5 -10 -4 -1 6 16
18 35 2 28 -23 -5 -20 -5 -20 6 -4 8 14 8 22 0 30 -14 14 -14 37 0 37 5 0 8
-4 5 -9 -3 -5 1 -14 9 -21 10 -9 15 -9 15 -1 0 6 -5 11 -10 11 -6 0 -5 8 2 19
7 11 17 17 23 13 5 -3 4 2 -4 11 -14 18 -2 24 15 7 7 -7 11 -6 11 4 0 10 -9
13 -30 10 -23 -3 -27 -1 -18 10 14 16 50 14 61 -5 7 -10 9 -8 7 8 0 12 -5 19
-9 17 -10 -6 -11 10 -1 19 3 4 12 2 18 -3 9 -7 17 -5 26 7 13 16 12 17 -3 4
-10 -7 -18 -12 -19 -10 -7 34 -6 45 6 62 13 18 13 18 24 0 6 -10 10 -13 11 -8
0 20 -17 36 -33 30 -10 -5 -15 -1 -13 9 3 20 16 33 16 16 0 -7 3 -10 7 -7 3 4
12 2 20 -5 7 -6 16 -8 20 -4 3 3 1 6 -6 6 -7 0 -10 4 -6 10 3 5 13 7 23 4 9
-3 6 1 -7 9 l-24 14 37 28 c23 18 35 34 31 43 -4 10 0 13 12 8 16 -5 16 -4 3
7 -18 14 -24 37 -10 37 5 0 13 -8 19 -17 5 -10 13 -14 17 -10 5 5 3 12 -5 16
-9 6 -4 17 22 45 19 20 30 36 23 35 -24 -3 -37 1 -31 11 4 6 10 8 14 5 5 -2
17 2 27 10 10 8 14 15 9 15 -6 0 -17 -6 -23 -12 -10 -10 -12 -8 -9 9 4 25 17
43 17 23 0 -10 3 -10 15 0 12 10 15 10 15 -3 0 -8 7 -18 16 -21 14 -5 15 -4 5
8 -15 18 -22 56 -10 56 5 0 9 5 9 11 0 5 -4 8 -9 5 -5 -3 -27 8 -50 24 -22 17
-41 25 -41 20z m52 -50 c-2 -7 3 -10 12 -7 9 4 13 0 12 -11 -2 -9 -10 -17 -19
-17 -9 0 -22 -6 -29 -13 -6 -6 -8 -12 -4 -12 5 0 1 -11 -8 -25 -15 -22 -15
-26 -1 -31 13 -5 12 -10 -6 -32 -11 -15 -28 -27 -37 -27 -13 0 -17 -9 -17 -36
-1 -29 -8 -43 -32 -63 -21 -17 -30 -33 -26 -43 5 -13 3 -13 -14 -4 -16 8 -24
7 -32 -3 -6 -7 -8 -15 -5 -19 3 -3 -1 -4 -10 -3 -18 2 -23 21 -6 21 5 0 23 16
39 35 28 33 28 36 13 54 -10 11 -12 17 -6 13 6 -4 19 2 29 13 10 11 23 17 29
13 6 -4 2 4 -9 17 -11 13 -14 20 -6 15 11 -6 13 -4 8 11 -7 18 -6 18 7 2 19
-25 22 -23 21 18 -1 22 4 38 12 41 11 4 11 8 1 20 -10 12 -8 18 12 33 14 10
27 17 31 14 3 -2 14 5 23 15 11 12 13 21 6 24 -6 3 -5 4 2 3 7 -2 12 -9 10
-16z m-199 -367 c4 -3 2 -12 -5 -20 -6 -7 -8 -16 -5 -20 8 -7 -11 -33 -24 -33
-5 0 -6 7 -3 15 4 8 11 12 17 8 6 -3 7 -1 3 6 -4 6 -12 9 -17 6 -5 -4 -9 -1
-9 5 0 6 -5 8 -11 4 -8 -4 -7 -9 2 -15 7 -4 10 -12 5 -16 -8 -8 -19 9 -16 23
1 4 -4 11 -12 16 -10 8 -9 9 4 5 9 -3 22 1 28 9 13 15 32 18 43 7z m-33 -90
c0 -3 -6 -3 -13 0 -7 3 -28 -9 -47 -25 -19 -16 -29 -26 -21 -22 10 5 12 3 6
-6 -5 -9 -4 -11 4 -6 6 4 9 12 6 17 -4 5 -1 9 4 9 6 0 11 -5 11 -11 0 -5 4 -7
10 -4 5 3 7 0 4 -9 -3 -8 -12 -12 -19 -10 -7 3 -19 -4 -25 -16 -9 -17 -14 -19
-26 -9 -13 10 -12 15 1 35 12 18 12 24 3 25 -10 0 -10 2 0 6 6 2 10 9 7 13 -3
5 6 7 19 4 19 -3 24 0 21 13 -4 29 5 34 31 17 13 -9 24 -19 24 -21z"/>
<path d="M4190 3435 c-7 -8 -15 -13 -19 -11 -3 2 -15 -2 -26 -10 -14 -10 -16
-17 -8 -25 12 -12 6 -42 -6 -35 -3 2 -6 -8 -6 -24 -1 -19 4 -27 15 -25 8 1 14
10 12 20 -2 12 1 15 10 9 9 -5 8 -2 -2 11 -11 14 -12 19 -2 22 6 3 12 13 12
22 0 22 33 54 45 44 4 -5 5 -2 1 5 -9 15 -11 15 -26 -3z m-29 -28 c-6 -8 -7
-18 -3 -22 4 -5 1 -5 -6 -1 -10 6 -10 11 -1 22 6 8 14 14 16 14 3 0 0 -6 -6
-13z"/>
<path d="M4066 3241 c-11 -12 -12 -21 -6 -27 7 -7 4 -16 -10 -29 -11 -10 -20
-22 -20 -27 0 -4 16 8 35 28 19 20 33 40 30 44 -3 5 0 10 7 12 8 3 6 6 -4 10
-9 4 -23 -1 -32 -11z m19 -8 c-2 -10 -4 -19 -4 -21 -1 -2 -6 0 -11 3 -8 5 -7
11 1 21 15 18 18 18 14 -3z"/>
<path d="M3975 3079 c-3 -4 2 -6 10 -5 21 3 28 13 10 13 -9 0 -18 -4 -20 -8z"/>
<path d="M3933 3015 c0 -8 4 -12 9 -9 5 3 6 10 3 15 -9 13 -12 11 -12 -6z"/>
<path d="M3884 2942 c3 -5 1 -12 -6 -14 -8 -3 -9 -6 -1 -11 6 -4 13 0 17 8 3
8 0 17 -6 21 -6 4 -8 3 -4 -4z"/>
<path d="M4317 3495 c-6 -13 -2 -54 6 -61 2 -2 3 14 3 36 0 44 -1 47 -9 25z"/>
<path d="M4353 3455 c0 -8 4 -12 9 -9 5 3 6 10 3 15 -9 13 -12 11 -12 -6z"/>
<path d="M4274 3442 c3 -5 0 -13 -6 -15 -9 -4 -10 -6 -1 -6 17 -1 25 16 12 25
-7 4 -9 3 -5 -4z"/>
<path d="M4235 3369 c-4 -6 -5 -12 -2 -15 2 -3 7 2 10 11 7 17 1 20 -8 4z"/>
<path d="M4279 3353 c-12 -16 -12 -17 2 -6 9 7 20 9 24 5 5 -4 5 -1 1 6 -9 16
-11 15 -27 -5z"/>
<path d="M4210 3321 c0 -6 4 -12 8 -15 5 -3 9 1 9 9 0 8 -4 15 -9 15 -4 0 -8
-4 -8 -9z"/>
<path d="M4180 3282 c0 -5 7 -9 15 -9 8 0 15 4 15 9 0 4 -7 8 -15 8 -8 0 -15
-4 -15 -8z"/>
<path d="M4185 3220 c-3 -6 1 -7 9 -4 18 7 21 14 7 14 -6 0 -13 -4 -16 -10z"/>
<path d="M4140 3211 c0 -6 4 -13 10 -16 6 -3 7 1 4 9 -7 18 -14 21 -14 7z"/>
<path d="M4114 3175 c-4 -8 -10 -12 -15 -9 -5 3 -9 0 -9 -5 0 -16 20 -13 26 4
4 8 11 12 17 8 6 -3 7 -1 3 5 -10 16 -15 15 -22 -3z"/>
<path d="M4120 3120 c-9 -6 -10 -10 -3 -10 6 0 15 5 18 10 8 12 4 12 -15 0z"/>
<path d="M4096 3087 c3 -10 9 -15 12 -12 3 3 0 11 -7 18 -10 9 -11 8 -5 -6z"/>
<path d="M930 3080 c0 -5 5 -10 11 -10 5 0 7 5 4 10 -3 6 -8 10 -11 10 -2 0
-4 -4 -4 -10z"/>
<path d="M4068 3072 c-3 -11 0 -19 7 -19 7 0 10 8 7 19 -2 10 -6 18 -7 18 -1
0 -5 -8 -7 -18z"/>
<path d="M1030 3061 c0 -6 4 -13 10 -16 6 -3 7 1 4 9 -7 18 -14 21 -14 7z"/>
<path d="M4030 3060 c0 -5 5 -10 11 -10 5 0 7 5 4 10 -3 6 -8 10 -11 10 -2 0
-4 -4 -4 -10z"/>
<path d="M993 3032 c0 -10 7 -19 14 -19 9 0 10 4 3 12 -5 7 -7 15 -3 18 3 4 1
7 -5 7 -6 0 -10 -8 -9 -18z"/>
<path d="M1051 3031 c-19 -14 -21 -20 -10 -26 8 -5 11 -5 7 0 -4 4 3 16 15 26
29 24 19 24 -12 0z"/>
<path d="M4050 2999 c0 -5 5 -7 10 -4 6 3 10 8 10 11 0 2 -4 4 -10 4 -5 0 -10
-5 -10 -11z"/>
<path d="M1102 2960 c0 -14 2 -19 5 -12 2 6 2 18 0 25 -3 6 -5 1 -5 -13z"/>
<path d="M1215 2960 c3 -5 8 -10 11 -10 2 0 4 5 4 10 0 6 -5 10 -11 10 -5 0
-7 -4 -4 -10z"/>
<path d="M4039 2953 c-13 -16 -12 -17 4 -4 9 7 17 15 17 17 0 8 -8 3 -21 -13z"/>
<path d="M1060 2945 c0 -2 6 -8 13 -14 10 -8 14 -7 14 2 0 8 -6 14 -14 14 -7
0 -13 -1 -13 -2z"/>
<path d="M1267 2936 c-4 -10 -1 -13 8 -9 8 3 12 9 9 14 -7 12 -11 11 -17 -5z"/>
<path d="M3970 2930 c-8 -5 -12 -12 -9 -15 4 -3 12 1 19 10 14 17 11 19 -10 5z"/>
<path d="M4010 2916 c7 -7 13 -7 20 0 6 6 3 10 -10 10 -13 0 -16 -4 -10 -10z"/>
<path d="M1065 2900 c-3 -6 1 -7 9 -4 18 7 21 14 7 14 -6 0 -13 -4 -16 -10z"/>
<path d="M1156 2901 c-3 -5 1 -14 9 -21 10 -9 15 -9 15 -1 0 6 -5 11 -11 11
-5 0 -7 5 -4 10 3 6 4 10 1 10 -3 0 -7 -4 -10 -9z"/>
<path d="M1370 2896 c0 -2 7 -7 16 -10 8 -3 12 -2 9 4 -6 10 -25 14 -25 6z"/>
<path d="M1147 2859 c7 -7 15 -10 18 -7 3 3 -2 9 -12 12 -14 6 -15 5 -6 -5z"/>
<path d="M1222 2844 c10 -10 20 -15 24 -12 3 4 -5 12 -18 18 -22 12 -22 12 -6
-6z"/>
<path d="M3928 2848 c-7 -17 15 -19 29 -3 4 4 3 5 -4 2 -6 -4 -13 -2 -15 5 -3
8 -6 6 -10 -4z"/>
<path d="M3774 2835 c-10 -8 -15 -15 -10 -15 5 0 3 -6 -3 -14 -9 -10 -8 -15 3
-19 11 -4 13 -1 9 10 -5 12 -1 14 15 8 22 -6 31 8 12 20 -6 4 -8 11 -5 16 9
13 2 11 -21 -6z"/>
<path d="M1175 2820 c3 -5 8 -10 11 -10 2 0 4 5 4 10 0 6 -5 10 -11 10 -5 0
-7 -4 -4 -10z"/>
<path d="M1645 2820 c-3 -5 1 -10 10 -10 9 0 13 5 10 10 -3 6 -8 10 -10 10 -2
0 -7 -4 -10 -10z"/>
<path d="M3894 2816 c-3 -8 -1 -22 4 -32 7 -13 9 -10 8 15 -1 34 -4 38 -12 17z"/>
<path d="M3935 2791 c-3 -5 -2 -12 3 -15 5 -3 9 1 9 9 0 17 -3 19 -12 6z"/>
<path d="M1502 2759 c-8 -12 -9 -18 -2 -14 6 4 19 1 28 -7 15 -11 15 -11 6 2
-6 8 -13 21 -15 28 -3 8 -9 5 -17 -9z"/>
<path d="M1230 2766 c0 -2 7 -7 16 -10 8 -3 12 -2 9 4 -6 10 -25 14 -25 6z"/>
<path d="M1370 2759 c0 -5 5 -7 10 -4 6 3 10 8 10 11 0 2 -4 4 -10 4 -5 0 -10
-5 -10 -11z"/>
<path d="M3956 2753 c-6 -14 -5 -15 5 -6 7 7 10 15 7 18 -3 3 -9 -2 -12 -12z"/>
<path d="M1556 2733 c-6 -14 -5 -15 5 -6 7 7 10 15 7 18 -3 3 -9 -2 -12 -12z"/>
<path d="M3828 2739 c-20 -11 -24 -29 -7 -29 5 0 7 5 3 12 -5 8 -2 9 10 5 9
-4 15 -3 11 2 -3 5 1 12 7 14 7 3 9 6 3 6 -5 0 -18 -4 -27 -10z"/>
<path d="M1420 2726 c0 -2 8 -10 18 -17 15 -13 16 -12 3 4 -13 16 -21 21 -21
13z"/>
<path d="M3820 2677 c-12 -21 -12 -21 6 -7 10 8 20 15 22 16 2 1 -1 4 -5 7 -5
3 -15 -4 -23 -16z"/>
<path d="M3680 2675 c-20 -25 1 -37 28 -15 13 11 18 21 12 25 -5 3 -10 0 -10
-7 0 -11 -2 -11 -9 0 -6 10 -10 10 -21 -3z"/>
<path d="M3790 2635 c0 -8 4 -15 8 -15 5 0 9 7 9 15 0 8 -4 15 -9 15 -4 0 -8
-7 -8 -15z"/>
<path d="M3621 2597 l-21 -24 30 2 c17 1 34 -3 37 -8 3 -6 1 -7 -5 -3 -6 3
-16 -3 -22 -14 -6 -11 -14 -19 -18 -19 -23 4 -31 -3 -28 -23 2 -13 -1 -29 -6
-35 -6 -7 -7 -13 -2 -13 5 0 2 -5 -6 -10 -10 -6 -11 -13 -5 -19 6 -6 16 -7 24
-1 12 7 12 11 2 23 -10 13 -8 18 11 31 28 20 35 20 35 1 0 -9 -6 -14 -13 -11
-8 3 -16 1 -19 -4 -7 -11 5 -40 16 -40 4 0 5 8 2 18 -6 15 -5 15 10 3 15 -12
17 -12 12 2 -4 8 -2 18 4 21 6 4 7 14 4 24 -5 14 -3 15 8 5 7 -7 18 -13 24
-13 5 0 2 5 -7 11 -10 5 -18 15 -18 21 0 7 6 6 15 -2 9 -7 18 -10 22 -7 3 4
-2 9 -11 13 -9 3 -13 11 -9 18 4 7 1 7 -9 -1 -15 -13 -28 -8 -28 9 0 5 4 7 9
3 5 -3 17 2 26 12 18 17 37 23 87 26 15 0 25 3 22 6 -10 10 -38 9 -57 -1 -15
-8 -22 -7 -28 5 -8 13 -17 14 -49 7 -3 0 3 -7 13 -14 10 -8 14 -17 9 -20 -6
-3 -13 1 -16 10 -5 14 -9 14 -24 3 -15 -13 -16 -12 -3 4 21 27 7 30 -18 4z
m38 -81 c-12 -12 -42 -9 -46 4 -4 12 -3 12 5 2 7 -11 11 -10 16 4 5 13 9 15
18 6 6 -6 10 -14 7 -16z"/>
<path d="M3750 2569 c0 -5 -6 -7 -12 -3 -7 4 -9 3 -5 -1 13 -15 34 -14 34 1 0
8 -4 14 -9 14 -4 0 -8 -5 -8 -11z"/>
<path d="M3700 2563 c0 -15 19 -37 26 -31 3 4 -1 14 -10 23 -9 9 -16 13 -16 8z"/>
<path d="M3787 2559 c7 -7 15 -10 18 -7 3 3 -2 9 -12 12 -14 6 -15 5 -6 -5z"/>
<path d="M3710 2497 c0 -2 6 -10 14 -16 11 -9 16 -9 22 1 4 7 4 10 -1 6 -4 -4
-14 -3 -22 3 -7 6 -13 9 -13 6z"/>
<path d="M3515 2470 c3 -5 8 -10 11 -10 2 0 4 5 4 10 0 6 -5 10 -11 10 -5 0
-7 -4 -4 -10z"/>
<path d="M3675 2469 c-4 -6 -5 -12 -2 -15 2 -3 7 2 10 11 7 17 1 20 -8 4z"/>
<path d="M3670 2429 c0 -5 -6 -7 -12 -3 -7 4 -9 3 -5 -1 13 -15 36 -14 30 1
-6 17 -13 18 -13 3z"/>
<path d="M3695 2391 c-3 -5 -2 -12 3 -15 5 -3 9 1 9 9 0 17 -3 19 -12 6z"/>
<path d="M3615 2379 c-4 -6 -4 -13 -1 -16 3 -4 6 -1 6 6 0 7 5 9 12 5 7 -4 8
-3 4 4 -9 15 -13 15 -21 1z"/>
<path d="M3590 2339 c0 -5 5 -7 10 -4 6 3 10 8 10 11 0 2 -4 4 -10 4 -5 0 -10
-5 -10 -11z"/>
<path d="M3609 2323 c-13 -16 -12 -17 4 -4 16 13 21 21 13 21 -2 0 -10 -8 -17
-17z"/>
<path d="M3462 2303 c-7 -2 -17 -13 -22 -23 -8 -15 -6 -18 8 -16 9 2 17 7 17
12 0 5 4 15 8 22 9 13 9 13 -11 5z"/>
<path d="M3606 2262 c-3 -5 1 -9 9 -9 8 0 12 4 9 9 -3 4 -7 8 -9 8 -2 0 -6 -4
-9 -8z"/>
<path d="M3550 2251 c0 -7 -5 -9 -12 -5 -7 5 -8 3 -3 -5 5 -9 10 -10 18 -2 6
6 8 14 4 18 -4 3 -7 1 -7 -6z"/>
<path d="M3530 2210 c-9 -6 -10 -10 -3 -10 6 0 15 5 18 10 8 12 4 12 -15 0z"/>
<path d="M3590 2200 c0 -5 5 -10 11 -10 5 0 7 5 4 10 -3 6 -8 10 -11 10 -2 0
-4 -4 -4 -10z"/>
<path d="M3352 2161 c-9 -5 -7 -12 7 -25 22 -20 35 -9 17 16 -7 9 -17 13 -24
9z"/>
<path d="M3513 2145 c0 -8 4 -12 9 -9 5 3 6 10 3 15 -9 13 -12 11 -12 -6z"/>
<path d="M3467 2093 c3 -7 6 -13 8 -13 1 0 7 6 13 13 8 10 6 13 -7 13 -11 0
-17 -6 -14 -13z"/>
<path d="M3430 2090 c0 -5 10 -14 23 -20 20 -10 20 -10 5 3 -10 8 -15 17 -11
20 3 4 1 7 -5 7 -7 0 -12 -4 -12 -10z"/>
<path d="M3520 2080 c-9 -6 -10 -10 -3 -10 6 0 15 5 18 10 8 12 4 12 -15 0z"/>
<path d="M3292 2056 c-22 -12 -22 -13 -5 -26 10 -8 15 -10 10 -5 -4 4 0 17 10
27 19 21 16 22 -15 4z"/>
<path d="M3439 2043 c0 -5 -3 -19 -5 -32 -2 -14 -2 -22 2 -19 3 3 6 12 8 20 1
7 5 19 9 26 5 7 4 12 -2 12 -6 0 -11 -3 -12 -7z"/>
<path d="M3252 1975 c-20 -19 -21 -23 -8 -34 9 -8 13 -17 10 -22 -3 -5 0 -9 7
-9 8 0 8 -4 -1 -15 -7 -8 -11 -15 -9 -16 2 0 15 -2 28 -3 21 -3 22 -2 7 10
-13 9 -14 13 -4 17 11 4 11 6 0 6 -8 1 -10 6 -5 14 12 19 14 47 4 47 -6 0 -13
-5 -17 -12 -5 -7 -2 -8 7 -3 11 6 12 5 2 -5 -7 -8 -16 -10 -20 -6 -5 4 2 16
15 26 12 10 19 21 15 23 -5 2 -18 -6 -31 -18z"/>
<path d="M3390 1943 c0 -6 8 -17 18 -24 16 -13 16 -13 2 6 -8 11 -16 22 -17
24 -2 2 -3 0 -3 -6z"/>
<path d="M3450 1921 c0 -6 4 -13 10 -16 6 -3 7 1 4 9 -7 18 -14 21 -14 7z"/>
<path d="M3370 1891 c0 -6 4 -13 10 -16 6 -3 7 1 4 9 -7 18 -14 21 -14 7z"/>
<path d="M3436 1878 c3 -5 10 -6 15 -3 13 9 11 12 -6 12 -8 0 -12 -4 -9 -9z"/>
<path d="M3747 1779 c7 -7 15 -10 18 -7 3 3 -2 9 -12 12 -14 6 -15 5 -6 -5z"/>
<path d="M3800 1726 c0 -2 8 -10 18 -17 15 -13 16 -12 3 4 -13 16 -21 21 -21
13z"/>
<path d="M3835 1720 c3 -5 8 -10 11 -10 2 0 4 5 4 10 0 6 -5 10 -11 10 -5 0
-7 -4 -4 -10z"/>
<path d="M3820 1685 c0 -2 6 -8 13 -14 10 -8 14 -7 14 2 0 8 -6 14 -14 14 -7
0 -13 -1 -13 -2z"/>
<path d="M3887 1639 c7 -7 15 -10 18 -7 3 3 -2 9 -12 12 -14 6 -15 5 -6 -5z"/>
<path d="M3920 1615 c-19 -22 -8 -25 13 -3 9 10 13 18 8 18 -5 0 -14 -7 -21
-15z"/>
<path d="M3976 1593 c-6 -14 -5 -15 5 -6 7 7 10 15 7 18 -3 3 -9 -2 -12 -12z"/>
<path d="M4001 1556 c-9 -11 -9 -16 1 -22 7 -4 10 -4 6 1 -4 4 -3 14 3 22 6 7
9 13 6 13 -2 0 -10 -6 -16 -14z"/>
<path d="M3970 1515 c0 -8 4 -15 8 -15 5 0 9 7 9 15 0 8 -4 15 -9 15 -4 0 -8
-7 -8 -15z"/>
<path d="M4076 1473 c-6 -14 -5 -15 5 -6 7 7 10 15 7 18 -3 3 -9 -2 -12 -12z"/>
<path d="M4030 1460 c-12 -7 -10 -9 7 -7 12 0 19 5 17 9 -6 10 -6 10 -24 -2z"/>
<path d="M3950 1441 c0 -6 4 -13 10 -16 6 -3 7 1 4 9 -7 18 -14 21 -14 7z"/>
<path d="M4075 1440 c3 -5 8 -10 11 -10 2 0 4 5 4 10 0 6 -5 10 -11 10 -5 0
-7 -4 -4 -10z"/>
<path d="M4043 1433 c9 -2 14 -9 11 -15 -4 -7 -2 -8 5 -4 15 10 4 26 -17 25
-15 -1 -15 -2 1 -6z"/>
<path d="M4070 1405 c-7 -9 -8 -15 -2 -15 5 0 12 7 16 15 3 8 4 15 2 15 -2 0
-9 -7 -16 -15z"/>
<path d="M4120 1355 c-7 -8 -17 -12 -24 -8 -6 3 -7 2 -3 -2 12 -14 37 -15 34
-2 -1 7 4 11 11 9 8 -1 11 2 7 8 -8 13 -10 13 -25 -5z"/>
<path d="M3970 1356 c0 -2 7 -7 16 -10 8 -3 12 -2 9 4 -6 10 -25 14 -25 6z"/>
<path d="M4008 1308 c15 -19 2 -31 -25 -21 -16 6 -16 5 -4 -10 7 -9 17 -14 22
-11 5 3 9 0 9 -5 0 -6 -4 -11 -8 -11 -4 0 -8 -9 -9 -20 -1 -11 2 -20 8 -20 5
0 8 3 8 8 -3 18 2 33 9 28 14 -9 6 54 -8 67 -12 10 -12 9 -2 -5z"/>
<path d="M4108 1288 c2 -10 9 -18 15 -18 6 0 7 3 4 7 -4 3 -3 11 3 17 6 8 3
12 -9 12 -12 0 -17 -6 -13 -18z"/>
<path d="M4070 1290 c0 -5 5 -10 10 -10 6 0 10 5 10 10 0 6 -4 10 -10 10 -5 0
-10 -4 -10 -10z"/>
<path d="M4130 1256 c0 -2 8 -10 18 -17 15 -13 16 -12 3 4 -13 16 -21 21 -21
13z"/>
<path d="M4170 1220 c0 -5 5 -10 11 -10 5 0 7 5 4 10 -3 6 -8 10 -11 10 -2 0
-4 -4 -4 -10z"/>
<path d="M4235 1211 c-3 -5 -2 -12 3 -15 5 -3 9 1 9 9 0 17 -3 19 -12 6z"/>
<path d="M4120 1195 c-7 -9 -11 -17 -9 -20 3 -2 10 5 17 15 14 24 10 26 -8 5z"/>
<path d="M4024 1181 c4 -6 3 -11 -1 -11 -5 0 -9 -10 -10 -21 -2 -21 -1 -21 13
-3 12 17 13 17 8 2 -4 -11 -1 -18 7 -18 7 0 9 3 6 7 -4 3 -2 12 4 19 8 9 5 16
-12 24 -14 8 -19 8 -15 1z"/>
<path d="M4136 1175 c-3 -9 -6 -22 -5 -28 0 -7 5 -1 10 12 5 13 8 26 5 28 -2
2 -6 -3 -10 -12z"/>
<path d="M4116 1118 c3 -5 10 -6 15 -3 13 9 11 12 -6 12 -8 0 -12 -4 -9 -9z"/>
<path d="M4004 1102 c-6 -4 -11 -14 -11 -23 0 -20 29 -18 35 2 3 11 1 11 -8
-1 -10 -12 -11 -11 -7 8 3 12 4 22 4 22 -1 0 -7 -4 -13 -8z"/>
<path d="M4145 1100 c-3 -6 1 -7 9 -4 18 7 21 14 7 14 -6 0 -13 -4 -16 -10z"/>
<path d="M4115 1090 c-3 -5 -3 -10 2 -10 4 0 1 -5 -7 -11 -12 -8 -12 -10 -1
-7 8 2 15 12 17 21 3 19 -2 22 -11 7z"/>
<path d="M4107 1039 c7 -9 11 -18 8 -21 -3 -3 3 -11 12 -19 16 -12 17 -12 6 2
-7 9 -11 18 -8 21 3 3 -3 11 -12 19 -16 12 -17 12 -6 -2z"/>
<path d="M3970 1025 c7 -9 15 -13 17 -11 7 7 -7 26 -19 26 -6 0 -6 -6 2 -15z"/>
<path d="M935 969 c-4 -6 -5 -12 -2 -15 2 -3 7 2 10 11 7 17 1 20 -8 4z"/>
<path d="M4094 958 c-4 -5 -3 -12 0 -15 3 -4 6 -1 6 7 0 9 3 10 13 1 10 -8 14
-7 14 2 0 15 -25 18 -33 5z"/>
<path d="M950 936 c0 -2 6 -9 14 -15 11 -9 16 -9 22 0 4 8 3 9 -4 5 -7 -4 -12
-2 -12 3 0 6 -4 11 -10 11 -5 0 -10 -2 -10 -4z"/>
<path d="M3916 908 c-20 -28 -20 -35 -2 -35 8 0 15 3 14 6 -2 19 3 32 10 27 5
-3 9 1 9 9 0 22 -14 18 -31 -7z"/>
<path d="M935 900 c3 -5 8 -10 11 -10 2 0 4 5 4 10 0 6 -5 10 -11 10 -5 0 -7
-4 -4 -10z"/>
<path d="M993 889 c-2 -23 3 -25 10 -4 4 8 3 16 -1 19 -4 3 -9 -4 -9 -15z"/>
<path d="M1026 875 c4 -8 11 -15 16 -15 6 0 5 6 -2 15 -7 8 -14 15 -16 15 -2
0 -1 -7 2 -15z"/>
<path d="M4020 856 c0 -2 7 -7 16 -10 8 -3 12 -2 9 4 -6 10 -25 14 -25 6z"/>
<path d="M1006 842 c-3 -5 1 -9 9 -9 8 0 15 4 15 9 0 4 -4 8 -9 8 -6 0 -12 -4
-15 -8z"/>
<path d="M1035 820 c-3 -6 1 -7 9 -4 18 7 21 14 7 14 -6 0 -13 -4 -16 -10z"/>
<path d="M3833 818 c-13 -6 -23 -14 -23 -18 0 -14 33 -21 44 -10 8 8 5 9 -9 5
-20 -6 -20 -6 -1 6 15 9 21 9 24 1 5 -16 23 -15 20 1 -3 12 -19 27 -28 26 -3
0 -15 -5 -27 -11z"/>
<path d="M3995 819 c-11 -16 -1 -19 13 -3 7 8 8 14 3 14 -5 0 -13 -5 -16 -11z"/>
<path d="M4036 818 c3 -5 10 -6 15 -3 13 9 11 12 -6 12 -8 0 -12 -4 -9 -9z"/>
<path d="M1090 791 c0 -5 5 -13 10 -16 6 -3 10 -2 10 4 0 5 -4 13 -10 16 -5 3
-10 2 -10 -4z"/>
<path d="M3974 775 c-4 -8 -11 -12 -17 -8 -6 4 -7 1 -2 -7 6 -10 10 -10 20 3
9 13 15 14 25 4 12 -10 12 -9 1 6 -16 21 -20 21 -27 2z"/>
<path d="M1070 776 c0 -2 8 -10 18 -17 15 -13 16 -12 3 4 -13 16 -21 21 -21
13z"/>
<path d="M3740 770 c0 -6 -10 -24 -21 -39 -21 -28 -19 -58 3 -45 7 4 8 2 4 -5
-4 -6 -12 -8 -18 -5 -6 4 -8 3 -5 -3 3 -5 -10 -9 -32 -9 -29 0 -37 4 -33 14 2
8 8 10 11 5 3 -4 16 2 28 14 12 12 18 25 13 28 -5 3 -15 -3 -21 -14 -7 -10
-18 -17 -25 -14 -6 2 -15 0 -19 -6 -4 -8 -12 -8 -26 -1 -14 8 -27 7 -48 -5
-33 -17 -49 -35 -30 -35 7 0 10 -2 7 -5 -7 -8 -39 6 -34 14 3 4 -4 7 -14 7
-11 0 -22 -6 -24 -12 -3 -8 2 -11 14 -9 10 2 21 -3 24 -11 3 -9 1 -12 -4 -9
-7 4 -7 -3 0 -19 7 -20 6 -26 -8 -29 -9 -3 -5 -4 10 -4 18 1 24 5 18 11 -17
17 -11 29 7 15 11 -10 14 -10 9 -1 -4 6 -3 12 2 12 16 0 22 -13 11 -27 -9 -9
-8 -13 0 -13 6 0 11 4 11 9 0 5 8 8 18 7 12 -1 16 5 15 21 -3 26 15 27 34 3
11 -13 12 -12 6 4 -4 13 -3 17 5 12 7 -4 10 -2 6 7 -3 8 2 14 11 14 10 0 14
-6 10 -16 -3 -8 -3 -12 1 -8 4 4 13 -1 21 -11 12 -16 13 -15 6 3 -6 17 -5 18
9 7 13 -10 17 -10 22 3 3 9 10 14 15 11 5 -3 20 -2 33 3 17 7 18 10 6 10 -10
1 -18 6 -18 12 0 5 5 7 12 3 7 -4 8 -3 4 5 -10 16 -29 2 -22 -16 4 -11 2 -13
-9 -10 -8 4 -17 2 -20 -3 -4 -6 -11 -10 -18 -10 -6 0 1 12 17 27 27 25 28 27
10 40 -10 7 -12 13 -5 13 7 0 10 4 6 9 -9 15 13 23 34 11 24 -12 40 6 21 23
-8 7 -10 8 -7 1 3 -6 0 -11 -7 -11 -8 0 -12 6 -9 13 2 6 0 15 -6 19 -6 3 -11
1 -11 -5z m-128 -95 c12 2 15 -3 13 -17 -5 -24 -15 -37 -15 -20 0 7 -5 12 -11
12 -5 0 -7 -5 -3 -12 4 -6 3 -8 -4 -4 -6 3 -13 2 -17 -4 -4 -6 -12 -8 -18 -4
-7 3 -3 -2 7 -10 11 -9 16 -19 12 -23 -4 -5 -16 2 -25 14 -12 15 -22 18 -28
12 -7 -7 -12 -6 -16 4 -3 9 1 14 11 13 10 0 16 5 14 13 -5 23 21 32 40 14 20
-18 25 -4 6 17 -11 12 -10 12 2 3 8 -6 23 -9 32 -8z m76 -32 c-6 -7 -12 -13
-13 -13 -2 0 -5 6 -8 13 -3 7 3 13 14 13 13 0 15 -3 7 -13z"/>
<path d="M3549 669 c-6 -31 -5 -37 7 -35 22 3 25 12 9 26 -8 7 -15 11 -16 9z"/>
<path d="M1040 760 c-9 -6 -10 -10 -3 -10 6 0 15 5 18 10 8 12 4 12 -15 0z"/>
<path d="M3934 739 c-12 -20 12 -31 27 -12 13 17 13 17 -5 3 -18 -14 -19 -13
-13 3 7 19 2 23 -9 6z"/>
<path d="M1074 723 c3 -3 19 -7 36 -8 17 -1 28 0 25 3 -3 3 -19 7 -36 8 -17 2
-28 0 -25 -3z"/>
<path d="M3860 702 c0 -5 7 -9 15 -9 8 0 15 4 15 9 0 4 -7 8 -15 8 -8 0 -15
-4 -15 -8z"/>
<path d="M1181 684 c0 -11 3 -14 6 -6 3 7 2 16 -1 19 -3 4 -6 -2 -5 -13z"/>
<path d="M3675 689 c-10 -15 3 -25 16 -12 7 7 7 13 1 17 -6 3 -14 1 -17 -5z"/>
<path d="M1090 686 c0 -2 7 -7 16 -10 8 -3 12 -2 9 4 -6 10 -25 14 -25 6z"/>
<path d="M1159 688 c-7 -23 -4 -35 7 -35 9 0 11 4 4 12 -5 7 -7 15 -3 18 3 4
3 7 0 7 -4 0 -7 -1 -8 -2z"/>
<path d="M2840 680 c11 -7 11 -10 2 -10 -7 0 -10 -5 -7 -10 4 -6 10 -8 15 -5
5 3 12 0 15 -6 4 -5 14 -8 24 -5 9 4 5 -3 -9 -14 -22 -17 -21 -25 3 -21 4 0 7
-3 7 -9 0 -5 -7 -10 -15 -10 -8 0 -15 -4 -15 -8 0 -4 9 -8 19 -8 15 0 18 6 16
26 -3 19 1 26 15 27 17 2 18 -1 7 -18 -10 -16 -9 -21 3 -29 20 -13 37 5 22 23
-7 8 -9 17 -5 20 3 4 15 -7 25 -24 18 -30 20 -30 33 -13 10 14 10 21 2 26 -7
4 -7 8 -2 8 20 0 38 -17 26 -24 -13 -9 -5 -26 12 -26 7 0 6 4 -3 10 -8 5 -13
10 -10 11 3 0 16 2 29 5 20 4 22 2 11 -11 -7 -9 -8 -15 -2 -15 5 0 13 7 16 15
5 13 10 14 28 4 17 -9 23 -9 26 0 3 9 8 9 19 -1 12 -10 17 -9 27 2 16 22 44
21 51 -1 7 -20 30 -26 40 -10 3 5 21 8 40 5 23 -3 37 0 41 9 7 19 40 18 56 -1
11 -13 11 -15 -4 -9 -21 7 -48 -1 -48 -15 0 -5 6 -6 12 -1 21 12 52 9 64 -6
12 -15 34 -7 34 12 0 7 -4 6 -10 -3 -8 -13 -11 -12 -24 5 -8 11 -12 24 -8 29
3 6 7 5 10 -2 2 -7 9 -12 15 -12 8 0 7 4 -1 12 -14 14 -16 28 -3 28 5 0 13 -9
16 -20 8 -25 25 -27 20 -2 -2 9 -4 21 -4 25 -1 5 -5 6 -9 3 -4 -2 -14 -1 -22
4 -8 5 -22 2 -37 -7 -21 -14 -23 -14 -17 1 3 9 1 16 -5 16 -6 0 -10 -3 -10 -7
3 -21 -2 -33 -12 -27 -8 4 -7 9 2 16 10 7 8 8 -7 3 -19 -5 -22 -2 -20 20 1 21
3 23 12 10 12 -15 29 -22 20 -7 -3 5 5 8 17 7 12 -2 21 -8 19 -14 -1 -7 2 -10
8 -6 12 8 12 16 0 35 -9 13 -11 13 -20 0 -7 -10 -13 -11 -17 -5 -5 6 -26 11
-48 10 -32 0 -39 -3 -37 -17 2 -12 -3 -16 -17 -13 -12 2 -23 -1 -26 -6 -4 -5
-12 -6 -18 -2 -7 4 -19 8 -27 8 -8 0 -14 5 -13 11 3 16 -45 9 -66 -10 -10 -9
-21 -13 -24 -9 -4 3 -7 0 -7 -7 0 -9 -5 -7 -15 6 -8 10 -15 15 -15 9 0 -5 -5
-3 -10 5 -8 13 -12 12 -25 -7 -19 -27 -37 -30 -33 -5 2 10 -3 17 -12 17 -8 0
-21 4 -29 9 -22 14 -81 16 -81 3 0 -8 -4 -7 -12 1 -7 7 -17 12 -22 12 -6 0 -4
-5 4 -10z m47 -15 c0 -8 -4 -15 -9 -15 -10 0 -11 14 -1 23 9 10 10 9 10 -8z
m45 -4 c-1 -7 9 -10 30 -7 18 3 27 3 20 0 -10 -5 -10 -9 0 -22 10 -12 10 -14
1 -8 -7 4 -13 2 -13 -3 0 -6 5 -11 10 -11 6 0 10 -4 10 -10 0 -19 -17 -10 -28
16 -7 14 -17 22 -22 19 -6 -3 -10 -1 -10 6 0 8 -4 9 -13 0 -11 -8 -13 -6 -11
12 1 12 3 24 3 25 3 10 26 -7 23 -17z m394 -14 c-1 -13 -6 -29 -10 -36 -7 -10
-4 -11 13 -2 17 10 20 9 15 -4 -4 -10 -16 -13 -37 -11 -18 2 -38 -1 -46 -7
-10 -9 -17 -7 -27 8 -13 17 -25 20 -65 16 -5 0 -7 -5 -4 -11 3 -5 2 -10 -4
-10 -5 0 -11 6 -14 13 -3 9 -7 9 -17 0 -8 -7 -19 -9 -29 -4 -9 5 -27 7 -39 6
-13 -1 -26 4 -29 12 -3 7 -10 10 -17 6 -6 -4 -5 1 3 10 15 19 41 19 56 -1 9
-11 16 -9 38 8 22 17 28 19 32 7 7 -16 35 -19 35 -3 0 5 7 1 15 -10 8 -10 15
-14 14 -9 -3 23 2 27 17 14 13 -10 17 -10 26 2 8 11 9 11 4 -3 -3 -10 -2 -17
2 -17 21 3 32 -2 26 -13 -4 -7 -3 -8 5 -4 6 4 9 12 6 17 -4 5 -1 9 4 9 6 0 11
5 11 12 0 9 -3 9 -12 0 -15 -15 -28 -15 -28 -1 0 5 4 8 9 5 5 -3 14 1 21 9 18
22 29 18 26 -8z m92 -26 c-7 -11 -16 -17 -21 -14 -4 3 0 11 10 19 24 18 25 17
11 -5z m-478 -32 c0 -6 -4 -7 -10 -4 -5 3 -10 11 -10 16 0 6 5 7 10 4 6 -3 10
-11 10 -16z"/>
<path d="M3117 630 c-14 -13 -15 -20 -6 -26 7 -4 10 -3 6 3 -9 15 18 24 31 11
6 -6 12 -6 17 3 5 7 4 10 -3 5 -6 -3 -14 0 -19 7 -7 12 -11 11 -26 -3z"/>
<path d="M3038 633 c6 -2 10 -8 8 -12 -3 -4 4 -7 15 -7 19 0 19 1 3 13 -10 7
-23 13 -28 12 -6 0 -5 -3 2 -6z"/>
<path d="M3210 636 c0 -8 50 -44 54 -38 2 4 -9 15 -25 24 -16 10 -29 16 -29
14z"/>
<path d="M3427 684 c-8 -8 3 -34 15 -34 7 0 6 5 -1 13 -6 8 -8 17 -4 20 3 4 4
7 1 7 -2 0 -7 -3 -11 -6z"/>
<path d="M3895 679 c-4 -6 -5 -12 -2 -15 2 -3 7 2 10 11 7 17 1 20 -8 4z"/>
<path d="M1240 659 c-7 -11 -10 -23 -7 -25 2 -2 9 7 15 21 14 30 7 33 -8 4z"/>
<path d="M1195 660 c-3 -5 -1 -10 4 -10 6 0 11 5 11 10 0 6 -2 10 -4 10 -3 0
-8 -4 -11 -10z"/>
<path d="M2786 646 c7 -19 20 -21 30 -3 4 6 4 9 -1 5 -4 -4 -14 -3 -22 4 -11
8 -12 7 -7 -6z"/>
<path d="M1256 634 c-5 -13 -3 -14 6 -7 7 6 20 13 28 16 10 4 8 6 -6 6 -12 1
-25 -6 -28 -15z"/>
<path d="M3895 640 c-3 -5 -1 -10 4 -10 6 0 11 5 11 10 0 6 -2 10 -4 10 -3 0
-8 -4 -11 -10z"/>
<path d="M1176 622 c-3 -5 1 -9 9 -9 8 0 12 4 9 9 -3 4 -7 8 -9 8 -2 0 -6 -4
-9 -8z"/>
<path d="M3705 599 c-19 -19 -19 -20 -1 -13 15 6 17 4 11 -7 -4 -8 -4 -11 0
-6 8 7 19 48 12 46 -1 0 -11 -9 -22 -20z"/>
<path d="M3750 611 c0 -6 3 -11 8 -12 4 0 18 -3 31 -5 14 -2 22 -2 19 2 -3 3
-12 6 -20 8 -7 1 -19 5 -25 9 -8 5 -13 4 -13 -2z"/>
<path d="M1275 600 c3 -5 8 -10 11 -10 2 0 4 5 4 10 0 6 -5 10 -11 10 -5 0 -7
-4 -4 -10z"/>
<path d="M1514 583 c18 -36 33 -49 33 -28 0 8 -4 12 -9 9 -4 -3 -8 -1 -8 3 0
5 -7 18 -15 29 -14 17 -14 16 -1 -13z"/>
<path d="M3640 600 c0 -5 5 -10 10 -10 6 0 10 5 10 10 0 6 -4 10 -10 10 -5 0
-10 -4 -10 -10z"/>
<path d="M2110 590 c0 -5 5 -10 11 -10 5 0 7 5 4 10 -3 6 -8 10 -11 10 -2 0
-4 -4 -4 -10z"/>
<path d="M3596 583 c-6 -14 -5 -15 5 -6 7 7 10 15 7 18 -3 3 -9 -2 -12 -12z"/>
<path d="M1413 583 c4 -6 2 -13 -5 -15 -8 -3 -6 -6 4 -10 17 -7 19 15 3 29 -4
4 -5 3 -2 -4z"/>
<path d="M2200 579 c-13 -9 -13 -10 2 -6 9 3 29 -4 45 -16 25 -19 26 -19 13
-2 -28 36 -37 40 -60 24z"/>
<path d="M2710 581 c0 -6 4 -13 10 -16 6 -3 7 1 4 9 -7 18 -14 21 -14 7z"/>
<path d="M3190 579 c0 -5 5 -7 10 -4 13 8 13 -8 -1 -22 -8 -8 -7 -13 3 -18 7
-5 10 -5 6 0 -4 4 -3 14 3 21 11 14 4 34 -12 34 -5 0 -9 -5 -9 -11z"/>
<path d="M1801 564 c0 -11 3 -14 6 -6 3 7 2 16 -1 19 -3 4 -6 -2 -5 -13z"/>
<path d="M2041 573 c-1 -17 16 -25 25 -12 4 7 3 9 -4 5 -5 -3 -13 0 -15 6 -4
9 -6 10 -6 1z"/>
<path d="M2171 564 c0 -11 3 -14 6 -6 3 7 2 16 -1 19 -3 4 -6 -2 -5 -13z"/>
<path d="M2511 564 c0 -11 3 -14 6 -6 3 7 2 16 -1 19 -3 4 -6 -2 -5 -13z"/>
<path d="M2545 557 l-20 -20 21 11 c15 8 25 8 34 -1 11 -9 11 -7 0 8 -8 11
-14 21 -15 21 0 1 -9 -8 -20 -19z"/>
<path d="M3081 564 c0 -11 3 -14 6 -6 3 7 2 16 -1 19 -3 4 -6 -2 -5 -13z"/>
<path d="M1633 555 c0 -8 4 -12 9 -9 5 3 6 10 3 15 -9 13 -12 11 -12 -6z"/>
<path d="M1667 564 c-4 -4 -7 -12 -7 -18 0 -6 5 -4 10 4 9 13 11 13 21 0 9
-12 10 -12 7 -1 -5 17 -21 25 -31 15z"/>
<path d="M1715 561 c-3 -5 -2 -12 3 -15 5 -3 9 1 9 9 0 17 -3 19 -12 6z"/>
<path d="M1839 553 c-13 -17 -13 -17 6 -3 11 8 22 16 24 17 2 2 0 3 -6 3 -6 0
-17 -8 -24 -17z"/>
<path d="M1885 560 c3 -5 8 -10 11 -10 2 0 4 5 4 10 0 6 -5 10 -11 10 -5 0 -7
-4 -4 -10z"/>
<path d="M1955 561 c-6 -11 13 -26 22 -17 4 3 1 6 -6 6 -7 0 -9 5 -6 10 3 6 4
10 1 10 -3 0 -7 -4 -11 -9z"/>
<path d="M2079 553 c-13 -17 -13 -17 6 -3 11 8 22 16 24 17 2 2 0 3 -6 3 -6 0
-17 -8 -24 -17z"/>
<path d="M2120 566 c0 -2 7 -9 15 -16 13 -11 14 -10 9 4 -5 14 -24 23 -24 12z"/>
<path d="M2420 559 c0 -5 5 -7 10 -4 6 3 10 8 10 11 0 2 -4 4 -10 4 -5 0 -10
-5 -10 -11z"/>
<path d="M2450 558 c0 -6 3 -8 7 -5 3 4 16 -1 27 -10 21 -18 21 -18 2 5 -21
24 -36 29 -36 10z"/>
<path d="M2744 554 c-18 -14 -18 -15 4 -4 12 6 22 13 22 15 0 8 -5 6 -26 -11z"/>
<path d="M2914 562 c3 -6 0 -12 -6 -15 -7 -2 -1 -4 14 -3 34 1 34 2 7 17 -13
6 -19 7 -15 1z"/>
<path d="M2962 556 c7 -8 15 -12 17 -11 5 6 -10 25 -20 25 -5 0 -4 -6 3 -14z"/>
<path d="M2995 561 c-3 -5 -2 -12 3 -15 5 -3 9 1 9 9 0 17 -3 19 -12 6z"/>
<path d="M3119 553 c-13 -17 -13 -17 6 -3 11 8 22 16 24 17 2 2 0 3 -6 3 -6 0
-17 -8 -24 -17z"/>
<path d="M3165 560 c3 -5 8 -10 11 -10 2 0 4 5 4 10 0 6 -5 10 -11 10 -5 0 -7
-4 -4 -10z"/>
<path d="M3265 560 c-3 -6 1 -7 9 -4 18 7 21 14 7 14 -6 0 -13 -4 -16 -10z"/>
<path d="M3571 554 c0 -11 3 -14 6 -6 3 7 2 16 -1 19 -3 4 -6 -2 -5 -13z"/>
<path d="M3600 559 c-12 -9 -12 -10 4 -5 10 4 26 1 35 -6 14 -12 14 -11 2 5
-16 20 -21 21 -41 6z"/>
<path d="M1751 551 c-10 -7 -7 -9 12 -8 14 1 23 5 20 10 -6 9 -15 9 -32 -2z"/>
<path d="M3031 551 c-10 -7 -7 -9 12 -8 14 1 23 5 20 10 -6 9 -15 9 -32 -2z"/>
<path d="M3390 556 c0 -2 8 -10 18 -17 15 -13 16 -12 3 4 -13 16 -21 21 -21
13z"/>
<path d="M1346 542 c-3 -5 1 -9 9 -9 8 0 12 4 9 9 -3 4 -7 8 -9 8 -2 0 -6 -4
-9 -8z"/>
<path d="M1470 538 c0 -4 4 -8 9 -8 6 0 12 4 15 8 3 5 -1 9 -9 9 -8 0 -15 -4
-15 -9z"/>
<path d="M1599 533 c-13 -16 -12 -17 4 -4 16 13 21 21 13 21 -2 0 -10 -8 -17
-17z"/>
<path d="M1871 533 c7 -12 15 -20 18 -17 3 2 -3 12 -13 22 -17 16 -18 16 -5
-5z"/>
<path d="M2111 533 c7 -12 15 -20 18 -17 3 2 -3 12 -13 22 -17 16 -18 16 -5
-5z"/>
<path d="M2220 546 c0 -2 8 -10 18 -17 15 -13 16 -12 3 4 -13 16 -21 21 -21
13z"/>
<path d="M2360 540 c-9 -6 -10 -10 -3 -10 6 0 15 5 18 10 8 12 4 12 -15 0z"/>
<path d="M2680 540 c-9 -6 -10 -10 -3 -10 6 0 15 5 18 10 8 12 4 12 -15 0z"/>
<path d="M2760 535 c-7 -9 -11 -17 -9 -20 3 -2 10 5 17 15 14 24 10 26 -8 5z"/>
<path d="M3149 537 c6 -8 7 -18 3 -22 -4 -5 -1 -5 6 -1 10 6 10 11 1 22 -6 8
-14 14 -16 14 -3 0 0 -6 6 -13z"/>
<path d="M3314 535 c3 -23 12 -26 13 -5 1 11 -2 20 -7 20 -4 0 -7 -7 -6 -15z"/>
<path d="M2054 515 c0 -13 3 -22 7 -19 8 4 6 30 -2 38 -3 3 -5 -5 -5 -19z"/>
<path d="M1654 516 c1 -8 5 -18 8 -22 4 -3 5 1 4 10 -1 8 -5 18 -8 22 -4 3 -5
-1 -4 -10z"/>
<path d="M1930 518 c0 -4 4 -8 9 -8 6 0 12 4 15 8 3 5 -1 9 -9 9 -8 0 -15 -4
-15 -9z"/>
<path d="M2390 519 c0 -5 5 -7 10 -4 6 3 10 8 10 11 0 2 -4 4 -10 4 -5 0 -10
-5 -10 -11z"/>
<path d="M2639 513 c-13 -16 -12 -17 4 -4 16 13 21 21 13 21 -2 0 -10 -8 -17
-17z"/>
<path d="M2716 518 c3 -5 10 -6 15 -3 13 9 11 12 -6 12 -8 0 -12 -4 -9 -9z"/>
<path d="M2939 528 c-5 -18 -6 -38 -1 -34 7 8 12 36 6 36 -2 0 -4 -1 -5 -2z"/>
<path d="M3119 513 c-13 -16 -12 -17 4 -4 16 13 21 21 13 21 -2 0 -10 -8 -17
-17z"/>
<path d="M3576 522 c-3 -5 1 -9 9 -9 8 0 12 4 9 9 -3 4 -7 8 -9 8 -2 0 -6 -4
-9 -8z"/>
<path d="M3610 526 c0 -2 7 -7 16 -10 8 -3 12 -2 9 4 -6 10 -25 14 -25 6z"/>
<path d="M2293 505 c0 -8 4 -12 9 -9 5 3 6 10 3 15 -9 13 -12 11 -12 -6z"/>
<path d="M1556 502 c-3 -5 1 -9 9 -9 8 0 12 4 9 9 -3 4 -7 8 -9 8 -2 0 -6 -4
-9 -8z"/>
<path d="M1805 500 c-3 -6 1 -7 9 -4 18 7 21 14 7 14 -6 0 -13 -4 -16 -10z"/>
<path d="M2086 502 c-3 -5 1 -9 9 -9 8 0 12 4 9 9 -3 4 -7 8 -9 8 -2 0 -6 -4
-9 -8z"/>
<path d="M2430 506 c0 -2 7 -7 16 -10 8 -3 12 -2 9 4 -6 10 -25 14 -25 6z"/>
<path d="M2590 506 c0 -2 7 -7 16 -10 8 -3 12 -2 9 4 -6 10 -25 14 -25 6z"/>
<path d="M2775 500 c3 -5 8 -10 11 -10 2 0 4 5 4 10 0 6 -5 10 -11 10 -5 0 -7
-4 -4 -10z"/>
<path d="M3070 506 c0 -2 7 -7 16 -10 8 -3 12 -2 9 4 -6 10 -25 14 -25 6z"/>
<path d="M3245 500 c-3 -6 1 -7 9 -4 18 7 21 14 7 14 -6 0 -13 -4 -16 -10z"/>
<path d="M3350 505 c0 -7 30 -13 34 -7 3 4 -4 9 -15 9 -10 1 -19 0 -19 -2z"/>
<path d="M3476 502 c-3 -5 1 -9 9 -9 8 0 12 4 9 9 -3 4 -7 8 -9 8 -2 0 -6 -4
-9 -8z"/>
<path d="M2556 487 c3 -10 9 -15 12 -12 3 3 0 11 -7 18 -10 9 -11 8 -5 -6z"/>
<path d="M2373 475 c0 -8 4 -12 9 -9 5 3 6 10 3 15 -9 13 -12 11 -12 -6z"/>
<path d="M3013 475 c0 -8 4 -12 9 -9 5 3 6 10 3 15 -9 13 -12 11 -12 -6z"/>
</g>
</svg>
