<svg width="186" height="182" viewBox="0 0 186 182" fill="none" xmlns="http://www.w3.org/2000/svg">
<ellipse cx="93" cy="89" rx="93" ry="89" fill="#C4C4C4"/>
<path d="M82.9119 115.318V114.679C82.983 107.896 83.6932 102.499 85.0426 98.4858C86.392 94.473 88.3097 91.2237 90.7955 88.7379C93.2812 86.2521 96.2642 83.9616 99.7443 81.8665C101.839 80.5881 103.722 79.0788 105.391 77.3388C107.06 75.5632 108.374 73.5213 109.332 71.2131C110.327 68.9048 110.824 66.348 110.824 63.5426C110.824 60.0625 110.007 57.044 108.374 54.4872C106.74 51.9304 104.556 49.9595 101.822 48.5746C99.0874 47.1896 96.0511 46.4972 92.7131 46.4972C89.8011 46.4972 86.9957 47.1008 84.2969 48.3082C81.598 49.5156 79.343 51.4155 77.532 54.0078C75.7209 56.6001 74.6733 59.9915 74.3892 64.1818H60.9659C61.25 58.1449 62.8125 52.978 65.6534 48.6811C68.5298 44.3842 72.3118 41.0994 76.9993 38.8267C81.7223 36.554 86.9602 35.4176 92.7131 35.4176C98.9631 35.4176 104.396 36.6605 109.013 39.1463C113.665 41.6321 117.251 45.0412 119.773 49.3736C122.33 53.706 123.608 58.642 123.608 64.1818C123.608 68.0881 123.004 71.6214 121.797 74.782C120.625 77.9425 118.92 80.7656 116.683 83.2514C114.482 85.7372 111.818 87.9389 108.693 89.8565C105.568 91.8097 103.065 93.8693 101.183 96.0355C99.3004 98.1662 97.9332 100.705 97.081 103.653C96.2287 106.6 95.767 110.276 95.696 114.679V115.318H82.9119ZM89.7301 146.852C87.1023 146.852 84.8473 145.911 82.9652 144.029C81.0831 142.147 80.142 139.892 80.142 137.264C80.142 134.636 81.0831 132.381 82.9652 130.499C84.8473 128.617 87.1023 127.676 89.7301 127.676C92.358 127.676 94.6129 128.617 96.495 130.499C98.3771 132.381 99.3182 134.636 99.3182 137.264C99.3182 139.004 98.8743 140.602 97.9865 142.058C97.1342 143.514 95.9801 144.686 94.5241 145.574C93.1037 146.426 91.5057 146.852 89.7301 146.852Z" fill="#4A4A4A"/>
</svg>
