<svg width="30" height="30" viewBox="0 0 30 30" fill="none" xmlns="http://www.w3.org/2000/svg">
<g clip-path="url(#clip0_446_270)">
<path d="M25.8944 12.6998C25.9523 12.6165 25.991 12.5188 25.9856 12.4106C25.9675 12.0765 25.9346 11.7419 25.8865 11.4158C25.8478 11.154 25.5995 10.9725 25.3312 11.0094C25.0629 11.0472 24.8765 11.2895 24.9147 11.5513C24.9589 11.8491 24.9888 12.155 25.0055 12.4609C25.0109 12.56 25.0536 12.6457 25.1109 12.7194C25.057 12.796 25.0187 12.8836 25.0187 12.9832C25.0187 18.5265 20.3971 23.0366 14.7169 23.0366C9.46785 23.0366 5.13127 19.1828 4.50187 14.2236L7.0116 16.6728C7.10726 16.7662 7.23284 16.8131 7.35843 16.8131C7.48401 16.8131 7.60959 16.7662 7.70525 16.6728C7.89706 16.4856 7.89706 16.1831 7.70525 15.9959L4.42387 12.7936C4.42878 12.5519 4.43516 12.3087 4.45723 12.0707C4.48176 11.8074 4.28308 11.5748 4.01278 11.5508C3.74935 11.5245 3.50456 11.7213 3.48003 11.9846C3.45599 12.2455 3.44863 12.5107 3.44373 12.7754L0.143705 15.9959C-0.0481052 16.1831 -0.0481052 16.4856 0.143705 16.6728C0.239365 16.7662 0.364949 16.8131 0.490534 16.8131C0.616118 16.8131 0.741702 16.7662 0.837362 16.6728L3.49033 14.0838C4.05791 19.6405 8.87574 23.9941 14.7169 23.9941C20.9387 23.9941 25.9998 19.055 25.9998 12.9832C25.9998 12.875 25.9562 12.7802 25.8944 12.6998Z" fill="black"/>
<path d="M18.1287 3.49425C18.4192 3.59383 18.7115 3.70872 18.9975 3.83607C19.0638 3.86575 19.1324 3.87915 19.2006 3.87915C19.387 3.87915 19.5651 3.77527 19.6475 3.59909C19.7599 3.35829 19.651 3.0744 19.4047 2.96477C19.0912 2.82546 18.7714 2.69955 18.454 2.59136C18.1984 2.50184 17.9183 2.6354 17.829 2.88434C17.7387 3.13376 17.8732 3.40664 18.1287 3.49425Z" fill="black"/>
<path d="M15.3855 2.95071C15.6955 2.96986 16.0085 3.00337 16.3161 3.05028C16.3416 3.05411 16.3671 3.05603 16.3917 3.05603C16.6291 3.05603 16.8381 2.88704 16.8758 2.65054C16.9175 2.38915 16.7341 2.14452 16.4662 2.10383C16.1292 2.05308 15.7868 2.01574 15.4473 1.99468C15.1814 1.97984 14.944 2.17803 14.9263 2.44229C14.9102 2.70608 15.1152 2.93395 15.3855 2.95071Z" fill="black"/>
<path d="M21.3611 5.29943C21.4533 5.37555 21.5656 5.41241 21.6775 5.41241C21.8173 5.41241 21.9556 5.35449 22.0528 5.24294C22.2274 5.04044 22.2019 4.73836 21.9949 4.56841C21.7339 4.35346 21.4607 4.14808 21.183 3.9585C20.9613 3.80674 20.6552 3.8594 20.4996 4.07627C20.3446 4.29266 20.3981 4.59139 20.6203 4.74315C20.8735 4.91549 21.1232 5.10315 21.3611 5.29943Z" fill="black"/>
<path d="M23.2375 7.33018C23.3321 7.46614 23.4867 7.53938 23.6432 7.53938C23.7378 7.53938 23.8345 7.5121 23.9193 7.45608C24.143 7.3072 24.2009 7.00943 24.0484 6.79065C23.8575 6.51729 23.6505 6.24824 23.4337 5.99068C23.261 5.78626 22.9529 5.75754 22.743 5.9251C22.534 6.09361 22.5041 6.39473 22.6758 6.59915C22.874 6.83469 23.0633 7.08028 23.2375 7.33018Z" fill="black"/>
<path d="M24.145 8.92529C24.2706 9.20247 24.3844 9.48875 24.483 9.77552C24.5522 9.97563 24.743 10.102 24.9481 10.102C24.9996 10.102 25.0526 10.0939 25.1041 10.0771C25.3607 9.99286 25.4995 9.72142 25.4131 9.47056C25.3042 9.15556 25.1796 8.84199 25.0423 8.53799C24.9324 8.29671 24.6449 8.18804 24.3952 8.29336C24.148 8.40107 24.0356 8.68353 24.145 8.92529Z" fill="black"/>
<path d="M9.7303 4.11871C9.80683 4.11871 9.88434 4.10147 9.95694 4.06461C10.2317 3.92434 10.5172 3.79508 10.8051 3.67923C11.0558 3.5787 11.1755 3.29912 11.0725 3.05448C10.97 2.80937 10.6815 2.6916 10.4323 2.79357C10.1164 2.91996 9.80389 3.06214 9.50268 3.21534C9.2628 3.33789 9.16959 3.62705 9.29468 3.86163C9.38249 4.02535 9.5537 4.11871 9.7303 4.11871Z" fill="black"/>
<path d="M5.23329 7.92922C5.31277 7.97661 5.40107 7.99911 5.4879 7.99911C5.65371 7.99911 5.8151 7.91725 5.90733 7.76932C6.06921 7.50937 6.24484 7.25468 6.42929 7.01149C6.59019 6.79893 6.54457 6.49924 6.32725 6.34174C6.10944 6.18423 5.80235 6.22971 5.64095 6.44131C5.43884 6.70797 5.24605 6.98755 5.06896 7.27192C4.92816 7.4974 5.00175 7.79182 5.23329 7.92922Z" fill="black"/>
<path d="M12.4902 3.15418C12.5236 3.15418 12.5574 3.15082 12.5913 3.14412C12.8944 3.08237 13.2055 3.03306 13.5155 2.99715C13.7848 2.96651 13.9771 2.72858 13.9457 2.46624C13.9148 2.20437 13.673 2.01623 13.4017 2.04639C13.0627 2.08516 12.7218 2.13926 12.3901 2.20724C12.1247 2.26134 11.955 2.51555 12.0109 2.77406C12.059 2.99907 12.2631 3.15418 12.4902 3.15418Z" fill="black"/>
<path d="M4.1889 10.6076C4.23305 10.6196 4.27769 10.6254 4.32135 10.6254C4.53622 10.6254 4.73293 10.487 4.79327 10.2754C4.87667 9.98338 4.97527 9.69135 5.08614 9.40842C5.18229 9.16139 5.05573 8.88468 4.80259 8.79037C4.55094 8.69654 4.26592 8.82053 4.16928 9.06708C4.04811 9.3773 3.93969 9.69757 3.84894 10.0178C3.77535 10.273 3.92841 10.5373 4.1889 10.6076Z" fill="black"/>
<path d="M7.33732 5.77622C7.45751 5.77622 7.57819 5.73314 7.67287 5.64649C7.89951 5.4392 8.13841 5.23956 8.38418 5.05238C8.59807 4.88961 8.63584 4.58897 8.46905 4.38072C8.30226 4.17151 7.99419 4.13465 7.78079 4.2979C7.51147 4.50279 7.24951 4.72157 7.00227 4.94802C6.80457 5.12898 6.79427 5.43201 6.9797 5.62447C7.07634 5.72548 7.20634 5.77622 7.33732 5.77622Z" fill="black"/>
</g>
<defs>
<clipPath id="clip0_446_270">
<rect width="30" height="30" fill="white"/>
</clipPath>
</defs>
</svg>
