<svg width="24" height="24" viewBox="0 0 24 24" fill="none" xmlns="http://www.w3.org/2000/svg">
<path d="M11.6264 5.69478L12.976 7.40203L10.5338 8.80143L9.1437 7.04366L7.18097 7.99305L5.96516 6.45735L7.93089 5.50679L9.1467 7.04131L11.6264 5.69478ZM11.7496 10.336L10.5368 8.80143L8.57111 9.75082L9.78391 11.2853L11.7496 10.336ZM23 7.00959L22.7836 7.37618C22.3928 9.0564 21.0613 10.182 20.0709 10.6603C17.9279 11.6954 15.7082 11.075 15.6165 11.0492C14.1768 10.8107 12.8903 10.9469 11.8293 11.4604C9.86356 12.411 9.303 14.3591 9.29849 14.3814L9.16774 14.8596L14.9868 22.6138L13.8897 23L1.8248 7.78508C1.5588 7.86732 1.24771 7.79917 1.09141 7.60178C0.914074 7.37736 1.00274 7.08596 1.28828 6.94731L2.33126 6.44442C2.6138 6.30577 2.98951 6.3751 3.16685 6.59952C3.31413 6.78634 3.26754 7.01546 3.08269 7.16938L3.4569 7.64408L3.46592 7.6288C4.28047 6.0837 5.31743 4.99919 6.54677 4.407C8.777 3.32955 10.8149 4.22606 10.9005 4.26483C12.6438 5.05912 13.8852 4.80297 14.6186 4.44813C14.9327 4.29538 15.098 4.14733 15.098 4.14733C16.8203 2.96648 17.5131 1.62935 17.8182 1.14056C18.1217 0.652941 18.6643 1.59058 18.6643 1.59058L23 7.00959ZM17.5627 2.42011L17.8768 2.81726L18.6477 2.34726L18.0316 1.56943C17.9053 1.76565 17.7911 2.12284 17.5627 2.42011ZM9.13618 13.4544L8.78301 13.6259L8.94983 13.8339C8.99792 13.7246 9.06254 13.5918 9.13618 13.4544ZM15.5218 10.6203L15.2513 10.2784L14.9868 10.558C15.1626 10.5733 15.343 10.5921 15.5218 10.6203ZM17.4259 9.59102L16.3634 8.24919L18.517 7.06246L17.3012 5.52794L15.1506 6.71702L13.8897 5.12492C13.6372 5.17192 13.3547 5.20012 13.0436 5.19777L11.6279 5.69596L10.8494 4.71602C10.7773 4.6843 10.7067 4.6561 10.633 4.6232C10.609 4.61263 10.4211 4.53038 10.113 4.45048L7.93089 5.50679L7.20652 4.59618C7.08178 4.642 6.95404 4.69722 6.8248 4.7595C6.32134 5.00272 5.85545 5.34346 5.42113 5.76998L5.96366 6.45852L4.23989 7.29041C4.16174 7.42083 4.08509 7.55008 4.00995 7.68873L5.07247 9.01175L7.18097 7.99305L8.57111 9.75082L6.48064 10.7613L7.70847 12.2888L9.78391 11.2853L10.3114 11.9492C10.6526 11.639 11.0583 11.3453 11.5513 11.1056C11.7496 11.0116 11.9555 10.9328 12.1644 10.8588L11.7496 10.336L14.2023 8.95301L12.976 7.40203L15.1476 6.71702L16.3604 8.25037L14.2038 8.95301L15.2092 10.2232L17.4259 9.59102ZM22.2185 6.81689L22.187 6.77694L21.4325 7.31273L20.3835 5.9897L21.174 5.50914L19.8651 3.87121L19.1677 4.454L17.8783 2.82078L16.7406 3.37067C16.5407 3.57747 16.3183 3.78074 16.0824 3.98049L17.3027 5.52559L19.1707 4.45283L20.3835 5.9897L18.5185 7.06129L19.581 8.40311L17.483 9.66269L18.3487 10.7554C18.8176 10.6791 19.309 10.5416 19.7929 10.3078C20.101 10.1585 20.3895 9.97641 20.6586 9.76609L19.581 8.40311L21.4325 7.31273L22.0487 8.09174L22.2185 6.81689Z" fill="#030104"/>
</svg>
