<svg width="24" height="24" viewBox="0 0 24 24" fill="none" xmlns="http://www.w3.org/2000/svg">
<g clip-path="url(#clip0_470_2)">
<path d="M21.3264 17.9816C22.4693 17.9816 23.396 17.0064 23.396 15.803C23.396 14.5996 22.4693 13.6238 21.3264 13.6238C20.1837 13.6238 19.257 14.5996 19.257 15.803C19.257 17.0064 20.1837 17.9816 21.3264 17.9816Z" fill="#943E5E"/>
<path d="M23.9764 20.0816C23.8842 19.4981 23.4261 18.6815 23.0794 18.3167C23.0337 18.2684 22.8296 18.2572 22.7745 18.2932C22.353 18.5661 21.8578 18.7268 21.3264 18.7268C20.7956 18.7268 20.3004 18.5661 19.8788 18.2932C19.8235 18.2572 19.6196 18.2684 19.574 18.3167C19.477 18.4188 19.3713 18.5546 19.2682 18.7122C19.5471 19.2652 19.7684 19.8527 19.8482 20.3585C19.928 20.8657 19.9021 21.3458 19.7731 21.7835C20.2314 21.9581 20.7811 22.0347 21.3264 22.0347C22.7486 22.0347 24.2041 21.5155 23.9764 20.0816Z" fill="#943E5E"/>
<path d="M14.9468 17.0624C16.7991 17.0624 18.3008 15.4812 18.3008 13.5309C18.3008 11.5812 16.7991 10 14.9468 10C13.0949 10 11.5937 11.5812 11.5937 13.5309C11.5937 15.4812 13.0948 17.0624 14.9468 17.0624Z" fill="#943E5E"/>
<path d="M17.7868 17.6032C17.714 17.5269 17.3835 17.5074 17.2937 17.5659C16.61 18.0089 15.8076 18.2682 14.9468 18.2682C14.0867 18.2682 13.2839 18.0089 12.6006 17.5659C12.5107 17.5073 12.1802 17.5269 12.1075 17.6032C11.5442 18.1956 10.8019 19.52 10.6526 20.4641C10.2843 22.7898 12.6436 23.6294 14.9468 23.6294C17.2507 23.6294 19.6099 22.7898 19.2417 20.4641C19.0923 19.52 18.35 18.1956 17.7868 17.6032Z" fill="#943E5E"/>
<path d="M8.67363 17.9816C9.81627 17.9816 10.743 17.0064 10.743 15.803C10.743 14.5996 9.81627 13.6238 8.67363 13.6238C7.53066 13.6238 6.60394 14.5996 6.60394 15.803C6.60394 17.0064 7.53066 17.9816 8.67363 17.9816Z" fill="#943E5E"/>
<path d="M10.0463 20.3585C10.1312 19.8272 10.3706 19.2016 10.6708 18.6232C10.5871 18.5028 10.5035 18.398 10.4263 18.3167C10.3806 18.2684 10.1768 18.2572 10.1214 18.2932C9.69986 18.5661 9.20468 18.7268 8.67361 18.7268C8.14247 18.7268 7.64698 18.5661 7.22577 18.2932C7.17065 18.2572 6.96625 18.2684 6.92058 18.3167C6.57299 18.6815 6.11614 19.4981 6.02361 20.0816C5.79622 21.5155 7.2514 22.0347 8.67361 22.0347C9.18116 22.0347 9.69371 21.9689 10.1312 21.8185C9.99331 21.3719 9.96413 20.8805 10.0463 20.3585Z" fill="#943E5E"/>
<path d="M13.8185 3.95297C13.6955 3.79133 10.7568 0 7.00007 0C3.2432 0 0.304597 3.79133 0.181343 3.95313C-0.0604715 4.27006 -0.0604715 4.72994 0.181486 5.04719C0.304597 5.20882 3.2432 9 7.00007 9C10.7568 9 13.6955 5.20851 13.8187 5.04687C14.0605 4.72994 14.0605 4.27006 13.8185 3.95297ZM8.14759 2.27749C8.40021 2.12378 8.75248 2.30015 8.93431 2.67129C9.11613 3.04257 9.0587 3.46822 8.80608 3.62193C8.5536 3.7758 8.20118 3.59927 8.01922 3.22814C7.83754 2.85685 7.89483 2.43121 8.14759 2.27749ZM7.00007 7.6264C4.37579 7.6264 2.16733 5.37981 1.40293 4.5C1.91911 3.90575 3.09435 2.68888 4.61106 1.96119C4.31523 2.4629 4.14179 3.06238 4.14179 3.70766C4.14179 5.46729 5.42138 6.89365 6.99993 6.89365C8.57848 6.89365 9.85821 5.46729 9.85821 3.70766C9.85821 3.06238 9.68491 2.4629 9.38908 1.96119C10.9058 2.68903 12.0809 3.90575 12.5971 4.5C11.8327 5.38029 9.62421 7.6264 7.00007 7.6264Z" fill="black"/>
</g>
<defs>
<clipPath id="clip0_470_2">
<rect width="24" height="24" fill="white"/>
</clipPath>
</defs>
</svg>
