<svg width="26" height="22" viewBox="0 0 26 22" fill="none" xmlns="http://www.w3.org/2000/svg">
  <path fill-rule="evenodd" clip-rule="evenodd"
    d="M24.9167 3.66675C24.9167 2.14797 23.4617 0.916748 21.6667 0.916748H4.33337C2.53845 0.916748 1.08337 2.14797 1.08337 3.66675V18.3334C1.08337 19.8522 2.53845 21.0834 4.33337 21.0834H21.6667C23.4617 21.0834 24.9167 19.8522 24.9167 18.3334V3.66675ZM22.75 3.66675C22.75 3.16049 22.265 2.75008 21.6667 2.75008H4.33337C3.73507 2.75008 3.25004 3.16049 3.25004 3.66675V18.3334C3.25004 18.8397 3.73507 19.2501 4.33337 19.2501H21.6667C22.265 19.2501 22.75 18.8397 22.75 18.3334V3.66675Z"
    fill="gray" />
  <path
    d="M5.20718 16.0611L9.88225 8.80877C10.2929 8.17182 11.3738 8.17182 11.7844 8.80877L15.217 14.1338L16.3928 12.3929C16.8086 11.7771 17.858 11.7771 18.2739 12.3929L20.7405 16.0453C21.1531 16.6564 20.6316 17.4168 19.7998 17.4168H6.15822C5.33591 17.4168 4.81341 16.672 5.20718 16.0611Z"
    fill="gray" />
  <path
    d="M19.5 7.33333C19.5 8.34586 18.5299 9.16667 17.3333 9.16667C16.1366 9.16667 15.1666 8.34586 15.1666 7.33333C15.1666 6.32081 16.1366 5.5 17.3333 5.5C18.5299 5.5 19.5 6.32081 19.5 7.33333Z"
    fill="gray" />
</svg>