<svg width="87" height="83" viewBox="0 0 87 83" fill="none" xmlns="http://www.w3.org/2000/svg">
<path d="M0 0H87V83H0V0Z" fill="#D9D9D9"/>
<path d="M42.0086 21.7812V36H39.3133L33.2684 26.1367V36H30.5829V21.7812H33.2684L39.3329 31.6543V21.7812H42.0086Z" fill="black"/>
<path d="M57.8567 28.5293V29.2617C57.8567 30.3359 57.7135 31.3027 57.427 32.1621C57.1405 33.015 56.7336 33.7409 56.2063 34.3398C55.679 34.9388 55.0507 35.3978 54.3215 35.7168C53.5924 36.0358 52.7818 36.1953 51.8899 36.1953C51.011 36.1953 50.2037 36.0358 49.468 35.7168C48.7389 35.3978 48.1073 34.9388 47.5735 34.3398C47.0396 33.7409 46.6262 33.015 46.3333 32.1621C46.0403 31.3027 45.8938 30.3359 45.8938 29.2617V28.5293C45.8938 27.4486 46.0403 26.4818 46.3333 25.6289C46.6262 24.776 47.0364 24.0501 47.5637 23.4512C48.0911 22.8457 48.7193 22.3835 49.4485 22.0645C50.1842 21.7454 50.9915 21.5859 51.8704 21.5859C52.7623 21.5859 53.5728 21.7454 54.302 22.0645C55.0312 22.3835 55.6594 22.8457 56.1868 23.4512C56.7206 24.0501 57.1308 24.776 57.4172 25.6289C57.7102 26.4818 57.8567 27.4486 57.8567 28.5293ZM55.1418 29.2617V28.5098C55.1418 27.735 55.0702 27.0547 54.927 26.4688C54.7838 25.8763 54.5722 25.3783 54.2922 24.9746C54.0123 24.571 53.6672 24.2682 53.2571 24.0664C52.8469 23.8581 52.3847 23.7539 51.8704 23.7539C51.3495 23.7539 50.8873 23.8581 50.4836 24.0664C50.0865 24.2682 49.748 24.571 49.468 24.9746C49.1881 25.3783 48.9732 25.8763 48.8235 26.4688C48.6803 27.0547 48.6086 27.735 48.6086 28.5098V29.2617C48.6086 30.0299 48.6803 30.7103 48.8235 31.3027C48.9732 31.8952 49.1881 32.3965 49.468 32.8066C49.7545 33.2103 50.0995 33.5163 50.5032 33.7246C50.9068 33.9329 51.3691 34.0371 51.8899 34.0371C52.4107 34.0371 52.873 33.9329 53.2766 33.7246C53.6803 33.5163 54.0188 33.2103 54.2922 32.8066C54.5722 32.3965 54.7838 31.8952 54.927 31.3027C55.0702 30.7103 55.1418 30.0299 55.1418 29.2617Z" fill="black"/>
<path d="M14.2473 44.7812V59H11.5618V44.7812H14.2473Z" fill="black"/>
<path d="M19.9196 44.7812H22.2438L26.1305 55.4844L30.0075 44.7812H32.3415L27.0583 59H25.193L19.9196 44.7812ZM18.7477 44.7812H21.0231L21.4333 54.6152V59H18.7477V44.7812ZM31.2282 44.7812H33.5133V59H30.8278V54.6152L31.2282 44.7812Z" fill="black"/>
<path d="M43.6778 46.9395L39.625 59H36.7833L42.0958 44.7812H43.9122L43.6778 46.9395ZM47.0665 59L42.9942 46.9395L42.75 44.7812H44.5762L49.918 59H47.0665ZM46.8809 53.7168V55.8359H39.254V53.7168H46.8809Z" fill="black"/>
<path d="M63.9008 51.6465V57.1836C63.6925 57.4505 63.3637 57.7402 62.9145 58.0527C62.4718 58.3652 61.8924 58.6354 61.1762 58.8633C60.4601 59.0846 59.5812 59.1953 58.5395 59.1953C57.6346 59.1953 56.8077 59.0456 56.059 58.7461C55.3103 58.4401 54.6658 57.9941 54.1254 57.4082C53.5851 56.8223 53.1684 56.1061 52.8754 55.2598C52.5825 54.4134 52.436 53.4466 52.436 52.3594V51.4219C52.436 50.3346 52.5727 49.3678 52.8461 48.5215C53.1261 47.6751 53.5232 46.959 54.0375 46.373C54.5584 45.7871 55.1801 45.3411 55.9028 45.0352C56.6319 44.7292 57.4458 44.5762 58.3442 44.5762C59.5486 44.5762 60.5382 44.7747 61.3129 45.1719C62.0942 45.569 62.6931 46.1159 63.1098 46.8125C63.5265 47.5026 63.7869 48.2969 63.8911 49.1953H61.2739C61.2023 48.7005 61.059 48.2676 60.8442 47.8965C60.6293 47.5189 60.3234 47.2259 59.9262 47.0176C59.5356 46.8027 59.0278 46.6953 58.4028 46.6953C57.8754 46.6953 57.4099 46.7995 57.0063 47.0078C56.6027 47.2161 56.2641 47.5189 55.9907 47.916C55.7172 48.3132 55.5089 48.8047 55.3657 49.3906C55.229 49.9766 55.1606 50.6471 55.1606 51.4023V52.3594C55.1606 53.1211 55.2387 53.7982 55.395 54.3906C55.5512 54.9766 55.7758 55.4714 56.0688 55.875C56.3683 56.2721 56.7361 56.5749 57.1723 56.7832C57.615 56.985 58.1163 57.0859 58.6762 57.0859C59.184 57.0859 59.604 57.0436 59.936 56.959C60.2745 56.8678 60.5447 56.7604 60.7465 56.6367C60.9484 56.513 61.1046 56.3926 61.2153 56.2754V53.6094H58.393V51.6465H63.9008Z" fill="black"/>
<path d="M77.4637 56.8906V59H69.9051V56.8906H77.4637ZM70.7254 44.7812V59H68.0399V44.7812H70.7254ZM76.4774 50.6504V52.7109H69.9051V50.6504H76.4774ZM77.4344 44.7812V46.9004H69.9051V44.7812H77.4344Z" fill="black"/>
</svg>
