<svg width="24" height="24" viewBox="0 0 24 24" fill="none" xmlns="http://www.w3.org/2000/svg">
<path fill-rule="evenodd" clip-rule="evenodd" d="M12 1L2 4.75262V10.9302C2 16.4823 6.26309 21.6833 12 23C17.7369 21.7382 22 16.5372 22 10.985V4.75262L12 1ZM12 5.1586C12.7411 5.15876 13.4592 5.3904 14.032 5.81406C14.6048 6.23772 14.9968 6.82718 15.1412 7.48202C15.2857 8.13685 15.1736 8.81654 14.8241 9.40527C14.4746 9.99401 13.9093 10.4554 13.2245 10.7107C12.5398 10.9661 11.7779 10.9997 11.0688 10.8058C10.3596 10.6118 9.74701 10.2024 9.33538 9.64721C8.92375 9.09202 8.73855 8.42544 8.81132 7.76103C8.88409 7.09662 9.21034 6.4755 9.73447 6.00349C10.032 5.73554 10.3852 5.52302 10.7739 5.37805C11.1627 5.23308 11.5793 5.15851 12 5.1586ZM17.0061 17.393C15.7298 18.8897 13.9867 20.0091 12 20.608C10.0133 20.0091 8.27018 18.8897 6.99391 17.393V14.9242C6.99391 13.0918 10.3313 12.1591 12 12.1591C13.6687 12.1591 17.0061 13.0918 17.0061 14.9242V17.393Z" fill="#FFA550"/>
<path fill-rule="evenodd" clip-rule="evenodd" d="M12 1V5.1586C12.8496 5.1586 13.6644 5.46264 14.2651 6.00383C14.8659 6.54502 15.2034 7.27903 15.2034 8.04439C15.2034 8.80975 14.8659 9.54376 14.2651 10.0849C13.6644 10.6261 12.8496 10.9302 12 10.9302V12.1591C13.6687 12.1591 17.0061 13.0918 17.0061 14.9242V17.393C15.7298 18.8897 13.9867 20.0091 12 20.608V22.9451C17.7369 21.6833 22 16.4823 22 10.9302V4.75262L12 1Z" fill="#FF7C00"/>
</svg>
