<svg width="24" height="24" viewBox="0 0 24 24" fill="none" xmlns="http://www.w3.org/2000/svg">
<path d="M24 14.5279V10.4162C24 9.89848 23.6046 9.50254 23.0875 9.50254H21.7795C21.5361 8.58883 21.1711 7.67513 20.6844 6.91371L21.597 6C21.962 5.63452 21.962 5.05584 21.597 4.72081L19.3156 2.40609C18.9506 2.04061 18.3726 2.04061 18.0076 2.40609L17.0951 3.3198C16.2738 2.83249 15.4221 2.46701 14.5095 2.22335V0.913705C14.5095 0.395939 14.1141 0 13.597 0H10.403C9.88593 0 9.4905 0.395939 9.4905 0.913705V2.22335C8.57795 2.46701 7.6654 2.83249 6.90494 3.3198L5.96198 2.37563C5.59696 2.01015 5.01901 2.04061 4.68441 2.37563L2.40304 4.6599C2.03802 5.02538 2.03802 5.60406 2.40304 5.93909L3.31559 6.85279C2.8289 7.67513 2.46388 8.52792 2.22053 9.44163H0.912547C0.395437 9.44163 0 9.83756 0 10.3553V13.5838C0 14.1015 0.395437 14.4975 0.912547 14.4975H2.22053C2.46388 15.4112 2.8289 16.3249 3.31559 17.0863L2.37262 18.0305C2.0076 18.3959 2.03802 18.9746 2.37262 19.3096L4.65399 21.5939C5.01901 21.9594 5.59696 21.9594 5.93156 21.5939L6.84411 20.6802C7.6654 21.1675 8.51711 21.533 9.42966 21.7767V23.0863C9.42966 23.6041 9.8251 24 10.3422 24H13.5665C14.0837 24 14.4791 23.6041 14.4791 23.0863V21.7767C15.3916 21.533 16.3042 21.1675 17.0646 20.6802L17.9772 21.5939C18.3422 21.9594 18.9202 21.9594 19.2548 21.5939L21.5665 19.3096C21.9316 18.9442 21.9316 18.3655 21.5665 18L20.654 17.0863C21.1407 16.264 21.5057 15.4112 21.7491 14.4975L24 14.5279ZM12.0152 20.6802C8.42586 20.6802 5.53612 15.6244 5.53612 12.0305C5.53612 8.43655 8.42586 3.3198 12.0152 3.3198C15.6046 3.3198 18.4943 8.43655 18.4943 12.0305C18.4943 15.6244 15.5741 20.6802 12.0152 20.6802Z" fill="#CECECE"/>
<path d="M16.5 11.7273V12.2807C16.5 13.1684 16.3911 13.9652 16.1734 14.6711C15.9556 15.377 15.6484 15.9786 15.2516 16.4759C14.8548 16.9679 14.3806 17.3449 13.829 17.607C13.2823 17.869 12.675 18 12.0073 18C11.3444 18 10.7371 17.869 10.1855 17.607C9.63871 17.3449 9.16452 16.9679 8.7629 16.4759C8.36129 15.9786 8.04919 15.377 7.82661 14.6711C7.60887 13.9652 7.5 13.1684 7.5 12.2807V11.7273C7.5 10.8342 7.60887 10.0374 7.82661 9.3369C8.04435 8.63102 8.35161 8.02941 8.74839 7.53209C9.15 7.03476 9.62419 6.65508 10.171 6.39305C10.7226 6.13102 11.3298 6 11.9927 6C12.6605 6 13.2677 6.13102 13.8145 6.39305C14.3661 6.65508 14.8403 7.03476 15.2371 7.53209C15.6387 8.02941 15.9484 8.63102 16.1661 9.3369C16.3887 10.0374 16.5 10.8342 16.5 11.7273ZM14.3008 12.2807V11.7112C14.3008 11.0909 14.25 10.5455 14.1484 10.0749C14.0468 9.60428 13.8968 9.20856 13.6984 8.8877C13.5 8.56684 13.2581 8.3262 12.9726 8.16578C12.6871 8 12.3605 7.91711 11.9927 7.91711C11.625 7.91711 11.2984 8 11.0129 8.16578C10.7323 8.3262 10.4927 8.56684 10.2944 8.8877C10.1008 9.20856 9.95323 9.60428 9.85161 10.0749C9.75 10.5455 9.69919 11.0909 9.69919 11.7112V12.2807C9.69919 12.8957 9.75 13.4412 9.85161 13.9171C9.95323 14.3877 10.1032 14.7861 10.3016 15.1123C10.5 15.4332 10.7419 15.6765 11.0274 15.8422C11.3129 16.008 11.6395 16.0909 12.0073 16.0909C12.375 16.0909 12.7016 16.008 12.9871 15.8422C13.2726 15.6765 13.5121 15.4332 13.7056 15.1123C13.8992 14.7861 14.0468 14.3877 14.1484 13.9171C14.25 13.4412 14.3008 12.8957 14.3008 12.2807Z" fill="#CECECE"/>
</svg>
