<svg width="24" height="24" viewBox="0 0 24 24" fill="none" xmlns="http://www.w3.org/2000/svg">
<g clip-path="url(#clip0_1042_6)">
<path d="M18.8348 9.962C18.2584 9.90715 17.6837 10.0976 17.2579 10.4847C17.2054 10.5325 17.1555 10.5829 17.1085 10.6354C16.7895 10.0399 16.2025 9.61268 15.5173 9.54729C14.941 9.49245 14.3662 9.68286 13.9405 10.0699C13.8879 10.1178 13.838 10.1682 13.791 10.2207C13.5125 9.70095 13.0298 9.30936 12.4558 9.17473C13.4506 8.18577 14.0476 6.82161 14.0476 5.36497C14.0475 2.40675 11.6408 0 8.68251 0C5.72423 0 3.31754 2.40675 3.31754 5.36502C3.31754 7.53542 4.64194 9.50145 6.63501 10.3252V12.6293L5.14116 13.6964C4.25606 14.3286 3.8925 15.4467 4.23647 16.4785L5.7098 20.8987C6.32822 22.7537 8.05739 24 10.0127 24H16.1469C18.6478 24 20.6825 21.9654 20.6825 19.4644V12.0713C20.6825 10.9873 19.8709 10.0609 18.8348 9.962ZM4.09505 5.36502C4.09505 2.83551 6.153 0.777561 8.68251 0.777561C11.212 0.777561 13.27 2.83551 13.27 5.36502C13.27 7.11102 12.2677 8.70209 10.73 9.47098V8.45445C11.7585 7.77106 12.3888 6.60758 12.3888 5.36502C12.3888 3.32142 10.7261 1.65876 8.68251 1.65876C6.6389 1.65876 4.97625 3.32142 4.97625 5.36502C4.97625 6.60749 5.60653 7.77102 6.63501 8.45445V9.47098C5.09742 8.70209 4.09505 7.11097 4.09505 5.36502ZM8.88229 3.32709C8.30592 3.27215 7.73123 3.46256 7.30551 3.8497C6.87942 4.23712 6.63501 4.78944 6.63501 5.36502V7.4577C6.08006 6.91274 5.75381 6.15932 5.75381 5.36502C5.75381 3.75013 7.06762 2.43632 8.68251 2.43632C10.2974 2.43632 11.6112 3.75013 11.6112 5.36502C11.6112 6.15941 11.285 6.91278 10.73 7.45775V5.43636C10.7301 4.35234 9.91846 3.42581 8.88229 3.32709ZM16.1469 23.2224H10.0127C8.39249 23.2224 6.95976 22.1898 6.44742 20.6528L4.97409 16.2327C4.73869 15.5267 4.98745 14.7617 5.59308 14.3291L6.63501 13.5849V16.9764C6.63501 17.191 6.80901 17.3651 7.02379 17.3651C7.23853 17.3651 7.41257 17.1911 7.41257 16.9764V5.36502C7.41257 5.00797 7.56421 4.66532 7.82854 4.42504C8.09648 4.18143 8.44476 4.06635 8.80851 4.10113C9.45004 4.16226 9.95254 4.74876 9.95254 5.43632V13.6588C9.95254 13.8735 10.1265 14.0476 10.3413 14.0476C10.5561 14.0476 10.7301 13.8735 10.7301 13.6588V11.1707C10.7301 10.8136 10.8817 10.471 11.1461 10.2307C11.414 9.98712 11.7619 9.87176 12.126 9.90678C12.7675 9.96795 13.27 10.5544 13.27 11.242V11.5854V14.0735C13.27 14.2882 13.444 14.4623 13.6588 14.4623C13.8736 14.4623 14.0476 14.2882 14.0476 14.0735V11.5854C14.0476 11.2283 14.1992 10.8857 14.4635 10.6454C14.7314 10.4018 15.0793 10.2865 15.4435 10.3215C16.085 10.3827 16.5875 10.9692 16.5875 11.6567V12V14.4881C16.5875 14.7028 16.7615 14.8769 16.9763 14.8769C17.1911 14.8769 17.3651 14.7028 17.3651 14.4881V12C17.3651 11.6429 17.5166 11.3003 17.781 11.06C18.0489 10.8164 18.3968 10.7011 18.761 10.7361C19.4025 10.7973 19.905 11.3838 19.905 12.0713V19.4643H19.9051C19.905 21.5366 18.2191 23.2224 16.1469 23.2224Z" fill="black"/>
</g>
<defs>
<clipPath id="clip0_1042_6">
<rect width="24" height="24" fill="white"/>
</clipPath>
</defs>
</svg>
