<svg width="24" height="24" viewBox="0 0 24 24" fill="none" xmlns="http://www.w3.org/2000/svg">
  <g clip-path="url(#clip0_906_2)">
    <path
      d="M0 12C0 5.3724 5.3712 0 12 0C18.6264 0 24 5.3724 24 12C24 18.6276 18.6264 24 12 24C5.3712 24 0 18.6276 0 12Z"
      fill="#FC3F1D" />
    <path
      d="M13.32 7.66606H12.396C10.702 7.66606 9.81099 8.52406 9.81099 9.78906C9.81099 11.2191 10.427 11.8891 11.692 12.7481L12.737 13.4521L9.73399 17.9391H7.48999L10.185 13.9251C8.63499 12.8141 7.76499 11.7351 7.76499 9.91006C7.76499 7.62206 9.35999 6.06006 12.385 6.06006H15.388V17.9281H13.32V7.66606Z"
      fill="white" />
  </g>
</svg>