<svg width="72" height="24" viewBox="0 0 72 24" fill="none" xmlns="http://www.w3.org/2000/svg">
<g clip-path="url(#clip0_1225_21)">
<path d="M41.0698 20.7739C34.0433 20.6303 32.1407 20.3243 30.8471 19.1288C30.3245 18.6459 29.7378 17.565 29.551 16.7407C28.8952 13.8475 29.0562 7.81447 29.8445 5.73511C30.5585 3.85205 32.2373 2.92958 35.2999 2.73741C38.3084 2.54859 46.1512 2.44577 53.7796 2.49507C62.0152 2.54824 65.8926 2.65607 67.2954 2.87096C70.0396 3.29112 71.3708 4.52839 71.8349 7.08936C71.9227 7.57353 72.0305 9.26388 72.0746 10.8456C72.252 17.2309 71.4672 19.2622 68.4761 20.1591C67.3466 20.4979 66.6078 20.5757 63.4156 20.6923C59.9486 20.8189 45.8001 20.8706 41.0698 20.7739ZM44.5265 17.2936C44.769 17.2167 45.2511 16.9939 45.598 16.7979L46.2288 16.4423V17.345H48.9615V8.54195H46.2288V15.2555L45.6006 15.6399C44.9263 16.0527 44.6537 16.1042 44.2975 15.8862C44.0994 15.7649 44.0715 15.3029 44.0715 12.1449V8.54186H41.3388V12.3552C41.3388 16.5619 41.3953 16.8948 42.1684 17.248C42.6578 17.4715 43.8891 17.4952 44.5265 17.2936ZM57.6792 17.2651C57.9302 17.1715 58.278 16.9104 58.4702 16.6713C58.8077 16.2519 58.8144 16.1941 58.8617 13.3413C58.9135 10.2134 58.8312 9.64858 58.2309 9.01458C57.8974 8.66229 57.102 8.3658 56.4901 8.3658C55.9007 8.3658 55.0562 8.6085 54.4123 8.96282L53.7078 9.35042V5.54883H51.119V17.3449H53.7078V16.5322L54.2982 16.8587C54.623 17.0382 55.0923 17.2393 55.3409 17.3055C56.0087 17.4835 57.1469 17.4639 57.6792 17.2651ZM54.247 15.8292L53.7077 15.6378V10.2389L54.346 10.0317C54.8639 9.86354 55.0605 9.84092 55.3887 9.91143C56.0979 10.0639 56.1742 10.4002 56.1251 13.1492L56.0808 15.5998L55.6772 15.8121C55.1832 16.0721 54.9404 16.075 54.247 15.8292ZM66.3642 17.2495C67.7541 16.8639 68.38 16.2117 68.4895 15.0349L68.5614 14.2639H65.7887V14.7865C65.7887 15.4264 65.6266 15.706 65.1434 15.8999C64.5987 16.1182 63.9217 15.9794 63.5958 15.5825C63.3989 15.343 63.3442 15.0511 63.3442 14.2418L63.3437 13.2075H68.5214V11.9149C68.5214 10.2881 68.3136 9.76962 67.4174 9.15957C66.6255 8.62056 65.7771 8.40594 64.4943 8.42038C63.431 8.43226 62.7205 8.5945 61.9742 8.99557C60.7546 9.65113 60.5696 10.2352 60.6426 13.2075C60.69 15.1388 60.7422 15.6094 60.947 15.9415C61.2968 16.5086 61.9286 16.9404 62.7963 17.2051C63.7743 17.5032 65.378 17.5232 66.3642 17.2495ZM63.3439 11.2239C63.3439 10.129 63.8028 9.75536 64.9577 9.91064C65.5375 9.98864 65.789 10.3858 65.789 11.224V11.887H63.344V11.224L63.3439 11.2239ZM38.6061 12.2832V7.2215H41.7703V5.54892H32.7094V7.2215H35.7297V17.345H38.6061V12.2832Z" fill="#D02726"/>
<path d="M12.0441 17.4743C11.4678 17.3533 11.0739 17.1891 10.5929 16.8702C9.5827 16.2002 9.52719 16.0002 9.52719 13.0248C9.52719 10.1579 9.5991 9.88795 10.5403 9.21479C11.8599 8.27128 14.9111 8.29918 16.2141 9.26664C17.0795 9.90926 17.1499 10.1954 17.1499 13.0688C17.1499 15.343 17.1176 15.7221 16.891 16.12C16.5435 16.7293 15.5196 17.3188 14.4808 17.5077C13.501 17.6858 13.0185 17.6792 12.0441 17.4742V17.4743ZM13.8354 16.0952C14.4237 15.957 14.4891 15.6545 14.4891 13.0774C14.4891 11.4328 14.435 10.5396 14.3266 10.394C13.9627 9.90512 12.7143 9.90512 12.3505 10.394C12.242 10.5396 12.1879 11.4328 12.1879 13.0774C12.1879 15.9529 12.2479 16.1197 13.2908 16.143C13.4624 16.1468 13.7074 16.1252 13.8354 16.0952ZM20.2251 17.4261C20.018 17.3572 19.7266 17.1507 19.5779 16.9674C19.3269 16.6583 19.3042 16.3421 19.2645 12.6067L19.2218 8.5793H21.968V12.2657C21.968 15.421 21.9987 15.968 22.1818 16.0609C22.5005 16.2228 23.0183 16.1043 23.6038 15.7354L24.1253 15.4068V8.57938H26.858V17.4704H24.1253V16.5752L23.4422 16.9464C23.0665 17.1505 22.5507 17.3718 22.2962 17.438C21.7027 17.5924 20.7079 17.5865 20.2251 17.4261ZM3.55662 15.0274L3.55447 12.5846L1.77723 9.10739L0 5.6302L1.44399 5.60493C2.28925 5.59014 2.92437 5.61585 2.97586 5.66691C3.02433 5.71488 3.4827 6.72635 3.99442 7.91458C4.50644 9.10281 4.95776 10.0752 4.99788 10.0754C5.03815 10.0755 5.41526 9.27359 5.83609 8.29311C6.25706 7.31272 6.69788 6.30257 6.81596 6.04834L7.03069 5.58618H8.54602C9.78061 5.58618 10.0473 5.60889 9.98469 5.70854C9.94255 5.7758 9.12649 7.35867 8.1715 9.22597L6.43512 12.621V17.4703H3.55864L3.55662 15.0274Z" fill="#010101"/>
</g>
<defs>
<clipPath id="clip0_1225_21">
<rect width="72" height="24" fill="white"/>
</clipPath>
</defs>
</svg>
