<svg width="24" height="24" viewBox="0 0 24 24" fill="none" xmlns="http://www.w3.org/2000/svg">
<path d="M2.40006 10.7991C3.06478 9.90843 3.9514 9.20755 4.9715 8.7664C4.41306 8.25652 4.02181 7.58972 3.84911 6.85352C3.67641 6.11731 3.73031 5.34608 4.00375 4.64106C4.2772 3.93604 4.7574 3.33015 5.38134 2.90292C6.00528 2.47569 6.74381 2.24707 7.5 2.24707C8.25619 2.24707 8.99472 2.47569 9.61866 2.90292C10.2426 3.33015 10.7228 3.93604 10.9962 4.64106C11.2697 5.34608 11.3236 6.11731 11.1509 6.85352C10.9782 7.58972 10.5869 8.25652 10.0285 8.7664C10.7649 9.08403 11.434 9.53913 12 10.1073C12.566 9.53911 13.2351 9.084 13.9715 8.7664C13.4131 8.25652 13.0218 7.58972 12.8491 6.85352C12.6764 6.11731 12.7303 5.34608 13.0038 4.64106C13.2772 3.93604 13.7574 3.33015 14.3813 2.90292C15.0053 2.47569 15.7438 2.24707 16.5 2.24707C17.2562 2.24707 17.9947 2.47569 18.6187 2.90292C19.2426 3.33015 19.7228 3.93604 19.9962 4.64106C20.2697 5.34608 20.3236 6.11731 20.1509 6.85352C19.9782 7.58972 19.5869 8.25652 19.0285 8.7664C20.0485 9.20753 20.9351 9.90834 21.5998 10.799C21.659 10.8777 21.7022 10.9673 21.7268 11.0628C21.7514 11.1582 21.757 11.2576 21.7432 11.3552C21.7294 11.4527 21.6965 11.5466 21.6463 11.6315C21.5962 11.7164 21.5298 11.7905 21.451 11.8497C21.3722 11.9089 21.2825 11.952 21.1871 11.9765C21.0916 12.001 20.9923 12.0064 20.8947 11.9925C20.7971 11.9786 20.7033 11.9456 20.6185 11.8954C20.5336 11.8451 20.4596 11.7787 20.4005 11.6998C19.9463 11.0943 19.3574 10.6029 18.6803 10.2644C18.0033 9.92595 17.2568 9.74975 16.4999 9.74977C15.743 9.74978 14.9965 9.92602 14.3195 10.2645C13.6425 10.603 13.0536 11.0945 12.5994 11.7C12.5982 11.7017 12.5967 11.703 12.5955 11.7046C12.5803 11.7244 12.5641 11.7435 12.547 11.7616C12.5414 11.7676 12.5357 11.7733 12.53 11.7791C12.5168 11.7922 12.5031 11.8049 12.4888 11.8172C12.4806 11.8243 12.4722 11.8314 12.4637 11.8382C12.4592 11.8417 12.4552 11.8456 12.4506 11.8491C12.4421 11.8555 12.433 11.8608 12.4243 11.8668C12.4148 11.8734 12.4054 11.8801 12.3956 11.8862C12.3803 11.8957 12.3645 11.9042 12.3487 11.9125C12.3408 11.9167 12.3333 11.9213 12.3253 11.9251C12.2768 11.9485 12.2258 11.9665 12.1734 11.9789C12.1658 11.9807 12.1582 11.9818 12.1506 11.9834C12.1323 11.9871 12.1141 11.9905 12.0957 11.9928C12.0853 11.9941 12.075 11.995 12.0646 11.9959C12.0491 11.9972 12.0336 11.9981 12.0181 11.9985C12.0118 11.9987 12.0055 11.9996 11.9992 11.9996C11.9949 11.9996 11.9907 11.9987 11.9864 11.9986C11.9541 11.9981 11.9218 11.9956 11.8898 11.991C11.881 11.9897 11.8723 11.9876 11.8635 11.986C11.837 11.9811 11.8108 11.9747 11.785 11.967C11.7762 11.9644 11.7673 11.9623 11.7585 11.9593C11.7277 11.9486 11.6976 11.936 11.6684 11.9214C11.6597 11.9171 11.651 11.9126 11.6424 11.9079C11.6121 11.8917 11.5831 11.8734 11.5554 11.8531C11.5534 11.8517 11.5512 11.8507 11.5493 11.8493C11.5383 11.8411 11.5285 11.832 11.5182 11.8233C11.5122 11.8183 11.5059 11.8135 11.5001 11.8083C11.4845 11.7944 11.47 11.7798 11.4558 11.7649C11.4533 11.7622 11.4506 11.7598 11.4482 11.7571C11.4277 11.7352 11.4085 11.712 11.3908 11.6878C10.9356 11.0847 10.3464 10.5957 9.66978 10.2594C8.99317 9.92304 8.24764 9.74858 7.49204 9.74977C6.73645 9.75096 5.99147 9.92776 5.31592 10.2662C4.64037 10.6047 4.05273 11.0955 3.5994 11.7C3.47993 11.8591 3.30218 11.9641 3.10525 11.9921C2.90832 12.0201 2.70833 11.9687 2.54929 11.8493C2.39024 11.7298 2.28517 11.552 2.25719 11.3551C2.2292 11.1582 2.28059 10.9582 2.40006 10.7991ZM19.0285 18.5164C19.5869 18.0065 19.9782 17.3397 20.1509 16.6035C20.3236 15.8673 20.2697 15.0961 19.9962 14.3911C19.7228 13.686 19.2426 13.0802 18.6187 12.6529C17.9947 12.2257 17.2562 11.9971 16.5 11.9971C15.7438 11.9971 15.0053 12.2257 14.3813 12.6529C13.7574 13.0802 13.2772 13.686 13.0038 14.3911C12.7303 15.0961 12.6764 15.8673 12.8491 16.6035C13.0218 17.3397 13.4131 18.0065 13.9715 18.5164C13.2351 18.834 12.566 19.2891 12 19.8573C11.434 19.2891 10.7649 18.834 10.0285 18.5164C10.5869 18.0065 10.9782 17.3397 11.1509 16.6035C11.3236 15.8673 11.2697 15.0961 10.9962 14.3911C10.7228 13.686 10.2426 13.0802 9.61866 12.6529C8.99472 12.2257 8.25619 11.9971 7.5 11.9971C6.74381 11.9971 6.00528 12.2257 5.38134 12.6529C4.7574 13.0802 4.2772 13.686 4.00375 14.3911C3.73031 15.0961 3.67641 15.8673 3.84911 16.6035C4.02181 17.3397 4.41306 18.0065 4.9715 18.5164C3.9514 18.9576 3.06478 19.6584 2.40006 20.5491C2.31638 20.6605 2.26538 20.7931 2.25279 20.9318C2.2402 21.0706 2.26652 21.2101 2.32878 21.3347C2.39105 21.4594 2.4868 21.5642 2.60531 21.6375C2.72382 21.7108 2.8604 21.7496 2.99973 21.7496L11.9972 21.7494L11.9997 21.7496L21.0001 21.7494C21.1395 21.7494 21.276 21.7106 21.3946 21.6373C21.5131 21.564 21.6088 21.4592 21.6711 21.3346C21.7333 21.2099 21.7597 21.0704 21.7471 20.9316C21.7345 20.7929 21.6835 20.6604 21.5998 20.549C20.9351 19.6583 20.0485 18.9575 19.0285 18.5164Z" fill="black"/>
</svg>
